<?xml version="1.0" standalone="no"?>
<!DOCTYPE svg PUBLIC "-//W3C//DTD SVG 1.1//EN" "http://www.w3.org/Graphics/SVG/1.1/DTD/svg11.dtd" >
<svg xmlns="http://www.w3.org/2000/svg" xmlns:xlink="http://www.w3.org/1999/xlink" version="1.1">
<metadata>
Created by FontForge 20141024 at Tue Mar 31 07:39:34 2015
 By System Administrator
Copyright 2007-2009 Dalton Maag Ltd. All rights reserved. This font may not be altered in any way without prior permission of Dalton Maag Ltd.
</metadata>
<defs>
<font id="Tondo-Regular" horiz-adv-x="466" >
  <font-face 
    font-family="Tondo"
    font-weight="400"
    font-stretch="normal"
    units-per-em="1000"
    panose-1="2 15 5 3 2 2 2 2 2 4"
    ascent="800"
    descent="-200"
    x-height="502"
    cap-height="694"
    bbox="-115 -265 1302 950"
    underline-thickness="50"
    underline-position="-50"
    unicode-range="U+0008-FB04"
  />
<missing-glyph horiz-adv-x="500" 
d="M50 0v750h400v-750h-400zM400 50v650h-300v-650h300z" />
    <glyph glyph-name="f_f" unicode="ff" horiz-adv-x="622" 
d="M558 642q-29 0 -48 -16t-19 -60v-64h88q20 0 27 -9.5t7 -26.5t-7 -26.5t-27 -9.5h-88v-398q0 -23 -11.5 -31.5t-31.5 -8.5t-31 8.5t-11 31.5v398h-226v-398q0 -23 -11.5 -31.5t-31.5 -8.5t-31 8.5t-11 31.5v398h-46q-20 0 -27 9.5t-7 26.5t7 26.5t27 9.5h46v70
q0 62 38.5 100.5t112.5 38.5q20 0 38.5 -3.5t32.5 -10t22.5 -16t8.5 -21.5q0 -17 -9.5 -27.5t-23.5 -10.5q-9 0 -15.5 3t-14 7t-16.5 7t-22 3q-29 0 -48 -16t-19 -60v-64h226v70q0 62 38.5 100.5t112.5 38.5q21 0 41.5 -4.5t36 -12t25.5 -17.5t10 -22q0 -17 -10.5 -29
t-24.5 -12q-9 0 -16.5 4.5t-16 9.5t-19 9.5t-25.5 4.5z" />
    <glyph glyph-name="f_i" unicode="fi" horiz-adv-x="544" 
d="M389 430h-209v-398q0 -23 -11.5 -31.5t-31.5 -8.5t-31 8.5t-11 31.5v398h-46q-20 0 -27 9.5t-7 26.5t7 26.5t27 9.5h46v50q0 31 10.5 59.5t32 50.5t53.5 35.5t75 13.5q65 0 113 -20q20 -8 33 -18.5t13 -24.5q0 -17 -9.5 -27.5t-23.5 -10.5q-10 0 -19 3.5t-19 7.5
q-18 7 -39 14t-48 7q-43 0 -65 -26t-22 -70v-44h254q40 0 40 -44v-426q0 -23 -11.5 -31.5t-31.5 -8.5t-31 8.5t-11 31.5v398z" />
    <glyph glyph-name="f_l" unicode="fl" horiz-adv-x="557" 
d="M247 642q-29 0 -48 -16t-19 -60v-64h216v159q0 23 11 31.5t31 8.5t31.5 -8.5t11.5 -31.5v-629q0 -23 -11.5 -31.5t-31.5 -8.5t-31 8.5t-11 31.5v398h-216v-398q0 -23 -11.5 -31.5t-31.5 -8.5t-31 8.5t-11 31.5v398h-46q-20 0 -27 9.5t-7 26.5t7 26.5t27 9.5h46v70
q0 62 38.5 100.5t112.5 38.5q20 0 38.5 -3.5t32.5 -10t22.5 -16t8.5 -21.5q0 -17 -9.5 -27.5t-23.5 -10.5q-9 0 -15.5 3t-14 7t-16.5 7t-22 3z" />
    <glyph glyph-name="f_f_i" unicode="ffi" horiz-adv-x="856" 
d="M701 430h-209v-398q0 -23 -11.5 -31.5t-31.5 -8.5t-31 8.5t-11 31.5v398h-227v-398q0 -23 -11.5 -31.5t-31.5 -8.5t-31 8.5t-11 31.5v398h-46q-20 0 -27 9.5t-7 26.5t7 26.5t27 9.5h46v70q0 62 38.5 100.5t112.5 38.5q20 0 38.5 -3.5t32.5 -10t22.5 -16t8.5 -21.5
q0 -17 -9.5 -27.5t-23.5 -10.5q-9 0 -15.5 3t-14 7t-16.5 7t-22 3q-29 0 -48 -16t-19 -60v-64h227v50q0 31 10.5 59.5t32 50.5t53.5 35.5t75 13.5q65 0 113 -20q20 -8 33 -18.5t13 -24.5q0 -17 -9.5 -27.5t-23.5 -10.5q-10 0 -19 3.5t-19 7.5q-18 7 -39 14t-48 7
q-43 0 -65 -26t-22 -70v-44h254q40 0 40 -44v-426q0 -23 -11.5 -31.5t-31.5 -8.5t-31 8.5t-11 31.5v398z" />
    <glyph glyph-name="f_f_l" unicode="ffl" horiz-adv-x="868" 
d="M558 642q-29 0 -48 -16t-19 -60v-64h216v159q0 23 11 31.5t31 8.5t31.5 -8.5t11.5 -31.5v-629q0 -23 -11.5 -31.5t-31.5 -8.5t-31 8.5t-11 31.5v398h-216v-398q0 -23 -11.5 -31.5t-31.5 -8.5t-31 8.5t-11 31.5v398h-226v-398q0 -23 -11.5 -31.5t-31.5 -8.5t-31 8.5
t-11 31.5v398h-46q-20 0 -27 9.5t-7 26.5t7 26.5t27 9.5h46v70q0 62 38.5 100.5t112.5 38.5q20 0 38.5 -3.5t32.5 -10t22.5 -16t8.5 -21.5q0 -17 -9.5 -27.5t-23.5 -10.5q-9 0 -15.5 3t-14 7t-16.5 7t-22 3q-29 0 -48 -16t-19 -60v-64h226v70q0 62 38.5 100.5t112.5 38.5
q20 0 38.5 -3.5t32.5 -10t22.5 -16t8.5 -21.5q0 -17 -9.5 -27.5t-23.5 -10.5q-9 0 -15.5 3t-14 7t-16.5 7t-22 3z" />
    <glyph glyph-name=".notdef" horiz-adv-x="500" 
d="M50 0v750h400v-750h-400zM400 50v650h-300v-650h300z" />
    <glyph glyph-name=".null" horiz-adv-x="0" 
 />
    <glyph glyph-name=".null" horiz-adv-x="0" 
 />
    <glyph glyph-name=".null" horiz-adv-x="0" 
 />
    <glyph glyph-name="nonmarkingreturn" unicode="&#x9;" horiz-adv-x="245" 
 />
    <glyph glyph-name="nonmarkingreturn" unicode="&#xd;" horiz-adv-x="245" 
 />
    <glyph glyph-name="space" unicode=" " horiz-adv-x="245" 
 />
    <glyph glyph-name="exclam" unicode="!" horiz-adv-x="272" 
d="M90 534v126q0 23 11.5 32t34.5 9t34.5 -9t11.5 -32v-126l-10 -298q-1 -20 -10 -27t-27 -7t-26 7t-9 27zM80 47q0 23 16.5 39.5t38.5 16.5q23 0 39.5 -16.5t16.5 -39.5q0 -22 -16.5 -38.5t-39.5 -16.5q-22 0 -38.5 16.5t-16.5 38.5z" />
    <glyph glyph-name="quotedbl" unicode="&#x22;" horiz-adv-x="368" 
d="M53 621v39q0 23 11.5 32t34.5 9t34.5 -9t11.5 -32v-39l-9 -127q-2 -20 -11 -26.5t-27 -6.5q-19 0 -26.5 6.5t-9.5 26.5zM223 621v39q0 23 11.5 32t34.5 9t34.5 -9t11.5 -32v-39l-9 -127q-2 -20 -11 -26.5t-27 -6.5q-19 0 -26.5 6.5t-9.5 26.5z" />
    <glyph glyph-name="numbersign" unicode="#" horiz-adv-x="642" 
d="M71 415q-20 0 -27 9.5t-7 26.5t7 26t27 9h125l24 169q3 21 11 28.5t28 7.5q19 0 29.5 -7t7.5 -29l-24 -169h137l24 169q3 21 11 28.5t28 7.5q19 0 29.5 -7t7.5 -29l-24 -169h87q20 0 27 -9t7 -26t-7 -26.5t-27 -9.5h-97l-19 -139h116q20 0 27 -9t7 -26t-7 -26.5t-27 -9.5
h-126l-24 -169q-3 -21 -11 -28.5t-28 -7.5q-19 0 -29.5 7t-7.5 29l24 169h-137l-24 -169q-3 -21 -11 -28.5t-28 -7.5q-19 0 -29.5 7t-7.5 29l24 169h-86q-20 0 -27 9.5t-7 26.5t7 26t27 9h96l19 139h-115zM243 276h137l19 139h-137z" />
    <glyph glyph-name="dollar" unicode="$" horiz-adv-x="610" 
d="M272 740q0 20 9 27t26 7t26.5 -7t9.5 -27v-59q42 -5 74 -16t55.5 -23.5t39 -25.5t23.5 -22t11 -17.5t3 -15.5q0 -14 -13.5 -26.5t-29.5 -12.5t-34 21l-16 15q-9 10 -24.5 20t-37.5 19t-51 14v-236l47 -12q86 -22 129 -65t43 -116q0 -44 -16 -78t-45.5 -58t-69.5 -37.5
t-88 -15.5v-51q0 -20 -9.5 -27t-26.5 -7t-26 7t-9 27v52q-45 4 -79.5 14t-59.5 22.5t-41.5 25t-24.5 21.5q-14 14 -16.5 22t-2.5 16q0 15 13.5 27t29.5 12q8 0 16 -4t14 -9q7 -8 18.5 -19.5t29.5 -22.5t43 -21t60 -14v246l-11 3q-49 12 -87.5 28.5t-65 39t-40.5 52t-14 67.5
q0 36 13.5 68.5t40.5 57t68 39.5t96 18v57zM477 174q0 45 -32.5 73.5t-101.5 45.5v-232q63 5 98.5 32.5t35.5 80.5zM137 504q0 -16 4.5 -31t17.5 -28.5t37 -25.5t63 -22l13 -4v221q-42 -3 -68 -14.5t-41 -27.5t-20.5 -34t-5.5 -34z" />
    <glyph glyph-name="percent" unicode="%" horiz-adv-x="949" 
d="M304 472q0 72 -24 113.5t-68 41.5q-45 0 -68.5 -41.5t-23.5 -113.5q0 -73 23.5 -113.5t68.5 -40.5q44 0 68 40.5t24 113.5zM380 472q0 -107 -45 -164.5t-123 -57.5t-123 57.5t-45 164.5t45 164.5t123 57.5t123 -57.5t45 -164.5zM829 205q0 72 -24 113.5t-68 41.5
q-45 0 -68.5 -41.5t-23.5 -113.5q0 -73 23.5 -113.5t68.5 -40.5q44 0 68 40.5t24 113.5zM905 205q0 -107 -45 -164.5t-123 -57.5t-123 57.5t-45 164.5t45 164.5t123 57.5t123 -57.5t45 -164.5zM598 671q10 21 29 21q18 0 30.5 -9.5t12.5 -20.5q0 -5 -1 -10t-5 -13l-313 -633
q-5 -11 -12 -17t-21 -6q-17 0 -28.5 9t-11.5 20q0 5 1 10t5 13z" />
    <glyph glyph-name="ampersand" unicode="&#x26;" horiz-adv-x="678" 
d="M399 559q0 13 -4.5 27t-15 26t-27.5 19.5t-42 7.5q-45 0 -67.5 -25.5t-22.5 -63.5q0 -29 16 -58.5t38 -58.5q26 13 48.5 26.5t39.5 28.5t27 32.5t10 38.5zM243 342q-49 -29 -80 -64t-31 -90q0 -31 11 -55.5t30 -41t45.5 -25t57.5 -8.5q51 0 91.5 22t66.5 54
q-46 45 -96 99.5t-95 108.5zM646 57q11 -9 14 -15t3 -13q0 -18 -14 -31.5t-30 -13.5q-8 0 -15 4t-11 7q-16 13 -29 23.5t-25 20.5t-23.5 20.5t-25.5 22.5q-42 -45 -96.5 -71.5t-121.5 -26.5q-56 0 -98 16t-70.5 43.5t-43 64.5t-14.5 79q0 38 11.5 69t32 56.5t49 46.5
t62.5 39q-32 42 -46.5 76t-14.5 71q0 36 12.5 65t35 49.5t53 31t67.5 10.5q46 0 77.5 -12.5t51 -32.5t28.5 -44.5t9 -48.5q0 -36 -12.5 -62.5t-34 -48t-50.5 -39t-62 -33.5q38 -45 77 -88t92 -92q7 11 13 24.5t10.5 27t8 25t5.5 17.5q6 27 34 27q13 0 27 -7t14 -22
q0 -7 -1.5 -13.5t-3.5 -14.5q-3 -14 -16.5 -48t-34.5 -69q22 -19 46 -40t60 -50z" />
    <glyph glyph-name="quotesingle" unicode="'" horiz-adv-x="198" 
d="M53 621v39q0 23 11.5 32t34.5 9t34.5 -9t11.5 -32v-39l-9 -127q-2 -20 -11 -26.5t-27 -6.5q-19 0 -26.5 6.5t-9.5 26.5z" />
    <glyph glyph-name="parenleft" unicode="(" horiz-adv-x="378" 
d="M154 311q0 -51 10 -101.5t32.5 -100.5t60 -99t93.5 -95q10 -8 12.5 -14t2.5 -11q0 -14 -10 -25t-24 -11q-8 0 -15.5 3.5t-16.5 8.5q-48 31 -90.5 75.5t-75 101t-51 124t-18.5 144.5t18.5 145t51 124.5t75 101t90.5 76.5q9 5 16.5 8.5t15.5 3.5q14 0 24 -11t10 -25
q0 -5 -2.5 -11t-12.5 -14q-56 -47 -93.5 -96t-60 -99t-32.5 -101t-10 -102z" />
    <glyph glyph-name="parenright" unicode=")" horiz-adv-x="378" 
d="M224 311q0 51 -10 102t-32.5 101t-60.5 99t-93 96q-10 8 -12.5 14t-2.5 11q0 14 10 25t24 11q8 0 15.5 -3.5t16.5 -8.5q48 -32 90.5 -76.5t75 -101t51 -124.5t18.5 -145t-18.5 -144.5t-51 -124t-75 -101t-90.5 -75.5q-9 -5 -16.5 -8.5t-15.5 -3.5q-14 0 -24 11t-10 25
q0 5 2.5 11t12.5 14q55 46 93 95t60.5 99t32.5 100.5t10 101.5z" />
    <glyph glyph-name="asterisk" unicode="*" horiz-adv-x="388" 
d="M163 574v107q0 17 8 22.5t23 5.5q16 0 23.5 -5.5t7.5 -22.5v-107l98 35q8 4 15 4q14 0 23 -22q5 -12 5 -19q0 -14 -20 -20l-105 -35l68 -88q8 -11 8 -17q0 -7 -5.5 -12t-13.5 -11q-11 -8 -20 -8q-12 0 -22 15l-62 86l-62 -86q-11 -15 -22 -15q-9 0 -20 8q-8 6 -13.5 11
t-5.5 12q0 6 8 17l68 88l-105 35q-20 6 -20 20q0 7 5 19q9 22 23 22q7 0 15 -4z" />
    <glyph glyph-name="plus" unicode="+" horiz-adv-x="610" 
d="M114 301q-20 0 -28 10.5t-8 28.5t8 28t28 10h151v161q0 22 10 30t29 8q20 0 30 -8t10 -30v-161h152q20 0 28 -10t8 -28t-8 -28.5t-28 -10.5h-152v-160q0 -22 -10 -30t-30 -8q-19 0 -29 8t-10 30v160h-151z" />
    <glyph glyph-name="comma" unicode="," horiz-adv-x="205" 
d="M105 -107q-7 -8 -12.5 -9.5t-9.5 -1.5q-13 0 -22.5 7t-9.5 18q0 5 1.5 10.5t9.5 15.5q11 14 22 31t13 38q-22 2 -35.5 16.5t-13.5 35.5q0 28 16 43.5t42 15.5t43.5 -18t17.5 -54q0 -30 -8.5 -55.5t-19.5 -45t-21 -32t-13 -15.5z" />
    <glyph glyph-name="hyphen" unicode="-" horiz-adv-x="284" 
d="M62 215q-21 0 -29.5 11.5t-8.5 31.5t8.5 30.5t29.5 10.5h160q21 0 29.5 -10.5t8.5 -30.5t-8.5 -31.5t-29.5 -11.5h-160z" />
    <glyph glyph-name="period" unicode="." horiz-adv-x="213" 
d="M46 52q0 24 18 42.5t42 18.5t42.5 -18.5t18.5 -42.5t-18.5 -42t-42.5 -18t-42 18t-18 42z" />
    <glyph glyph-name="slash" unicode="/" horiz-adv-x="454" 
d="M364 678q6 11 13 17t19 6q20 0 32 -9.5t12 -23.5q0 -13 -11 -32l-339 -621q-6 -11 -13 -17t-19 -6q-20 0 -32 9.5t-12 23.5q0 13 11 32z" />
    <glyph glyph-name="zero" unicode="0" horiz-adv-x="610" 
d="M476 344q0 62 -11 113t-32.5 87t-53.5 56t-74 20t-74 -20t-53.5 -56t-32.5 -87t-11 -113q0 -63 11 -115t32.5 -89t53.5 -57t74 -20t74 20t53.5 57t32.5 89t11 115zM563 344q0 -84 -17.5 -150.5t-50.5 -112t-81 -69.5t-109 -24t-109 24t-81 69.5t-50.5 112t-17.5 150.5
q0 169 68 259.5t190 90.5q123 0 190.5 -90.5t67.5 -259.5z" />
    <glyph glyph-name="one" unicode="1" horiz-adv-x="610" 
d="M154 0q-20 0 -27 9.5t-7 26.5t7 26.5t27 9.5h129v504q-28 -21 -54.5 -36.5t-37.5 -20.5t-17.5 -7t-14.5 -2q-17 0 -25.5 15t-8.5 29q0 10 5.5 17t21.5 15q12 6 27.5 14.5t32 19t32.5 22t29 23.5q11 9 20 14t28 5h4q20 0 31.5 -8.5t11.5 -31.5v-572h129q20 0 27 -9.5
t7 -26.5t-7 -26.5t-27 -9.5h-343z" />
    <glyph glyph-name="two" unicode="2" horiz-adv-x="610" 
d="M158 518q-8 -16 -16 -20t-19 -4q-15 0 -29 9t-14 26q0 8 2 18t9 23t22 34t41 41t64.5 34.5t91.5 14.5q48 0 86.5 -13t66.5 -38t43 -62t15 -86q0 -34 -11 -66.5t-30.5 -64t-45.5 -62.5t-57 -62q-21 -21 -44.5 -44t-47.5 -45t-47 -42.5t-43 -36.5h307q20 0 27 -9.5t7 -26.5
t-7 -26.5t-27 -9.5h-377q-26 0 -36 11t-10 33q0 17 6 27.5t20 21.5q16 13 43 36.5t56 50t55.5 51.5t41.5 41q28 29 52.5 55.5t42.5 53t28.5 53.5t10.5 58q0 66 -36 98.5t-96 32.5q-36 0 -61 -12t-42 -28.5t-26.5 -34.5t-15.5 -30z" />
    <glyph glyph-name="three" unicode="3" horiz-adv-x="610" 
d="M66 95q-7 11 -12 21.5t-5 24.5q0 18 15.5 29t30.5 11q11 0 19 -5.5t17 -20.5q7 -12 19 -28.5t30 -31t44.5 -24.5t63.5 -10q75 0 115 36t40 102q0 122 -162 122h-10q-20 0 -27 9.5t-7 26.5t7 26.5t27 9.5h11q74 0 108 34.5t34 85.5q0 54 -33 81.5t-93 27.5
q-34 0 -58.5 -9.5t-42.5 -24t-30.5 -30.5t-21.5 -28q-8 -11 -15 -15.5t-16 -4.5q-19 0 -31.5 10.5t-12.5 25.5q0 13 5.5 23t10.5 18q7 9 22.5 27t41.5 35.5t63 31t87 13.5q102 0 156 -46t54 -128q0 -52 -25.5 -93.5t-72.5 -62.5q49 -19 84 -59.5t35 -108.5q0 -51 -18.5 -90
t-51 -65t-76 -39.5t-93.5 -13.5q-57 0 -96.5 12.5t-65.5 29.5t-41.5 35.5t-22.5 29.5z" />
    <glyph glyph-name="four" unicode="4" horiz-adv-x="610" 
d="M383 221v347l-240 -347h240zM363 657q10 14 22.5 20.5t34.5 6.5q20 0 31.5 -8.5t11.5 -31.5v-423h54q20 0 27 -8t7 -25t-7 -27t-27 -10h-54v-118q0 -23 -11 -31.5t-31 -8.5t-29 8.5t-9 31.5v118h-279q-26 0 -37 12.5t-11 32.5q0 13 5 23.5t15 24.5z" />
    <glyph glyph-name="five" unicode="5" horiz-adv-x="610" 
d="M181 349q-8 -6 -18 -12t-25 -6q-46 0 -46 38v5l18 263q2 23 13.5 33t32.5 10h309q20 0 27 -10t7 -27t-7 -27.5t-27 -10.5h-284l-12 -194q4 5 16 14t30 18t42.5 15.5t53.5 6.5q57 0 98.5 -18t69 -49.5t40.5 -74.5t13 -92q0 -60 -17.5 -105.5t-49 -76t-74 -46t-93.5 -15.5
q-52 0 -88 11.5t-60.5 27.5t-38.5 33t-21 28t-11.5 22.5t-4.5 25.5q0 18 15 27.5t30 9.5q11 0 19.5 -5t16.5 -21q4 -9 11.5 -23.5t23 -29t40.5 -25t63 -10.5q78 0 115.5 47.5t37.5 123.5q0 83 -40.5 124t-104.5 41q-24 0 -44.5 -6t-36 -14t-25.5 -16z" />
    <glyph glyph-name="six" unicode="6" horiz-adv-x="610" 
d="M463 225q0 34 -8 64.5t-26 53t-46.5 35.5t-69.5 13q-40 0 -69 -14t-47.5 -37.5t-27 -54t-8.5 -63.5q0 -32 9 -61.5t28 -52.5t47.5 -37t67.5 -14t67.5 14t47 37.5t27 53.5t8.5 63zM331 623q-75 0 -120.5 -59.5t-49.5 -185.5q20 34 63.5 58.5t99.5 24.5q52 0 93.5 -17
t70.5 -47.5t44.5 -74t15.5 -96.5q0 -52 -16 -95.5t-46 -75t-73 -49.5t-97 -18q-126 0 -185.5 79.5t-59.5 236.5q0 75 11 145.5t40.5 125t80.5 87t132 32.5q39 0 68.5 -8t50.5 -18t33 -20.5t15 -14.5q8 -11 11.5 -18t3.5 -16q0 -16 -10 -25.5t-27 -9.5q-13 0 -23.5 7.5
t-23.5 15.5q-21 14 -43 25t-59 11z" />
    <glyph glyph-name="seven" unicode="7" horiz-adv-x="610" 
d="M274 14q-4 -9 -10.5 -15t-18.5 -6q-17 0 -33 7.5t-16 23.5q0 8 2.5 17t5.5 17q54 139 119 272t142 273h-321v-59q0 -20 -10 -27t-28 -7t-28 7t-10 27v93q0 23 12.5 33t33.5 10h397q46 0 46 -45q0 -12 -4 -24.5t-15 -31.5q-33 -61 -67.5 -129t-69 -140t-67 -146.5
t-60.5 -149.5z" />
    <glyph glyph-name="eight" unicode="8" horiz-adv-x="610" 
d="M445 509q0 20 -7 41t-23.5 37.5t-43 27t-65.5 10.5t-66 -10.5t-43 -27t-23 -37.5t-7 -41q0 -29 12.5 -51t32.5 -36.5t45 -21.5t49 -7t49 7t45 21.5t32.5 36.5t12.5 51zM467 191q0 36 -14 61t-36.5 41.5t-51.5 24t-59 7.5t-59 -7.5t-52 -24t-37 -41.5t-14 -61t14 -61.5
t37 -41.5t52 -23t59 -7q29 0 57.5 7t51.5 23t37.5 41.5t14.5 61.5zM555 188q0 -36 -13 -71.5t-42 -64t-76.5 -46.5t-117.5 -18q-71 0 -118.5 18t-77 46.5t-42 64t-12.5 71.5q0 33 10 61t27.5 49.5t41 37.5t50.5 25q-41 19 -71.5 56.5t-30.5 91.5q0 51 20.5 86.5t52.5 57
t72 31.5t78 10q39 0 78.5 -10t71.5 -31.5t52.5 -57t20.5 -86.5q0 -53 -30.5 -91t-71.5 -57q54 -18 91 -61.5t37 -111.5z" />
    <glyph glyph-name="nine" unicode="9" horiz-adv-x="610" 
d="M146 456q0 -34 8 -64.5t26 -53t46.5 -35.5t69.5 -13q40 0 69 14t47.5 37.5t27.5 54t9 63.5q0 32 -9 62t-28 53t-48 37t-68 14t-67.5 -14t-47 -37.5t-27 -54t-8.5 -63.5zM279 59q75 0 120 59t49 185q-20 -34 -63.5 -58.5t-99.5 -24.5q-52 0 -93.5 16.5t-70.5 47.5
t-44.5 74.5t-15.5 96.5q0 52 16 95.5t46.5 75.5t74.5 50t99 18q123 0 182 -79.5t59 -236.5q0 -75 -11 -145.5t-40.5 -125t-80.5 -87t-132 -32.5q-39 0 -68 6.5t-49 15t-31.5 17t-15.5 11.5q-18 17 -18 34q0 16 12.5 28.5t26.5 12.5q16 0 27 -8.5t25 -18.5t36 -18.5t60 -8.5z
" />
    <glyph glyph-name="colon" unicode=":" horiz-adv-x="213" 
d="M46 440q0 24 18 42.5t42 18.5t42.5 -18.5t18.5 -42.5t-18.5 -42t-42.5 -18t-42 18t-18 42zM46 52q0 24 18 42.5t42 18.5t42.5 -18.5t18.5 -42.5t-18.5 -42t-42.5 -18t-42 18t-18 42z" />
    <glyph glyph-name="semicolon" unicode=";" horiz-adv-x="207" 
d="M107 -107q-7 -8 -12.5 -9.5t-9.5 -1.5q-13 0 -22.5 7t-9.5 18q0 5 1.5 10.5t9.5 15.5q11 14 22 31t13 38q-22 2 -35.5 16.5t-13.5 35.5q0 28 16 43.5t42 15.5t43.5 -18t17.5 -54q0 -30 -8.5 -55.5t-19.5 -45t-21 -32t-13 -15.5zM48 440q0 24 18 42.5t42 18.5t42.5 -18.5
t18.5 -42.5t-18.5 -42t-42.5 -18t-42 18t-18 42z" />
    <glyph glyph-name="less" unicode="&#x3c;" horiz-adv-x="610" 
d="M96 298q-15 8 -19.5 18t-4.5 24t4.5 23.5t19.5 17.5l380 189q9 5 14 6t11 1q14 0 25 -13.5t11 -31.5q0 -17 -22 -28l-336 -165l336 -163q22 -11 22 -28q0 -18 -11 -31.5t-25 -13.5q-6 0 -11 1t-14 6z" />
    <glyph glyph-name="equal" unicode="=" horiz-adv-x="610" 
d="M114 199q-20 0 -28 10.5t-8 28.5t8 28t28 10h382q20 0 28 -10t8 -28t-8 -28.5t-28 -10.5h-382zM114 403q-20 0 -28 10.5t-8 28.5t8 28t28 10h382q20 0 28 -10t8 -28t-8 -28.5t-28 -10.5h-382z" />
    <glyph glyph-name="greater" unicode="&#x3e;" horiz-adv-x="610" 
d="M133 110q-9 -5 -14 -6t-11 -1q-14 0 -25 13.5t-11 31.5q0 17 22 28l336 163l-336 165q-22 11 -22 28q0 18 11 31.5t25 13.5q6 0 11 -1t14 -6l380 -189q15 -8 19.5 -17.5t4.5 -23.5t-4.5 -24t-19.5 -18z" />
    <glyph glyph-name="question" unicode="?" horiz-adv-x="531" 
d="M53 586q6 11 19.5 32t38 41.5t62.5 35.5t93 15q48 0 87.5 -13t68 -37.5t44.5 -60.5t16 -82q0 -37 -10 -65.5t-26.5 -50.5t-37 -39.5t-41.5 -32.5q-23 -17 -37.5 -30.5t-22.5 -25.5t-11 -24.5t-3 -28.5q0 -22 -10 -30t-30 -8q-19 0 -29 8t-10 30v11q0 29 8 51t21 39
t29.5 31t34.5 27q16 12 31.5 25t27.5 28.5t19 35.5t7 47q0 59 -34.5 90t-96.5 31q-39 0 -64.5 -12t-41.5 -28.5t-23.5 -34t-11.5 -28.5q-6 -18 -15 -22.5t-22 -4.5q-17 0 -30 9t-13 26q0 8 2.5 19t10.5 26zM198 47q0 23 16.5 39.5t38.5 16.5q23 0 39.5 -16.5t16.5 -39.5
q0 -22 -16.5 -38.5t-39.5 -16.5q-22 0 -38.5 16.5t-16.5 38.5z" />
    <glyph glyph-name="at" unicode="@" horiz-adv-x="917" 
d="M564 213q0 31 -8 60t-23 50.5t-37.5 34.5t-50.5 13q-32 0 -54.5 -12.5t-37 -33.5t-21.5 -49.5t-7 -59.5t7 -60t21.5 -51t37 -35.5t54.5 -13.5q28 0 50.5 11.5t37.5 32.5t23 50t8 63zM686 -181q-14 -5 -61 -17t-135 -12q-94 0 -174.5 30t-140 84.5t-93 131.5t-33.5 170
q0 91 31 168.5t86 134t130 88t163 31.5q93 0 168.5 -31.5t129 -84.5t82.5 -122.5t29 -144.5q0 -82 -20 -133t-50 -79t-64.5 -38t-62.5 -10q-45 0 -69.5 18.5t-32.5 51.5q-19 -32 -54.5 -51t-77.5 -19q-45 0 -81 17t-62 48t-40 73.5t-14 92.5t14 91.5t40 71.5t62 47t81 17
q26 0 46.5 -6.5t36 -17t26 -23t16.5 -23.5v18q0 21 10 29t29 8q20 0 30 -8t10 -29v-292q0 -17 7.5 -29.5t30.5 -12.5q19 0 38 8.5t34 30t24.5 58.5t9.5 93q0 58 -22.5 113.5t-64.5 98t-102.5 68.5t-136.5 26q-71 0 -131 -25.5t-103.5 -71.5t-68 -110.5t-24.5 -141.5t27 -139
t75.5 -106t115.5 -68t147 -24q69 0 106.5 10t50.5 14q10 3 14.5 3.5t10.5 0.5q17 -1 25 -16t8 -26q0 -14 -6 -21.5t-20 -12.5z" />
    <glyph glyph-name="A" unicode="A" horiz-adv-x="672" 
d="M71 -7q-18 0 -34.5 9.5t-16.5 26.5q0 3 1 8t5 13l263 624q6 12 16.5 19.5t31.5 7.5q23 0 33.5 -7.5t15.5 -19.5l261 -622q4 -8 4.5 -12.5t0.5 -8.5q0 -18 -16.5 -28t-35.5 -10q-14 0 -22 7.5t-13 18.5l-77 180h-306l-78 -181q-11 -25 -33 -25zM336 585l-123 -312h244z
" />
    <glyph glyph-name="B" unicode="B" horiz-adv-x="642" 
d="M483 503q0 30 -9 51.5t-30 35.5t-55.5 20.5t-85.5 6.5h-134v-228h126q53 0 89 7t58 21t31.5 35.5t9.5 50.5zM505 195q0 30 -9 52.5t-31 38t-57.5 23t-89.5 7.5h-149v-239h161q95 0 135 29t40 89zM306 694q138 0 202.5 -43.5t64.5 -140.5q0 -52 -25.5 -90t-73.5 -60
q63 -22 93 -66.5t30 -98.5q0 -100 -64.5 -147.5t-198.5 -47.5h-205q-21 0 -33.5 10t-12.5 33v608q0 23 12.5 33t33.5 10h177z" />
    <glyph glyph-name="C" unicode="C" horiz-adv-x="696" 
d="M571 183q9 16 17.5 23.5t21.5 7.5q14 0 30 -8t16 -30q0 -20 -15.5 -47.5t-33.5 -48.5q-7 -8 -24.5 -24.5t-46 -32.5t-67.5 -28t-90 -12q-74 0 -134.5 26t-103.5 73t-66.5 114t-23.5 150t23.5 150.5t66.5 115t103.5 73.5t134.5 26q49 0 87 -11t65 -25.5t44 -30t25 -24.5
q18 -21 34.5 -48.5t16.5 -47.5q0 -22 -16.5 -30t-30.5 -8q-13 0 -21.5 7.5t-15.5 20.5q-11 20 -27 40.5t-38 37.5t-52 28t-70 11q-57 0 -100.5 -21t-73.5 -58.5t-45 -90t-15 -115.5q0 -62 15 -114.5t45 -90t73.5 -58.5t100.5 -21q45 0 77 12.5t54 31t36 39.5t24 38z" />
    <glyph glyph-name="D" unicode="D" horiz-adv-x="714" 
d="M569 346q0 69 -19 120t-53 84.5t-82 50t-105 16.5h-138v-540h138q58 0 106 16.5t82 49.5t52.5 83.5t18.5 119.5zM130 0q-22 0 -34.5 10t-12.5 33v608q0 23 12.5 33t34.5 10h186q78 0 142 -21t110 -63.5t71 -108t25 -155.5q0 -89 -25 -154t-71 -107.5t-110 -63.5t-142 -21
h-186z" />
    <glyph glyph-name="E" unicode="E" horiz-adv-x="603" 
d="M171 316v-239h354q20 0 28.5 -9.5t8.5 -28.5t-8.5 -29t-28.5 -10h-396q-21 0 -33.5 10t-12.5 33v608q0 23 12.5 33t33.5 10h396q20 0 28.5 -9.5t8.5 -28.5t-8.5 -29t-28.5 -10h-354v-224h335q20 0 28.5 -9.5t8.5 -28.5t-8.5 -29t-28.5 -10h-335z" />
    <glyph glyph-name="F" unicode="F" horiz-adv-x="566" 
d="M83 651q0 23 12.5 33t33.5 10h376q20 0 28.5 -9.5t8.5 -28.5t-8.5 -29t-28.5 -10h-334v-225h305q20 0 28.5 -9.5t8.5 -28.5t-8.5 -29t-28.5 -10h-305v-281q0 -23 -11.5 -32t-32.5 -9t-32.5 9t-11.5 32v617z" />
    <glyph glyph-name="G" unicode="G" horiz-adv-x="730" 
d="M608 622q18 -21 31 -43t13 -42q0 -11 -5 -18t-12 -11.5t-15 -6t-15 -1.5q-13 0 -20.5 6.5t-17.5 22.5q-32 54 -76 78.5t-105 24.5q-54 0 -98 -18t-75.5 -54.5t-49 -91t-17.5 -127.5q0 -136 56.5 -207.5t168.5 -71.5q30 0 68 8t72.5 32t58 69t23.5 119h-173
q-20 0 -28.5 10t-8.5 29t8.5 28.5t28.5 9.5h204q21 0 33.5 -10t12.5 -33v-296q0 -20 -10 -27.5t-28 -7.5q-19 0 -28.5 7.5t-9.5 27.5v69q-13 -17 -31.5 -37t-46.5 -37t-66.5 -28.5t-92.5 -11.5q-73 0 -130 25t-96 71.5t-59.5 112.5t-20.5 149q0 71 18.5 138t59 118.5
t104 82.5t153.5 31q67 0 125.5 -22.5t96.5 -66.5z" />
    <glyph glyph-name="H" unicode="H" horiz-adv-x="721" 
d="M83 660q0 23 12 32t33 9t32.5 -9t11.5 -32v-253h377v253q0 23 11.5 32t32.5 9t33 -9t12 -32v-626q0 -23 -12 -32t-33 -9t-32.5 9t-11.5 32v296h-377v-296q0 -23 -11.5 -32t-32.5 -9t-33 9t-12 32v626z" />
    <glyph glyph-name="I" unicode="I" horiz-adv-x="254" 
d="M83 660q0 23 11.5 32t32.5 9t32.5 -9t11.5 -32v-626q0 -23 -11.5 -32t-32.5 -9t-32.5 9t-11.5 32v626z" />
    <glyph glyph-name="J" unicode="J" horiz-adv-x="537" 
d="M245 59q71 0 99.5 40.5t28.5 126.5v434q0 23 11.5 32t32.5 9t32.5 -9t11.5 -32v-433q0 -127 -56.5 -185.5t-169.5 -58.5q-49 0 -83 13t-56.5 31.5t-36.5 40t-22 39.5q-9 21 -9 38q0 22 16.5 31.5t32.5 9.5t24 -10t16 -26q9 -18 20.5 -34.5t26.5 -29t34.5 -20t46.5 -7.5z
" />
    <glyph glyph-name="K" unicode="K" horiz-adv-x="636" 
d="M162 34q0 -23 -11.5 -32t-32.5 -9q-22 0 -33.5 9t-11.5 32v626q0 23 11.5 32t33.5 9q21 0 32.5 -9t11.5 -32v-297l338 322q16 16 32 16q18 0 30.5 -13t12.5 -27q0 -5 -3.5 -13t-14.5 -19l-226 -217l275 -351q7 -9 8.5 -16t1.5 -11q0 -8 -4.5 -15.5t-11.5 -13t-15 -9
t-15 -3.5q-23 0 -42 24l-262 337l-104 -98v-222z" />
    <glyph glyph-name="L" unicode="L" horiz-adv-x="563" 
d="M83 660q0 23 11.5 32t32.5 9t32.5 -9t11.5 -32v-583h334q20 0 28.5 -9.5t8.5 -28.5t-8.5 -29t-28.5 -10h-376q-21 0 -33.5 10t-12.5 33v617z" />
    <glyph glyph-name="M" unicode="M" horiz-adv-x="870" 
d="M168 544v-512q0 -22 -11.5 -30.5t-31.5 -8.5t-31 8.5t-11 30.5v617q0 29 15.5 40.5t42.5 11.5q28 0 41 -9.5t21 -28.5l234 -559l234 559q8 19 20.5 28.5t39.5 9.5t41.5 -11.5t14.5 -40.5v-617q0 -22 -11 -30.5t-31 -8.5t-31.5 8.5t-11.5 30.5v513l-216 -510
q-6 -14 -18 -24t-33 -10t-33 10t-18 24z" />
    <glyph glyph-name="N" unicode="N" horiz-adv-x="719" 
d="M169 558v-526q0 -22 -11.5 -30.5t-31.5 -8.5t-31.5 8.5t-11.5 30.5v626q0 24 13.5 33.5t38.5 9.5q24 0 36.5 -10.5t23.5 -27.5l355 -529v528q0 22 11.5 30.5t31.5 8.5t31.5 -8.5t11.5 -30.5v-626q0 -24 -13.5 -33.5t-38.5 -9.5q-24 0 -36.5 10.5t-23.5 27.5z" />
    <glyph glyph-name="O" unicode="O" horiz-adv-x="764" 
d="M713 347q0 -84 -24 -151.5t-67.5 -115t-104.5 -72.5t-135 -25t-135 25t-104.5 72.5t-67.5 115t-24 151.5t24 151.5t67.5 115t104.5 72.5t135 25t135 -25t104.5 -72.5t67.5 -115t24 -151.5zM146 347q0 -65 15 -117.5t45 -89.5t74 -57.5t102 -20.5t102 20.5t74 57.5
t45 89.5t15 117.5q0 64 -15 117t-45 90t-74 57.5t-102 20.5t-102 -20.5t-74 -57.5t-45 -90t-15 -117z" />
    <glyph glyph-name="P" unicode="P" horiz-adv-x="613" 
d="M296 352q53 0 89 9.5t57.5 27t31 42t9.5 54.5q0 29 -9 53.5t-30 42.5t-55 28t-84 10h-135v-267h126zM126 -7q-21 0 -32 9t-11 32v617q0 23 12.5 33t33.5 10h179q137 0 201 -54t64 -155q0 -28 -9.5 -64t-37.5 -68t-77.5 -54t-129.5 -22h-149v-243q0 -23 -11.5 -32
t-32.5 -9z" />
    <glyph glyph-name="Q" unicode="Q" horiz-adv-x="764" 
d="M713 347q0 -103 -35 -179.5t-97 -123.5l51 -80q7 -11 9 -18.5t2 -12.5q0 -17 -15 -27.5t-29 -10.5q-7 0 -15 3.5t-19 20.5l-55 86q-61 -22 -128 -22q-74 0 -135 25t-104.5 72.5t-67.5 115t-24 151.5t24 151.5t67.5 115t104.5 72.5t135 25t135 -25t104.5 -72.5t67.5 -115
t24 -151.5zM146 347q0 -65 15 -117.5t45 -89.5t74 -57.5t102 -20.5q47 0 83 13l-43 68q-8 12 -9.5 19t-1.5 12q0 16 15 26.5t29 10.5q7 0 15.5 -3.5t19.5 -19.5l45 -72q83 77 83 231q0 64 -15 117t-45 90t-74 57.5t-102 20.5t-102 -20.5t-74 -57.5t-45 -90t-15 -117z" />
    <glyph glyph-name="R" unicode="R" horiz-adv-x="629" 
d="M170 619v-248h130q53 0 88 8t56 23.5t29.5 38.5t8.5 53q0 29 -8.5 52.5t-29.5 39.5t-55 24.5t-85 8.5h-134zM579 59q6 -12 7 -18t1 -10q0 -18 -15.5 -28t-34.5 -10q-14 0 -23 7.5t-18 25.5l-143 272q-8 -1 -16.5 -1.5t-17.5 -0.5h-149v-262q0 -23 -11.5 -32t-32.5 -9
t-32 9t-11 32v617q0 23 12.5 33t33.5 10h178q138 0 202 -50t64 -150q0 -22 -5.5 -47.5t-19.5 -50t-40 -46t-66 -36.5z" />
    <glyph glyph-name="S" unicode="S" horiz-adv-x="604" 
d="M386 376q87 -26 127.5 -70.5t40.5 -120.5q0 -53 -19.5 -91t-52 -63t-75 -36.5t-87.5 -11.5q-75 0 -143.5 21t-116.5 72q-13 14 -15.5 23.5t-2.5 17.5q0 16 15 29t31 13q9 -1 16 -6t13 -11q48 -49 95 -66.5t106 -17.5q64 0 105.5 29.5t41.5 86.5q0 50 -30 79t-99 49
l-87 25q-93 26 -138.5 70t-45.5 123q0 50 21.5 86t56 59.5t76 34.5t82.5 11q69 0 129.5 -23t102.5 -76q8 -11 11 -19t3 -16q0 -17 -13 -28t-28 -11q-10 0 -18.5 4.5t-19.5 15.5q-38 42 -77 60t-91 18q-28 0 -54 -7t-46.5 -21t-33 -35.5t-12.5 -49.5q0 -19 5.5 -34.5
t19 -29.5t37.5 -26t60 -23z" />
    <glyph glyph-name="T" unicode="T" horiz-adv-x="602" 
d="M345 34q0 -23 -11.5 -32t-32.5 -9t-32.5 9t-11.5 32v583h-209q-21 0 -29.5 10t-8.5 29t8.5 28.5t29.5 9.5h506q21 0 29.5 -9.5t8.5 -28.5t-8.5 -29t-29.5 -10h-209v-583z" />
    <glyph glyph-name="U" unicode="U" horiz-adv-x="711" 
d="M544 660q0 23 11.5 32t32.5 9t33 -9t12 -32v-407q0 -60 -18 -109.5t-53 -85t-87 -55.5t-120 -20t-119.5 20t-86.5 55.5t-53 85t-18 109.5v407q0 23 12 32t33 9t32.5 -9t11.5 -32v-400q0 -100 50 -149.5t138 -49.5q90 0 139.5 49.5t49.5 149.5v400z" />
    <glyph glyph-name="V" unicode="V" horiz-adv-x="644" 
d="M369 20q-5 -12 -15.5 -19.5t-32.5 -7.5q-23 0 -33.5 7.5t-15.5 19.5l-236 607q-5 11 -8 19.5t-3 16.5q0 18 16.5 28t35.5 10q26 0 34 -23l211 -561l215 562q5 11 11.5 16.5t20.5 5.5q18 0 34 -9.5t16 -26.5q0 -7 -3 -15.5t-8 -18.5z" />
    <glyph glyph-name="W" unicode="W" horiz-adv-x="934" 
d="M820 675q7 26 33 26q19 0 35 -8.5t16 -26.5q0 -8 -3 -18.5t-6 -20.5l-176 -601q-9 -33 -50 -33q-40 0 -49 33l-154 517l-153 -517q-9 -33 -49 -33q-41 0 -50 33l-176 601q-2 9 -5 20t-3 18q0 18 16 27t36 9q27 0 34 -26l150 -542l154 535q5 16 16 24.5t32 8.5
q39 0 48 -33l154 -535z" />
    <glyph glyph-name="X" unicode="X" horiz-adv-x="625" 
d="M512 683q9 11 16.5 14.5t18.5 3.5q14 0 27.5 -10t13.5 -27q0 -8 -4 -16t-10 -16l-209 -272l223 -294q17 -24 17 -37q0 -16 -15 -26t-31 -10q-11 0 -19.5 4.5t-19.5 18.5l-208 274l-215 -279q-8 -11 -16 -14.5t-18 -3.5q-15 0 -29 9.5t-14 25.5q0 14 12 31l229 298
l-208 275q-6 8 -10 16t-4 16q0 17 15.5 27t29.5 10q11 0 19.5 -3.5t17.5 -14.5l194 -258z" />
    <glyph glyph-name="Y" unicode="Y" horiz-adv-x="605" 
d="M259 319q-54 73 -114.5 155t-114.5 156q-5 8 -9 16t-4 16q0 17 15.5 28t30.5 11q21 0 33 -18l209 -292l206 289q14 21 34 21q14 0 28.5 -10t14.5 -27q0 -8 -4 -16t-9 -16l-227 -314v-284q0 -23 -11.5 -32t-32.5 -9t-33 9t-12 32v285z" />
    <glyph glyph-name="Z" unicode="Z" horiz-adv-x="597" 
d="M73 0q-47 0 -47 44q0 12 4.5 22.5t17.5 27.5l410 523h-372q-20 0 -28.5 10t-8.5 29t8.5 28.5t28.5 9.5h432q47 0 47 -44q0 -12 -5 -22.5t-17 -27.5l-411 -523h401q21 0 29.5 -9.5t8.5 -28.5t-8.5 -29t-29.5 -10h-460z" />
    <glyph glyph-name="bracketleft" unicode="[" horiz-adv-x="295" 
d="M83 695q0 23 12.5 33t33.5 10h115q19 0 25.5 -8t6.5 -25t-6.5 -25t-25.5 -8h-80v-742h80q19 0 25.5 -8t6.5 -25t-6.5 -25t-25.5 -8h-115q-21 0 -33.5 10t-12.5 33v788z" />
    <glyph glyph-name="backslash" unicode="\" horiz-adv-x="454" 
d="M429 57q11 -19 11 -32q0 -14 -12 -23.5t-32 -9.5q-12 0 -19 6t-13 17l-339 621q-11 19 -11 32q0 14 12 23.5t32 9.5q12 0 19 -6t13 -17z" />
    <glyph glyph-name="bracketright" unicode="]" horiz-adv-x="295" 
d="M212 -93q0 -23 -12.5 -33t-33.5 -10h-115q-19 0 -25.5 8t-6.5 25t6.5 25t25.5 8h80v742h-80q-19 0 -25.5 8t-6.5 25t6.5 25t25.5 8h115q21 0 33.5 -10t12.5 -33v-788z" />
    <glyph glyph-name="asciicircum" unicode="^" horiz-adv-x="478" 
d="M240 590l-119 -241q-5 -11 -12 -17.5t-24 -6.5t-30 9.5t-13 23.5q0 6 1.5 12t7.5 17l139 278q8 15 18.5 22t30.5 7q21 0 31.5 -7t18.5 -22l139 -278q6 -11 7.5 -17t1.5 -12q0 -14 -13 -23.5t-30 -9.5t-24 6.5t-12 17.5z" />
    <glyph glyph-name="underscore" unicode="_" horiz-adv-x="494" 
d="M457 -141q20 0 27 -9.5t7 -26.5t-7 -26.5t-27 -9.5h-420q-20 0 -27 9.5t-7 26.5t7 26.5t27 9.5h420z" />
    <glyph glyph-name="grave" unicode="`" horiz-adv-x="392" 
d="M261 632q13 -14 13 -30q0 -13 -9 -21.5t-23 -8.5t-24 6t-20 15l-85 76q-23 21 -23 37q0 17 14.5 32t35.5 15q15 0 27 -10t28 -29z" />
    <glyph glyph-name="a" unicode="a" horiz-adv-x="559" 
d="M398 313v20q0 57 -29.5 85t-95.5 28q-26 0 -45 -6t-32.5 -14t-22 -17t-14.5 -16q-10 -12 -17 -16t-18 -4q-16 0 -29.5 9.5t-13.5 24.5q0 8 1.5 13t4.5 11q1 3 12 17t33.5 30t58 28.5t86.5 12.5q57 0 96.5 -14.5t63.5 -38.5t35 -55.5t11 -65.5v-319q0 -33 -43 -33
q-29 0 -35.5 13t-6.5 36v30q-10 -14 -24 -29t-34.5 -27.5t-49 -20.5t-65.5 -8q-45 0 -77.5 11t-54 30.5t-32 46t-10.5 56.5q0 39 14 72t48 56.5t90.5 37t142.5 15.5zM343 245q-64 -1 -104 -9t-63 -21.5t-31.5 -32.5t-8.5 -43q0 -34 23.5 -58.5t77.5 -24.5q47 0 85.5 21.5
t58.5 53.5q17 27 17 73v42z" />
    <glyph glyph-name="b" unicode="b" horiz-adv-x="595" 
d="M76 661q0 23 11 31.5t31 8.5t31.5 -8.5t11.5 -31.5v-228q8 15 23 30.5t35.5 27.5t46.5 20t58 8q52 0 93 -19.5t69.5 -54.5t43 -83.5t14.5 -107.5t-14.5 -108.5t-43 -85.5t-69.5 -56t-93 -20q-61 0 -103.5 27t-63.5 66v-46q0 -22 -10.5 -30t-30.5 -8t-30 8t-10 30v630z
M454 251q0 43 -9 78t-27 60.5t-45 39.5t-63 14q-72 0 -112 -50.5t-40 -139.5q0 -42 9.5 -77.5t28.5 -61.5t47 -40.5t64 -14.5q35 0 62.5 14t46 39.5t28.5 61t10 77.5z" />
    <glyph glyph-name="c" unicode="c" horiz-adv-x="525" 
d="M404 126q12 17 19.5 23t20.5 6q14 0 27.5 -10t13.5 -25q0 -14 -7 -27q-5 -11 -18.5 -29.5t-37 -36.5t-57 -31t-79.5 -13q-57 0 -101 20t-74 55.5t-46 85t-16 108.5t16 108t46 84.5t74 55t101 19.5q43 0 75.5 -10.5t56 -26.5t38 -35t22.5 -35q4 -8 6 -15t2 -15
q0 -18 -13 -28.5t-28 -10.5q-11 0 -18.5 4.5t-18.5 20.5q-6 8 -15 21t-23 25t-34.5 20.5t-49.5 8.5q-75 0 -111 -51t-36 -139q0 -90 36 -142t111 -52q27 0 46 6.5t32.5 16.5t22.5 21.5t17 22.5z" />
    <glyph glyph-name="d" unicode="d" horiz-adv-x="595" 
d="M519 31q0 -22 -10 -30t-30 -8t-30.5 8t-10.5 30v46q-21 -39 -63.5 -66t-103.5 -27q-53 0 -93.5 20t-69 55.5t-43 85t-14.5 108.5t14.5 108t43 84t69 54.5t93.5 19.5q31 0 57.5 -8t47 -20t35.5 -27.5t23 -30.5v228q0 23 11.5 31.5t31.5 8.5t31 -8.5t11 -31.5v-630z
M141 250q0 -87 38 -139t109 -52q36 0 64 14.5t47 40.5t28.5 61.5t9.5 77.5q0 89 -40 139.5t-112 50.5q-36 0 -63 -14t-45 -39.5t-27 -61t-9 -78.5z" />
    <glyph glyph-name="e" unicode="e" horiz-adv-x="566" 
d="M290 446q-35 0 -61 -11.5t-44 -31t-28.5 -46t-13.5 -55.5h291q-3 28 -12.5 54.5t-27 46t-43.5 31.5t-61 12zM520 263q0 -36 -41 -36h-340q0 -81 40.5 -125t114.5 -44q29 0 50.5 7.5t36.5 18t24.5 21.5t15.5 19q7 10 13.5 15t19.5 5q14 0 27.5 -9t13.5 -24q0 -13 -11 -31
q-9 -14 -23.5 -30.5t-37 -31.5t-54.5 -25t-75 -10q-56 0 -101.5 19.5t-77.5 55t-49 85t-17 108.5q0 60 17 109t48.5 84.5t76 55t99.5 19.5q56 0 99 -19.5t72 -54t44 -81.5t15 -101z" />
    <glyph glyph-name="f" unicode="f" horiz-adv-x="311" 
d="M247 642q-29 0 -48 -16t-19 -60v-64h88q20 0 27 -9.5t7 -26.5t-7 -26.5t-27 -9.5h-88v-397q0 -23 -11.5 -31.5t-31.5 -8.5t-31 8.5t-11 31.5v397h-46q-20 0 -27 9.5t-7 26.5t7 26.5t27 9.5h46v70q0 62 38.5 100.5t112.5 38.5q21 0 41.5 -4.5t36 -12t25.5 -17.5t10 -22
q0 -17 -10.5 -29t-24.5 -12q-9 0 -16.5 4.5t-16 9.5t-19 9.5t-25.5 4.5z" />
    <glyph glyph-name="g" unicode="g" horiz-adv-x="595" 
d="M141 256q0 -88 37.5 -137t109.5 -49q73 0 111 52t38 136q0 90 -40 137.5t-112 47.5t-108 -50t-36 -137zM434 80q-20 -34 -61 -59.5t-102 -25.5q-53 0 -93.5 19t-69 53.5t-43 83.5t-14.5 108q0 57 14.5 104.5t43 82t69 54t93.5 19.5q31 0 58 -8t48 -21t36.5 -29.5
t24.5 -33.5v44q0 22 10.5 30t30.5 8t30 -8t10 -30v-456q0 -66 -17.5 -111.5t-48 -73.5t-73 -40.5t-93.5 -12.5q-42 0 -77.5 7.5t-60.5 18.5q-26 12 -42.5 24.5t-16.5 31.5q0 9 4.5 17.5t9.5 14.5q4 5 11 9.5t16 4.5t17 -5l7 -4q29 -17 62 -31t77 -14q61 0 100.5 36t39.5 119
v74z" />
    <glyph glyph-name="h" unicode="h" horiz-adv-x="582" 
d="M161 430q14 26 37 44q27 23 61.5 34t69.5 11q79 0 128 -44t49 -135v-312q0 -35 -41 -35q-44 0 -44 35v291q0 60 -24.5 90.5t-88.5 30.5q-39 0 -67 -17.5t-45.5 -45.5t-26 -63t-8.5 -69v-212q0 -23 -11.5 -31.5t-31.5 -8.5t-31 8.5t-11 31.5v628q0 23 11 31.5t31 8.5
t31.5 -8.5t11.5 -31.5v-231z" />
    <glyph glyph-name="i" unicode="i" horiz-adv-x="237" 
d="M76 469q0 23 11 31.5t31 8.5t31.5 -8.5t11.5 -31.5v-436q0 -23 -11.5 -31.5t-31.5 -8.5t-31 8.5t-11 31.5v436zM64 647q0 26 15.5 40.5t38.5 14.5t38.5 -14.5t15.5 -40.5t-15.5 -40.5t-38.5 -14.5t-38.5 14.5t-15.5 40.5z" />
    <glyph glyph-name="j" unicode="j" horiz-adv-x="237" 
d="M161 -84q0 -62 -38 -100.5t-107 -38.5q-23 0 -44.5 4t-38 11.5t-26.5 18t-10 22.5q0 17 10.5 29t24.5 12q9 0 16.5 -3.5t16.5 -8t20 -8t26 -3.5q29 0 47 16t18 60v542q0 23 11 31.5t31 8.5t31.5 -8.5t11.5 -31.5v-553zM64 647q0 26 15.5 40.5t38.5 14.5t38.5 -14.5
t15.5 -40.5t-15.5 -40.5t-38.5 -14.5t-38.5 14.5t-15.5 40.5z" />
    <glyph glyph-name="k" unicode="k" horiz-adv-x="525" 
d="M161 300l240 196q7 5 13.5 9t14.5 4q17 0 28.5 -11.5t11.5 -25.5q0 -5 -2.5 -12.5t-13.5 -16.5l-141 -117l179 -270q5 -8 7 -15.5t2 -10.5q-1 -17 -17 -27t-33 -10q-9 0 -16 3.5t-16 17.5l-172 262l-85 -72v-171q0 -23 -11.5 -31.5t-31.5 -8.5t-31 8.5t-11 31.5v628
q0 23 11 31.5t31 8.5t31.5 -8.5t11.5 -31.5v-361z" />
    <glyph glyph-name="l" unicode="l" horiz-adv-x="237" 
d="M76 661q0 23 11 31.5t31 8.5t31.5 -8.5t11.5 -31.5v-628q0 -23 -11.5 -31.5t-31.5 -8.5t-31 8.5t-11 31.5v628z" />
    <glyph glyph-name="m" unicode="m" horiz-adv-x="887" 
d="M640 519q79 0 125 -42.5t46 -130.5v-318q0 -35 -41 -35q-44 0 -44 35v291q0 28 -4.5 51t-16.5 38.5t-32.5 24t-52.5 8.5q-39 0 -65 -18t-41 -46t-21.5 -63t-6.5 -69v-217q0 -35 -41 -35q-44 0 -44 35v291q0 28 -4.5 51t-16.5 38.5t-32.5 24t-52.5 8.5q-39 0 -65 -17.5
t-41 -45.5t-21.5 -63t-6.5 -69v-213q0 -23 -11.5 -31.5t-31.5 -8.5t-31 8.5t-11 31.5v438q0 22 10 30t30 8t30.5 -8t10.5 -30v-47q1 4 8 18q8 16 26 33t48.5 30.5t76.5 13.5q61 0 99.5 -24.5t55.5 -66.5q21 41 65 66t104 25z" />
    <glyph glyph-name="n" unicode="n" horiz-adv-x="582" 
d="M161 33q0 -23 -11.5 -31.5t-31.5 -8.5t-31 8.5t-11 31.5v438q0 22 10 30t30 8t30.5 -8t10.5 -30v-47q14 26 38 47q20 18 52.5 33t81.5 15q79 0 128 -44t49 -135v-312q0 -35 -41 -35q-44 0 -44 35v291q0 59 -24.5 90t-88.5 31q-39 0 -67 -17.5t-45.5 -45.5t-26 -62.5
t-8.5 -68.5v-213z" />
    <glyph glyph-name="o" unicode="o" horiz-adv-x="588" 
d="M139 252q0 -91 40 -143t115 -52t115 52t40 143t-40 142t-115 51t-115 -51t-40 -142zM49 252q0 63 17.5 112.5t50 84t77.5 52.5t100 18t100 -18t77.5 -52.5t50 -84t17.5 -112.5t-17.5 -113t-50 -84.5t-77.5 -53t-100 -18.5t-100 18.5t-77.5 53t-50 84.5t-17.5 113z" />
    <glyph glyph-name="p" unicode="p" horiz-adv-x="595" 
d="M76 471q0 22 10 30t30 8t30.5 -8t10.5 -30v-49q21 41 63.5 69t103.5 28q52 0 93 -19.5t69.5 -54.5t43 -84t14.5 -109q0 -59 -14.5 -108.5t-43 -85t-69.5 -55.5t-93 -20q-63 0 -103 24t-60 56v-236q0 -23 -11.5 -31.5t-31.5 -8.5t-31 8.5t-11 31.5v644zM454 250
q0 88 -36 140t-107 52q-36 0 -64.5 -15.5t-48 -42.5t-30 -62.5t-10.5 -75.5q0 -89 40 -139t112 -50q36 0 63 14t45 39.5t27 61t9 78.5z" />
    <glyph glyph-name="q" unicode="q" horiz-adv-x="595" 
d="M141 249q0 -85 38 -138t109 -53q36 0 64 14.5t47 41t28.5 62t9.5 77.5q0 89 -40 139.5t-112 50.5t-108 -53t-36 -141zM434 71q-20 -35 -61 -61.5t-102 -26.5q-53 0 -93.5 20t-69 56t-43 85t-14.5 108q0 60 14.5 109t43 84t69 54.5t93.5 19.5q31 0 58 -8t48 -21
t36.5 -29.5t24.5 -33.5v44q0 22 10.5 30t30.5 8t30 -8t10 -30v-644q0 -23 -11.5 -31.5t-31.5 -8.5t-31 8.5t-11 31.5v244z" />
    <glyph glyph-name="r" unicode="r" horiz-adv-x="363" 
d="M161 33q0 -23 -11.5 -31.5t-31.5 -8.5t-31 8.5t-11 31.5v438q0 22 10 30t30 8t30.5 -8t10.5 -30v-57q27 50 67.5 72.5t86.5 22.5q23 0 33 -10t10 -32q0 -23 -10 -34t-33 -11q-150 0 -150 -187v-202z" />
    <glyph glyph-name="s" unicode="s" horiz-adv-x="512" 
d="M72 32q-11 9 -15.5 17.5t-4.5 16.5q0 17 12 31.5t29 14.5q10 0 18.5 -4t19.5 -12q17 -12 49 -27t80 -15q53 0 81.5 21t28.5 57q0 13 -3 25t-13.5 23t-30.5 19.5t-54 13.5l-61 10q-65 10 -106.5 46t-41.5 101q0 71 52.5 110t142.5 39q40 0 69.5 -5.5t49.5 -13.5t33 -16.5
t20 -14.5q19 -16 19 -32t-9.5 -28.5t-27.5 -12.5q-11 0 -20.5 4.5t-22.5 12.5q-19 11 -45.5 23t-69.5 12q-54 0 -79.5 -20t-25.5 -51q0 -13 3 -25t12.5 -22.5t28 -18.5t49.5 -12l62 -10q77 -11 115.5 -47.5t38.5 -102.5q0 -73 -51 -114.5t-146 -41.5q-38 0 -68.5 5t-54 12.5
t-39 16t-24.5 15.5z" />
    <glyph glyph-name="t" unicode="t" horiz-adv-x="352" 
d="M49 430q-20 0 -27 9.5t-7 26.5t7 26.5t27 9.5h45v103q0 19 3.5 28t14.5 16q18 11 39 11q28 0 28 -29v-129h94q20 0 27 -9.5t7 -26.5t-7 -26.5t-27 -9.5h-94v-296q0 -44 13.5 -60t45.5 -16q12 0 20.5 3t15.5 6t13.5 6t15.5 3q14 0 24.5 -12t10.5 -29q0 -24 -31 -37.5
t-78 -13.5q-69 0 -102 33.5t-33 97.5v315h-45z" />
    <glyph glyph-name="u" unicode="u" horiz-adv-x="582" 
d="M421 469q0 23 11.5 31.5t31.5 8.5t31 -8.5t11 -31.5v-438q0 -22 -10 -30t-30 -8t-30.5 8t-10.5 30v48q-14 -27 -38 -48q-20 -18 -53 -33t-81 -15q-39 0 -72 11t-56 33t-36 55.5t-13 79.5v312q0 35 41 35q44 0 44 -35v-291q0 -59 24 -90t89 -31q39 0 67 17.5t45.5 45.5
t26 63t8.5 69v212z" />
    <glyph glyph-name="v" unicode="v" horiz-adv-x="511" 
d="M30 437q-4 10 -7.5 18.5t-3.5 16.5q0 17 15.5 27t34.5 10q23 0 34 -28l154 -378l155 380q6 14 13 20t19 6q18 0 33 -9t15 -26q0 -7 -3.5 -15.5t-7.5 -17.5l-179 -422q-5 -12 -15.5 -19t-32.5 -7t-32.5 7t-15.5 19z" />
    <glyph glyph-name="w" unicode="w" horiz-adv-x="750" 
d="M331 477q6 18 16 25t30 7t30.5 -6.5t15.5 -25.5l112 -370l116 379q3 11 9.5 17t20.5 6q17 0 33.5 -8t16.5 -25q0 -7 -2 -12.5t-4 -12.5l-145 -427q-5 -16 -16.5 -23.5t-33.5 -7.5t-33.5 7t-16.5 24l-109 355l-106 -355q-5 -17 -16.5 -24t-33.5 -7t-33.5 7.5t-16.5 23.5
l-140 423q-2 8 -4 13.5t-2 13.5q0 18 17.5 26.5t34.5 8.5q14 0 21 -7t11 -18l118 -377z" />
    <glyph glyph-name="x" unicode="x" horiz-adv-x="493" 
d="M379 491q9 11 16.5 14.5t16.5 3.5q14 0 27 -11.5t13 -26.5q0 -13 -10 -26l-144 -179l165 -209q6 -8 8 -14t2 -14q0 -15 -14.5 -25.5t-28.5 -10.5q-9 0 -17 3.5t-18 15.5l-149 189l-151 -190q-9 -11 -18 -14.5t-18 -3.5q-14 0 -26.5 10.5t-12.5 25.5q0 14 10 27l168 209
l-145 179q-10 14 -10 27q0 15 15 27t29 12q9 0 16.5 -3.5t17.5 -15.5l127 -165z" />
    <glyph glyph-name="y" unicode="y" horiz-adv-x="508" 
d="M205 -186q-7 -14 -15 -21t-24 -7q-17 0 -29 9.5t-12 26.5q0 5 1.5 12t6.5 17l73 164l-175 422q-4 10 -8 18.5t-4 16.5q0 17 15.5 27t34.5 10q23 0 34 -28l149 -366l157 368q6 14 13 20t19 6q18 0 33 -9t15 -26q0 -7 -3.5 -15.5t-7.5 -17.5z" />
    <glyph glyph-name="z" unicode="z" horiz-adv-x="502" 
d="M139 72h300q20 0 27 -9.5t7 -26.5t-7 -26.5t-27 -9.5h-362q-49 0 -49 44q0 12 4 20.5t17 23.5l297 342h-270q-20 0 -27 9.5t-7 26.5t7 26.5t27 9.5h331q49 0 49 -44q0 -12 -4 -20.5t-17 -23.5z" />
    <glyph glyph-name="braceleft" unicode="{" horiz-adv-x="307" 
d="M151 302q23 -13 32 -40t9 -69v-205q0 -26 7 -42t36 -16h21q19 0 25.5 -8t6.5 -25t-6.5 -25t-25.5 -8h-36q-33 0 -54.5 9.5t-33.5 25.5t-16.5 37t-4.5 44v238q0 25 -13.5 35.5t-29.5 12.5q-17 2 -23.5 10t-6.5 26q0 17 6.5 25t23.5 10q16 2 29.5 12.5t13.5 35.5v237
q0 23 4.5 44t16.5 37t33.5 25.5t54.5 9.5h36q19 0 25.5 -8t6.5 -25t-6.5 -25t-25.5 -8h-21q-29 0 -36 -16t-7 -42v-204q0 -42 -9 -68.5t-32 -39.5z" />
    <glyph glyph-name="bar" unicode="|" horiz-adv-x="257" 
d="M89 698q0 23 10.5 31.5t28.5 8.5q20 0 30.5 -8.5t10.5 -31.5v-794q0 -23 -10.5 -31.5t-30.5 -8.5q-18 0 -28.5 8.5t-10.5 31.5v794z" />
    <glyph glyph-name="braceright" unicode="}" horiz-adv-x="307" 
d="M156 302q-23 13 -32 39.5t-9 68.5v204q0 26 -7 42t-36 16h-21q-19 0 -25.5 8t-6.5 25t6.5 25t25.5 8h36q33 0 54.5 -9.5t33.5 -25.5t16.5 -37t4.5 -44v-237q0 -25 13.5 -35.5t29.5 -12.5q17 -2 23.5 -10t6.5 -25q0 -18 -6.5 -26t-23.5 -10q-16 -2 -29.5 -12.5
t-13.5 -35.5v-238q0 -23 -4.5 -44t-16.5 -37t-33.5 -25.5t-54.5 -9.5h-36q-19 0 -25.5 8t-6.5 25t6.5 25t25.5 8h21q29 0 36 16t7 42v205q0 42 9 69t32 40z" />
    <glyph glyph-name="asciitilde" unicode="~" horiz-adv-x="573" 
d="M484 332q9 10 20 10q4 0 11.5 -2.5t15 -7.5t13.5 -11.5t6 -15.5q0 -8 -6.5 -20t-28.5 -36q-17 -18 -43 -33t-55 -15q-32 0 -61.5 10t-58.5 24l-59 28q-20 10 -38.5 17t-40.5 7q-26 0 -42.5 -15.5t-29.5 -32.5q-9 -10 -20 -10q-4 0 -11.5 2.5t-15 7.5t-13.5 11.5t-6 15.5
q0 8 6.5 20t28.5 36q18 20 43 34t56 14q32 0 61 -10t58 -24l64 -30q19 -9 37 -15t38 -6q25 0 41 15t30 32z" />
    <glyph glyph-name="uni00A0" unicode="&#xa0;" horiz-adv-x="245" 
 />
    <glyph glyph-name="exclamdown" unicode="&#xa1;" horiz-adv-x="262" 
d="M177 -23v-126q0 -23 -11.5 -32t-34.5 -9t-34.5 9t-11.5 32v126l10 298q1 20 10 27t27 7t26 -7t9 -27zM187 464q0 -23 -16.5 -39.5t-38.5 -16.5q-23 0 -39.5 16.5t-16.5 39.5q0 22 16.5 38.5t39.5 16.5q22 0 38.5 -16.5t16.5 -38.5z" />
    <glyph glyph-name="cent" unicode="&#xa2;" horiz-adv-x="610" 
d="M440 225q11 18 19 23.5t21 5.5q14 0 29 -11t15 -26q0 -14 -7 -27q-5 -10 -16.5 -26t-30 -32t-45 -30t-62.5 -19v-74q0 -20 -9.5 -27t-26.5 -7t-26 7t-9 27v73q-49 6 -87 27.5t-64 56.5t-39.5 81.5t-13.5 101.5q0 54 13.5 100.5t39.5 81.5t64 56.5t87 27.5v69q0 20 9 27
t26 7t26.5 -7t9.5 -27v-70q34 -5 59.5 -16t44 -26t31 -31t19.5 -31q4 -8 6 -15t2 -15q0 -18 -14.5 -29t-29.5 -11q-11 0 -19.5 4t-17.5 21q-3 5 -8.5 14.5t-15.5 20t-24 20.5t-33 16v-376q18 5 31 13.5t22 18t15 18.5t9 15zM178 350q0 -79 28 -129.5t86 -61.5v379
q-58 -12 -86 -61.5t-28 -126.5z" />
    <glyph glyph-name="sterling" unicode="&#xa3;" horiz-adv-x="610" 
d="M338 623q-41 0 -68.5 -10t-43.5 -27t-22.5 -38.5t-6.5 -44.5q0 -33 11 -61.5t25 -58.5h191q20 0 27 -8t7 -25t-7 -25.5t-27 -8.5h-164q7 -23 12 -48t5 -54t-11.5 -53.5t-27 -42.5t-31 -30t-22.5 -16h352q20 0 27 -9.5t7 -26.5t-7 -26.5t-27 -9.5h-415q-26 0 -36 10.5
t-10 32.5q0 17 5.5 28t20.5 19q20 11 37.5 22t30 25t19.5 32t7 44q0 29 -8 53.5t-20 49.5h-95q-20 0 -27 8.5t-7 25.5t7 25t27 8h63q-11 25 -17.5 53t-6.5 63q0 40 14 75.5t41.5 62t68.5 42t95 15.5q53 0 92 -14t66 -33.5t43 -39.5t23 -33t9 -23t2 -18q0 -17 -14 -26t-29 -9
q-11 0 -19 4t-16 20q-6 12 -16.5 29.5t-28 33t-43.5 27t-62 11.5z" />
    <glyph glyph-name="currency" unicode="&#xa4;" horiz-adv-x="574" 
d="M445 345q0 30 -11.5 56.5t-31 46.5t-46.5 31.5t-57 11.5q-31 0 -58 -11.5t-46.5 -31.5t-30.5 -46.5t-11 -56.5t11 -57t30.5 -46.5t46.5 -31t58 -11.5q30 0 57 11.5t46.5 31t31 46.5t11.5 57zM432 150q-32 -16 -67 -26.5t-65 -10.5q-40 0 -72 8.5t-58 30.5l-66 -63
q-16 -15 -39 -15q-16 0 -30.5 12t-14.5 35q0 19 14 33l69 69q-17 30 -25.5 60t-8.5 62t9 63.5t26 62.5l-72 66q-9 8 -11.5 16.5t-2.5 16.5q0 12 5.5 22t13.5 17.5t18 12t19 4.5q19 0 36 -17l68 -69q11 8 26 14.5t31.5 11.5t33 8t31.5 3q37 0 66.5 -9t61.5 -31l65 65
q16 17 31 17q21 0 37.5 -14t16.5 -37q0 -18 -13 -31l-69 -70q17 -31 26 -60.5t9 -61.5q0 -30 -9 -61t-26 -61l69 -68q11 -13 11 -30q0 -23 -16.5 -35t-30.5 -12q-13 0 -22.5 6t-18.5 14z" />
    <glyph glyph-name="yen" unicode="&#xa5;" horiz-adv-x="610" 
d="M261 162h-130q-20 0 -27 8.5t-7 25.5t7 25t27 8h130v90h-130q-20 0 -27 8.5t-7 25.5t7 25t27 8h86l-153 229q-5 8 -9 16t-4 16q0 17 14 27t27 10q21 0 35 -20l179 -275l182 277q8 11 15 14.5t17 3.5q14 0 27 -9.5t13 -26.5q0 -8 -4 -16t-9 -16l-154 -230h89q20 0 27 -8
t7 -25t-7 -25.5t-27 -8.5h-133v-90h133q20 0 27 -8t7 -25t-7 -25.5t-27 -8.5h-133v-128q0 -23 -11.5 -32t-32.5 -9t-32.5 9t-11.5 32v128z" />
    <glyph glyph-name="brokenbar" unicode="&#xa6;" horiz-adv-x="257" 
d="M89 212q0 23 10.5 31.5t28.5 8.5q20 0 30.5 -8.5t10.5 -31.5v-308q0 -23 -10.5 -31.5t-30.5 -8.5q-18 0 -28.5 8.5t-10.5 31.5v308zM89 698q0 23 10.5 31.5t28.5 8.5q20 0 30.5 -8.5t10.5 -31.5v-308q0 -23 -10.5 -31.5t-30.5 -8.5q-18 0 -28.5 8.5t-10.5 31.5v308z" />
    <glyph glyph-name="section" unicode="&#xa7;" horiz-adv-x="558" 
d="M129 28q8 -6 19.5 -14.5t28.5 -17t39.5 -14t53.5 -5.5q62 0 94.5 22t32.5 66q0 41 -25.5 65t-77.5 29l-66 6q-27 3 -56.5 12.5t-54.5 26.5t-41 43t-16 62q0 25 7.5 45.5t20.5 36t29 26.5t33 19q-38 20 -57 48.5t-19 63.5q0 29 11.5 58t36.5 52t64 37.5t93 14.5
q37 0 67 -6t53 -14.5t38.5 -17.5t21.5 -14q14 -11 18.5 -20t4.5 -17q0 -17 -13.5 -32t-30.5 -15q-10 0 -19 4.5t-19 12.5q-8 6 -19.5 14t-27.5 14.5t-37 11.5t-48 5q-49 0 -78 -23.5t-29 -63.5q0 -12 5 -25.5t17 -25t33 -20t53 -12.5l58 -7q87 -11 122 -47.5t35 -91.5
q0 -22 -7.5 -41.5t-20.5 -36t-30 -28t-36 -16.5q53 -17 74.5 -54t21.5 -78q0 -34 -14 -63.5t-41 -51t-67.5 -34t-94.5 -12.5q-45 0 -79.5 6.5t-59.5 16t-41 20t-24 17.5q-18 18 -18 33q0 17 13.5 32t30.5 15q10 0 19 -4.5t19 -12.5zM400 313q0 38 -38.5 62t-102.5 24
q-54 0 -84.5 -24t-30.5 -60q0 -34 32 -57t105 -23q51 0 85 20.5t34 57.5z" />
    <glyph glyph-name="dieresis" unicode="&#xa8;" horiz-adv-x="500" 
d="M361 707q21 0 38 -13t17 -39q0 -24 -15 -38t-40 -14t-40 14t-15 38q0 23 15.5 37.5t39.5 14.5zM149 707q20 0 38 -13t18 -39q0 -24 -15.5 -38t-40.5 -14t-39.5 14t-14.5 38q0 23 15 37.5t39 14.5z" />
    <glyph glyph-name="copyright" unicode="&#xa9;" horiz-adv-x="862" 
d="M438 138q-48 0 -85.5 15.5t-63.5 44t-39.5 69t-13.5 89.5q0 48 14.5 88t41.5 69.5t64.5 45.5t83.5 16q57 0 101.5 -25.5t67.5 -63.5q14 -23 14 -44q0 -13 -13 -22t-27 -9q-12 0 -20.5 4t-15.5 17q-8 13 -16 25t-20 21t-30 14.5t-44 5.5q-59 0 -87 -39.5t-28 -102.5
q0 -65 29 -104t91 -39q36 0 59.5 11.5t37.5 38.5q7 14 13.5 19t15.5 5q15 0 30.5 -9.5t15.5 -25.5q0 -18 -10 -35t-23 -31q-23 -24 -60.5 -36t-82.5 -12zM820 355q0 -77 -30.5 -145t-83.5 -119t-123.5 -80.5t-151.5 -29.5t-151.5 29.5t-123.5 80.5t-83.5 119t-30.5 145
t30.5 145t83.5 119t123.5 80.5t151.5 29.5t151.5 -29.5t123.5 -80.5t83.5 -119t30.5 -145zM739 355q0 63 -24.5 119t-66.5 97.5t-98 66t-119 24.5t-119 -24.5t-98 -66t-66.5 -97.5t-24.5 -119t24.5 -119t66.5 -97.5t98 -66t119 -24.5t119 24.5t98 66t66.5 97.5t24.5 119z
" />
    <glyph glyph-name="ordfeminine" unicode="&#xaa;" horiz-adv-x="389" 
d="M269 519q-39 -2 -61 -5.5t-33 -6.5q-39 -10 -51.5 -24.5t-12.5 -33.5q0 -18 10.5 -31.5t39.5 -13.5q21 0 40.5 7.5t34.5 20.5t24 30t9 36v21zM346 371q0 -17 -11.5 -23.5t-29.5 -6.5q-16 0 -26 6.5t-10 23.5v34q-20 -29 -52 -46t-78 -17q-50 0 -79.5 27t-29.5 72
q0 27 10.5 46.5t27.5 33t39 22t45 13.5q28 5 52.5 8.5t64.5 5.5v14q0 29 -15.5 45t-63.5 16q-23 0 -45 -6t-45 -26q-8 -6 -13 -10t-13 -4q-14 0 -24.5 11.5t-10.5 24.5q0 12 11 25.5t31.5 24.5t50 18t65.5 7q75 0 112 -30t37 -93v-216z" />
    <glyph glyph-name="guillemotleft" unicode="&#xab;" horiz-adv-x="542" 
d="M55 234q-5 6 -10 14.5t-5 16.5q0 9 4 16t9 12l143 162q16 18 32 18q17 0 30.5 -13t13.5 -29q0 -8 -4 -15.5t-15 -19.5l-114 -128l111 -130q10 -11 13.5 -18t3.5 -15q0 -16 -13.5 -28t-29.5 -12q-19 0 -35 19zM280 234q-5 6 -10 14.5t-5 16.5q0 9 4 16t9 12l143 162
q16 18 32 18q17 0 30.5 -13t13.5 -29q0 -8 -4 -15.5t-15 -19.5l-114 -128l111 -130q10 -11 13.5 -18t3.5 -15q0 -16 -13.5 -28t-29.5 -12q-19 0 -35 19z" />
    <glyph glyph-name="logicalnot" unicode="&#xac;" horiz-adv-x="610" 
d="M496 462q20 0 28 -10t8 -29v-211q0 -20 -10 -28t-28 -8t-28.5 8t-10.5 28v173h-341q-20 0 -28 10.5t-8 28.5t8 28t28 10h382z" />
    <glyph glyph-name="uni00AD" unicode="&#xad;" horiz-adv-x="284" 
d="M62 215q-21 0 -29.5 11.5t-8.5 31.5t8.5 30.5t29.5 10.5h160q21 0 29.5 -10.5t8.5 -30.5t-8.5 -31.5t-29.5 -11.5h-160z" />
    <glyph glyph-name="registered" unicode="&#xae;" horiz-adv-x="862" 
d="M820 355q0 -77 -30.5 -145t-83.5 -119t-123.5 -80.5t-151.5 -29.5t-151.5 29.5t-123.5 80.5t-83.5 119t-30.5 145t30.5 145t83.5 119t123.5 80.5t151.5 29.5t151.5 -29.5t123.5 -80.5t83.5 -119t30.5 -145zM739 355q0 63 -24.5 119t-66.5 97.5t-98 66t-119 24.5
t-119 -24.5t-98 -66t-66.5 -97.5t-24.5 -119t24.5 -119t66.5 -97.5t98 -66t119 -24.5t119 24.5t98 66t66.5 97.5t24.5 119zM466 301h-101v-122q0 -32 -37 -32q-19 0 -30 7.5t-11 24.5v358q0 13 6.5 22t23.5 9h110q86 0 130 -32.5t44 -105.5q0 -32 -13.5 -62t-50.5 -50
l47 -121q3 -8 3 -19q0 -31 -38 -31q-20 0 -28 8.5t-15 25.5zM520 435q0 29 -18.5 47t-53.5 18h-83v-130h87q35 0 51.5 17t16.5 48z" />
    <glyph glyph-name="macron" unicode="&#xaf;" horiz-adv-x="350" 
d="M58 615q-17 0 -25.5 8t-8.5 31q0 21 7.5 30.5t27.5 9.5h222q20 0 27.5 -9.5t7.5 -30.5q0 -23 -9 -31t-29 -8h-220z" />
    <glyph glyph-name="degree" unicode="&#xb0;" horiz-adv-x="378" 
d="M351 552q0 -33 -13 -61.5t-35 -50t-51.5 -34t-62.5 -12.5t-62.5 12.5t-51.5 34t-35 50t-13 61.5t13 61.5t35 50t51.5 34t62.5 12.5t62.5 -12.5t51.5 -34t35 -50t13 -61.5zM286 552q0 20 -8 38t-21 31.5t-31 21.5t-37 8q-20 0 -37.5 -8t-30.5 -21.5t-21 -31.5t-8 -38
t8 -38t21 -31.5t30.5 -21.5t37.5 -8q19 0 37 8t31 21.5t21 31.5t8 38z" />
    <glyph glyph-name="plusminus" unicode="&#xb1;" horiz-adv-x="610" 
d="M496 78q20 0 28 -10t8 -28t-8 -28.5t-28 -10.5h-382q-20 0 -28 10.5t-8 28.5t8 28t28 10h382zM114 331q-20 0 -28 10.5t-8 28.5t8 28t28 10h151v161q0 22 10 30t29 8q20 0 30 -8t10 -30v-161h152q20 0 28 -10t8 -28t-8 -28.5t-28 -10.5h-152v-160q0 -22 -10 -30t-30 -8
q-19 0 -29 8t-10 30v160h-151z" />
    <glyph glyph-name="twosuperior" unicode="&#xb2;" 
d="M237 628q-32 0 -52 -13t-34 -29q-10 -11 -19 -21t-23 -10q-13 0 -24 9t-11 22t8.5 24.5t15.5 18.5q22 23 57.5 44t91.5 21q29 0 55 -8t46 -24t31.5 -40.5t11.5 -57.5q0 -30 -9.5 -55.5t-25 -47t-34.5 -40.5t-38 -36q-14 -12 -30.5 -24.5t-43.5 -32.5h162q28 0 28 -33
q0 -14 -6 -25.5t-24 -11.5h-256q-16 0 -21.5 10t-5.5 20q0 15 6 24.5t22 21.5q31 22 65.5 49t64 56t49 58.5t19.5 58.5q0 35 -20 53.5t-56 18.5z" />
    <glyph glyph-name="threesuperior" unicode="&#xb3;" 
d="M246 694q64 0 101 -28t37 -82q0 -37 -20.5 -64t-49.5 -40q38 -10 61.5 -35t23.5 -65q0 -33 -13.5 -57t-36 -39.5t-50.5 -23t-56 -7.5q-52 0 -87.5 13.5t-58.5 33.5q-9 8 -16 18t-7 23q0 14 11 24.5t25 10.5q10 0 17.5 -6t18.5 -15q17 -14 39 -26t55 -12q35 0 57.5 15.5
t22.5 47.5q0 19 -7.5 31t-19.5 19t-27.5 10t-31.5 3h-19q-12 0 -17 10.5t-5 22.5q0 11 5 22.5t17 11.5h17q36 0 57 15t21 46q0 32 -22 46t-51 14t-48 -11.5t-37 -30.5q-8 -9 -15.5 -14.5t-15.5 -5.5q-14 0 -25.5 9.5t-11.5 21.5q0 13 8 23.5t16 18.5q22 22 56.5 37t81.5 15z
" />
    <glyph glyph-name="acute" unicode="&#xb4;" horiz-adv-x="392" 
d="M166 711q16 19 29 28.5t28 9.5q23 0 35 -13t12 -30q0 -16 -23 -37l-85 -76q-10 -9 -20 -15t-24 -6t-22.5 8t-8.5 21q0 16 13 30z" />
    <glyph glyph-name="mu" unicode="&#xb5;" horiz-adv-x="620" 
d="M287 -13q-16 0 -33.5 3t-33 10t-29 17t-21.5 25v-223q0 -42 -42 -42q-20 0 -33.5 9.5t-13.5 32.5v654q0 23 11 32.5t35 9.5q20 0 33 -9.5t13 -32.5v-274q0 -23 3 -41.5t9 -31.5q11 -24 37.5 -41t61.5 -17q34 0 58.5 10.5t41 26t25.5 33t12 30.5q5 23 6.5 48.5t1.5 42.5
v211q0 23 11 34t37 11q20 0 32 -10t12 -33v-353q0 -25 6.5 -33.5t18.5 -8.5q9 0 20 3t19 3q16 0 23 -11t7 -28q0 -16 -5 -25q-9 -17 -30 -23.5t-46 -6.5q-43 0 -66.5 23t-28.5 55q-15 -25 -33.5 -40.5t-38.5 -24.5t-40.5 -12t-39.5 -3z" />
    <glyph glyph-name="paragraph" unicode="&#xb6;" horiz-adv-x="609" 
d="M435 614h-140v-668q0 -23 -11.5 -32t-32.5 -9t-32.5 9t-11.5 32v356q-32 4 -61 18.5t-51 38.5t-34.5 57t-12.5 75q0 97 60.5 149t171.5 52h207q19 0 27.5 -11t8.5 -30v-705q0 -23 -11.5 -32t-32.5 -9t-32.5 9t-11.5 32v668z" />
    <glyph glyph-name="periodcentered" unicode="&#xb7;" horiz-adv-x="231" 
d="M55 351q0 24 18 42.5t42 18.5t42.5 -18.5t18.5 -42.5t-18.5 -42t-42.5 -18t-42 18t-18 42z" />
    <glyph glyph-name="cedilla" unicode="&#xb8;" horiz-adv-x="468" 
d="M340 -131q0 -40 -27.5 -68.5t-89.5 -28.5q-34 0 -53.5 6.5t-30.5 11.5q-22 12 -22 31q0 12 8 23t22 11q9 0 17 -3.5t16 -8t18 -8t23 -3.5q21 0 34 9t13 27q0 13 -6 21t-15.5 11.5t-22.5 4.5t-27 1q-22 0 -27 8t-2 19l21 67h59l-11 -41q54 -5 78.5 -27.5t24.5 -62.5z" />
    <glyph glyph-name="onesuperior" unicode="&#xb9;" 
d="M299 299q0 -16 -6.5 -28.5t-31.5 -12.5q-40 0 -40 44v296l-16 -8q-10 -5 -20.5 -10.5t-20.5 -10t-17 -7.5q-8 -3 -18 -6.5t-21 -3.5q-12 0 -21.5 7.5t-9.5 26.5q0 14 9 21.5t29 17.5q27 14 44.5 23t39.5 23q14 9 28.5 16t33.5 7q15 0 26.5 -9.5t11.5 -32.5v-353z" />
    <glyph glyph-name="ordmasculine" unicode="&#xba;" horiz-adv-x="417" 
d="M384 527q0 -43 -13 -77t-35.5 -57.5t-54.5 -36t-69 -12.5q-82 0 -128 48t-46 133q0 42 13 76.5t36.5 58.5t55.5 37t70 13t69.5 -13t54 -37t35 -57.5t12.5 -75.5zM303 524q0 54 -23 86.5t-68 32.5q-43 0 -67.5 -32.5t-24.5 -86.5q0 -51 23.5 -82t68.5 -31t68 31t23 82z
" />
    <glyph glyph-name="guillemotright" unicode="&#xbb;" horiz-adv-x="542" 
d="M128 84q-16 -19 -35 -19q-16 0 -29.5 12t-13.5 28q0 8 3.5 15t13.5 18l111 130l-114 128q-11 12 -15 19.5t-4 15.5q0 16 13.5 29t30.5 13q16 0 32 -18l143 -162q5 -5 9 -12t4 -16q0 -8 -5 -16.5t-10 -14.5zM353 84q-16 -19 -35 -19q-16 0 -29.5 12t-13.5 28q0 8 3.5 15
t13.5 18l111 130l-114 128q-11 12 -15 19.5t-4 15.5q0 16 13.5 29t30.5 13q16 0 32 -18l143 -162q5 -5 9 -12t4 -16q0 -8 -5 -16.5t-10 -14.5z" />
    <glyph glyph-name="onequarter" unicode="&#xbc;" horiz-adv-x="961" 
d="M568 671q10 21 29 21q18 0 30.5 -9.5t12.5 -20.5q0 -5 -1 -10t-5 -13l-312 -631q-5 -11 -12 -17t-21 -6q-17 0 -28.5 9t-11.5 20q0 5 1 10t5 13zM240 299q0 -16 -6.5 -28.5t-31.5 -12.5q-40 0 -40 44v296l-16 -8q-10 -5 -20.5 -10.5t-20.5 -10t-17 -7.5q-8 -3 -18 -6.5
t-21 -3.5q-12 0 -21.5 7.5t-9.5 26.5q0 14 9 21.5t29 17.5q27 14 44.5 23t39.5 23q14 9 28.5 16t33.5 7q15 0 26.5 -9.5t11.5 -32.5v-353zM750 337l-139 -174h139v174zM750 98h-186q-37 0 -37 31q0 14 4.5 23t10.5 17l191 238q13 16 25 23t31 7q17 0 27 -8.5t10 -27.5v-238
h45q13 0 18 -9.5t5 -23.5q0 -13 -5.5 -22.5t-19.5 -9.5h-43v-65q0 -12 -7.5 -22t-28.5 -10q-40 0 -40 32v65z" />
    <glyph glyph-name="onehalf" unicode="&#xbd;" horiz-adv-x="961" 
d="M535 671q10 21 29 21q18 0 30.5 -9.5t12.5 -20.5q0 -5 -1 -10t-5 -13l-312 -631q-5 -11 -12 -17t-21 -6q-17 0 -28.5 9t-11.5 20q0 5 1 10t5 13zM228 299q0 -16 -6.5 -28.5t-31.5 -12.5q-40 0 -40 44v296l-16 -8q-10 -5 -20.5 -10.5t-20.5 -10t-17 -7.5q-8 -3 -18 -6.5
t-21 -3.5q-12 0 -21.5 7.5t-9.5 26.5q0 14 9 21.5t29 17.5q27 14 44.5 23t39.5 23q14 9 28.5 16t33.5 7q15 0 26.5 -9.5t11.5 -32.5v-353zM740 371q-32 0 -52 -13t-34 -29q-10 -11 -19 -21t-23 -10q-13 0 -24 9t-11 22t8.5 24.5t15.5 18.5q22 23 57.5 44t91.5 21q29 0 55 -8
t46 -24t31.5 -40.5t11.5 -57.5q0 -30 -9.5 -55.5t-25 -47t-34.5 -40.5t-38 -36q-14 -12 -30.5 -24.5t-43.5 -32.5h162q28 0 28 -33q0 -14 -6 -25.5t-24 -11.5h-256q-16 0 -21.5 10t-5.5 20q0 15 6 24.5t22 21.5q31 22 65.5 49t64 56t49 58.5t19.5 58.5q0 35 -20 53.5
t-56 18.5z" />
    <glyph glyph-name="threequarters" unicode="&#xbe;" horiz-adv-x="961" 
d="M621 671q10 21 29 21q18 0 30.5 -9.5t12.5 -20.5q0 -5 -1 -10t-5 -13l-312 -631q-5 -11 -12 -17t-21 -6q-17 0 -28.5 9t-11.5 20q0 5 1 10t5 13zM209 694q64 0 101 -28t37 -82q0 -37 -20.5 -64t-49.5 -40q38 -10 61.5 -35t23.5 -65q0 -33 -13.5 -57t-36 -39.5t-50.5 -23
t-56 -7.5q-52 0 -87.5 13.5t-58.5 33.5q-9 8 -16 18t-7 23q0 14 11 24.5t25 10.5q10 0 17.5 -6t18.5 -15q17 -14 39 -26t55 -12q35 0 57.5 15.5t22.5 47.5q0 19 -7.5 31t-19.5 19t-27.5 10t-31.5 3h-19q-12 0 -17 10.5t-5 22.5q0 11 5 22.5t17 11.5h17q36 0 57 15t21 46
q0 32 -22 46t-51 14t-48 -11.5t-37 -30.5q-8 -9 -15.5 -14.5t-15.5 -5.5q-14 0 -25.5 9.5t-11.5 21.5q0 13 8 23.5t16 18.5q22 22 56.5 37t81.5 15zM772 337l-139 -174h139v174zM772 98h-186q-37 0 -37 31q0 14 4.5 23t10.5 17l191 238q13 16 25 23t31 7q17 0 27 -8.5
t10 -27.5v-238h45q13 0 18 -9.5t5 -23.5q0 -13 -5.5 -22.5t-19.5 -9.5h-43v-65q0 -12 -7.5 -22t-28.5 -10q-40 0 -40 32v65z" />
    <glyph glyph-name="questiondown" unicode="&#xbf;" horiz-adv-x="537" 
d="M484 -75q-6 -11 -19.5 -32t-38 -41.5t-62.5 -35.5t-93 -15q-48 0 -87.5 13t-68 37.5t-44.5 60.5t-16 82q0 37 10 65.5t26.5 50.5t37 39.5t41.5 32.5q23 17 37.5 30.5t22.5 25.5t11 24.5t3 28.5q0 22 10 30t30 8q19 0 29 -8t10 -30v-11q0 -29 -8 -51t-21 -39t-29.5 -31
t-34.5 -27q-16 -12 -31.5 -25t-27.5 -28.5t-19 -35.5t-7 -47q0 -59 34.5 -90t96.5 -31q39 0 64.5 12t41.5 28.5t23.5 34t11.5 28.5q6 18 15 22.5t22 4.5q17 0 30 -9t13 -26q0 -8 -2.5 -19t-10.5 -26zM339 464q0 -23 -16.5 -39.5t-38.5 -16.5q-23 0 -39.5 16.5t-16.5 39.5
q0 22 16.5 38.5t39.5 16.5q22 0 38.5 -16.5t16.5 -38.5z" />
    <glyph glyph-name="Agrave" unicode="&#xc0;" horiz-adv-x="672" 
d="M71 -7q-18 0 -34.5 9.5t-16.5 26.5q0 3 1 8t5 13l263 624q6 12 16.5 19.5t31.5 7.5q23 0 33.5 -7.5t15.5 -19.5l261 -622q4 -8 4.5 -12.5t0.5 -8.5q0 -18 -16.5 -28t-35.5 -10q-14 0 -22 7.5t-13 18.5l-77 180h-306l-78 -181q-11 -25 -33 -25zM336 585l-123 -312h244z
M420 809q11 -8 16 -14.5t5 -17.5q0 -14 -9.5 -23.5t-23.5 -9.5q-13 0 -24 4t-20 9l-99 53q-17 9 -24.5 18.5t-7.5 23.5q0 17 12.5 32t32.5 15q14 0 27.5 -8t29.5 -20z" />
    <glyph glyph-name="Aacute" unicode="&#xc1;" horiz-adv-x="672" 
d="M71 -7q-18 0 -34.5 9.5t-16.5 26.5q0 3 1 8t5 13l263 624q6 12 16.5 19.5t31.5 7.5q23 0 33.5 -7.5t15.5 -19.5l261 -622q4 -8 4.5 -12.5t0.5 -8.5q0 -18 -16.5 -28t-35.5 -10q-14 0 -22 7.5t-13 18.5l-77 180h-306l-78 -181q-11 -25 -33 -25zM336 585l-123 -312h244z
M336 868q16 12 30.5 19.5t28.5 7.5q20 0 31.5 -13t11.5 -30q0 -14 -7.5 -23.5t-24.5 -18.5l-99 -53q-9 -5 -19.5 -9t-23.5 -4q-14 0 -23 8t-9 22q0 11 4 17.5t15 14.5z" />
    <glyph glyph-name="Acircumflex" unicode="&#xc2;" horiz-adv-x="672" 
d="M71 -7q-18 0 -34.5 9.5t-16.5 26.5q0 3 1 8t5 13l263 624q6 12 16.5 19.5t31.5 7.5q23 0 33.5 -7.5t15.5 -19.5l261 -622q4 -8 4.5 -12.5t0.5 -8.5q0 -18 -16.5 -28t-35.5 -10q-14 0 -22 7.5t-13 18.5l-77 180h-306l-78 -181q-11 -25 -33 -25zM336 585l-123 -312h244z
M277 871q19 16 32.5 24t30.5 8q15 0 28 -7t31 -24l76 -69q8 -7 9.5 -14t1.5 -13q0 -14 -10 -23t-24 -9t-23 5.5t-19 13.5l-71 63l-74 -62q-11 -8 -21 -14t-24 -6t-23.5 8.5t-9.5 22.5q0 8 2 14.5t9 13.5z" />
    <glyph glyph-name="Atilde" unicode="&#xc3;" horiz-adv-x="672" 
d="M71 -7q-18 0 -34.5 9.5t-16.5 26.5q0 3 1 8t5 13l263 624q6 12 16.5 19.5t31.5 7.5q23 0 33.5 -7.5t15.5 -19.5l261 -622q4 -8 4.5 -12.5t0.5 -8.5q0 -18 -16.5 -28t-35.5 -10q-14 0 -22 7.5t-13 18.5l-77 180h-306l-78 -181q-11 -25 -33 -25zM336 585l-123 -312h244z
M413 760q-18 0 -32.5 3.5t-29.5 9.5l-38 15q-15 6 -27.5 10t-23.5 4q-18 0 -27.5 -7t-20.5 -20q-4 -5 -9.5 -9.5t-13.5 -4.5q-11 0 -20 6.5t-9 19.5q0 14 6.5 26t14.5 23q16 19 36.5 31t42.5 12q18 0 33 -4.5t32 -11.5l37 -14q11 -5 25 -9t25 -4q20 0 28 6.5t16 20.5
q4 7 9.5 12t13.5 5t18.5 -6t10.5 -17q0 -6 -2 -16q-8 -35 -35 -58t-60 -23z" />
    <glyph glyph-name="Adieresis" unicode="&#xc4;" horiz-adv-x="672" 
d="M71 -7q-18 0 -34.5 9.5t-16.5 26.5q0 3 1 8t5 13l263 624q6 12 16.5 19.5t31.5 7.5q23 0 33.5 -7.5t15.5 -19.5l261 -622q4 -8 4.5 -12.5t0.5 -8.5q0 -18 -16.5 -28t-35.5 -10q-14 0 -22 7.5t-13 18.5l-77 180h-306l-78 -181q-11 -25 -33 -25zM336 585l-123 -312h244z
M436 855q20 0 36 -12t16 -37q0 -23 -14.5 -36t-37.5 -13t-37.5 13t-14.5 36q0 22 14.5 35.5t37.5 13.5zM236 855q20 0 36.5 -12t16.5 -37q0 -23 -15 -36t-38 -13t-37 13t-14 36q0 22 14 35.5t37 13.5z" />
    <glyph glyph-name="Aring" unicode="&#xc5;" horiz-adv-x="672" 
d="M71 -7q-18 0 -34.5 9.5t-16.5 26.5q0 3 1 8t5 13l263 624q6 12 16.5 19.5t31.5 7.5q23 0 33.5 -7.5t15.5 -19.5l261 -622q4 -8 4.5 -12.5t0.5 -8.5q0 -18 -16.5 -28t-35.5 -10q-14 0 -22 7.5t-13 18.5l-77 180h-306l-78 -181q-11 -25 -33 -25zM336 585l-123 -312h244z
M447 843q0 -22 -8.5 -41.5t-23 -34t-34.5 -23t-43 -8.5t-43 8.5t-34.5 23t-23 34t-8.5 41.5t8.5 41.5t23 34t34.5 23t43 8.5t43 -8.5t34.5 -23t23 -34t8.5 -41.5zM394 843q0 23 -16.5 40.5t-39.5 17.5t-39.5 -17.5t-16.5 -40.5t16.5 -40.5t39.5 -17.5t39.5 17.5t16.5 40.5z
" />
    <glyph glyph-name="AE" unicode="&#xc6;" horiz-adv-x="963" 
d="M531 316v-239h354q20 0 28.5 -9.5t8.5 -28.5t-8.5 -29t-28.5 -10h-396q-21 0 -33.5 10t-12.5 33v156h-231l-108 -183q-5 -8 -14.5 -16.5t-20.5 -8.5q-18 0 -33.5 9.5t-15.5 26.5q0 3 0.5 8t5.5 13l362 615q19 31 51 31h446q20 0 28.5 -9.5t8.5 -28.5t-8.5 -29t-28.5 -10
h-354v-224h335q20 0 28.5 -9.5t8.5 -28.5t-8.5 -29t-28.5 -10h-335zM443 273v330l-189 -330h189z" />
    <glyph glyph-name="Ccedilla" unicode="&#xc7;" horiz-adv-x="696" 
d="M501 -131q0 -40 -27.5 -68.5t-89.5 -28.5q-34 0 -53.5 6.5t-30.5 11.5q-22 12 -22 31q0 12 8 23t22 11q9 0 17 -3.5t16 -8t18 -8t23 -3.5q21 0 34 9t13 27q0 13 -6 21t-15.5 11.5t-22.5 4.5t-27 1q-22 0 -27 8t-2 19l16 52q-54 4 -101 24q-60 26 -103 73t-66.5 114
t-23.5 150t23.5 150.5t66.5 115t103.5 73.5t134.5 26q49 0 87 -11t65 -25.5t44 -30t25 -24.5q18 -21 34.5 -48.5t16.5 -47.5q0 -22 -16.5 -30t-30.5 -8q-13 0 -21.5 7.5t-15.5 20.5q-11 20 -27 40.5t-38 37.5t-52 28t-70 11q-57 0 -100.5 -21t-73.5 -58.5t-45 -90
t-15 -115.5q0 -62 15 -114.5t45 -90t73.5 -58.5t100.5 -21q45 0 77 12.5t54 31t36 39.5t24 38q9 16 17.5 23.5t21.5 7.5q14 0 30 -8t16 -30q0 -20 -15.5 -47.5t-33.5 -48.5q-7 -8 -24.5 -24.5t-46 -32.5t-67.5 -28q-29 -9 -65 -11l-6 -25q54 -5 78.5 -27.5t24.5 -62.5z" />
    <glyph glyph-name="Egrave" unicode="&#xc8;" horiz-adv-x="603" 
d="M171 316v-239h354q20 0 28.5 -9.5t8.5 -28.5t-8.5 -29t-28.5 -10h-396q-21 0 -33.5 10t-12.5 33v608q0 23 12.5 33t33.5 10h396q20 0 28.5 -9.5t8.5 -28.5t-8.5 -29t-28.5 -10h-354v-224h335q20 0 28.5 -9.5t8.5 -28.5t-8.5 -29t-28.5 -10h-335zM385 809q11 -8 16 -14.5
t5 -17.5q0 -14 -9.5 -23.5t-23.5 -9.5q-13 0 -24 4t-20 9l-99 53q-17 9 -24.5 18.5t-7.5 23.5q0 17 12.5 32t32.5 15q14 0 27.5 -8t29.5 -20z" />
    <glyph glyph-name="Eacute" unicode="&#xc9;" horiz-adv-x="603" 
d="M171 316v-239h354q20 0 28.5 -9.5t8.5 -28.5t-8.5 -29t-28.5 -10h-396q-21 0 -33.5 10t-12.5 33v608q0 23 12.5 33t33.5 10h396q20 0 28.5 -9.5t8.5 -28.5t-8.5 -29t-28.5 -10h-354v-224h335q20 0 28.5 -9.5t8.5 -28.5t-8.5 -29t-28.5 -10h-335zM335 868q16 12 30.5 19.5
t28.5 7.5q20 0 31.5 -13t11.5 -30q0 -14 -7.5 -23.5t-24.5 -18.5l-99 -53q-9 -5 -19.5 -9t-23.5 -4q-14 0 -23 8t-9 22q0 11 4 17.5t15 14.5z" />
    <glyph glyph-name="Ecircumflex" unicode="&#xca;" horiz-adv-x="603" 
d="M171 316v-239h354q20 0 28.5 -9.5t8.5 -28.5t-8.5 -29t-28.5 -10h-396q-21 0 -33.5 10t-12.5 33v608q0 23 12.5 33t33.5 10h396q20 0 28.5 -9.5t8.5 -28.5t-8.5 -29t-28.5 -10h-354v-224h335q20 0 28.5 -9.5t8.5 -28.5t-8.5 -29t-28.5 -10h-335zM262 871q19 16 32.5 24
t30.5 8q15 0 28 -7t31 -24l76 -69q8 -7 9.5 -14t1.5 -13q0 -14 -10 -23t-24 -9t-23 5.5t-19 13.5l-71 63l-74 -62q-11 -8 -21 -14t-24 -6t-23.5 8.5t-9.5 22.5q0 8 2 14.5t9 13.5z" />
    <glyph glyph-name="Edieresis" unicode="&#xcb;" horiz-adv-x="603" 
d="M171 316v-239h354q20 0 28.5 -9.5t8.5 -28.5t-8.5 -29t-28.5 -10h-396q-21 0 -33.5 10t-12.5 33v608q0 23 12.5 33t33.5 10h396q20 0 28.5 -9.5t8.5 -28.5t-8.5 -29t-28.5 -10h-354v-224h335q20 0 28.5 -9.5t8.5 -28.5t-8.5 -29t-28.5 -10h-335zM421 855q20 0 36 -12
t16 -37q0 -23 -14.5 -36t-37.5 -13t-37.5 13t-14.5 36q0 22 14.5 35.5t37.5 13.5zM221 855q20 0 36.5 -12t16.5 -37q0 -23 -15 -36t-38 -13t-37 13t-14 36q0 22 14 35.5t37 13.5z" />
    <glyph glyph-name="Igrave" unicode="&#xcc;" horiz-adv-x="254" 
d="M83 660q0 23 11.5 32t32.5 9t32.5 -9t11.5 -32v-626q0 -23 -11.5 -32t-32.5 -9t-32.5 9t-11.5 32v626zM213 809q11 -8 16 -14.5t5 -17.5q0 -14 -9.5 -23.5t-23.5 -9.5q-13 0 -24 4t-20 9l-99 53q-17 9 -24.5 18.5t-7.5 23.5q0 17 12.5 32t32.5 15q14 0 27.5 -8t29.5 -20z
" />
    <glyph glyph-name="Iacute" unicode="&#xcd;" horiz-adv-x="254" 
d="M83 660q0 23 11.5 32t32.5 9t32.5 -9t11.5 -32v-626q0 -23 -11.5 -32t-32.5 -9t-32.5 9t-11.5 32v626zM129 868q16 12 30.5 19.5t28.5 7.5q20 0 31.5 -13t11.5 -30q0 -14 -7.5 -23.5t-24.5 -18.5l-99 -53q-9 -5 -19.5 -9t-23.5 -4q-14 0 -23 8t-9 22q0 11 4 17.5t15 14.5
z" />
    <glyph glyph-name="Icircumflex" unicode="&#xce;" horiz-adv-x="254" 
d="M83 660q0 23 11.5 32t32.5 9t32.5 -9t11.5 -32v-626q0 -23 -11.5 -32t-32.5 -9t-32.5 9t-11.5 32v626zM70 871q19 16 32.5 24t30.5 8q15 0 28 -7t31 -24l76 -69q8 -7 9.5 -14t1.5 -13q0 -14 -10 -23t-24 -9t-23 5.5t-19 13.5l-71 63l-74 -62q-11 -8 -21 -14t-24 -6
t-23.5 8.5t-9.5 22.5q0 8 2 14.5t9 13.5z" />
    <glyph glyph-name="Idieresis" unicode="&#xcf;" horiz-adv-x="254" 
d="M83 660q0 23 11.5 32t32.5 9t32.5 -9t11.5 -32v-626q0 -23 -11.5 -32t-32.5 -9t-32.5 9t-11.5 32v626zM229 855q20 0 36 -12t16 -37q0 -23 -14.5 -36t-37.5 -13t-37.5 13t-14.5 36q0 22 14.5 35.5t37.5 13.5zM29 855q20 0 36.5 -12t16.5 -37q0 -23 -15 -36t-38 -13
t-37 13t-14 36q0 22 14 35.5t37 13.5z" />
    <glyph glyph-name="Eth" unicode="&#xd0;" horiz-adv-x="715" 
d="M131 0q-22 0 -34.5 10t-12.5 33v267h-50q-17 0 -25.5 7.5t-8.5 28.5q0 20 7.5 29t27.5 9h49v267q0 23 12.5 33t34.5 10h186q78 0 142 -21t110 -63.5t71 -108t25 -155.5q0 -89 -25 -154t-71 -107.5t-110 -63.5t-142 -21h-186zM570 346q0 69 -19 120t-53 84.5t-82 50
t-105 16.5h-138v-233h188q20 0 27.5 -9t7.5 -29q0 -21 -9 -28.5t-29 -7.5h-185v-233h138q58 0 106 16.5t82 49.5t52.5 83.5t18.5 119.5z" />
    <glyph glyph-name="Ntilde" unicode="&#xd1;" horiz-adv-x="719" 
d="M169 558v-526q0 -22 -11.5 -30.5t-31.5 -8.5t-31.5 8.5t-11.5 30.5v626q0 24 13.5 33.5t38.5 9.5q24 0 36.5 -10.5t23.5 -27.5l355 -529v528q0 22 11.5 30.5t31.5 8.5t31.5 -8.5t11.5 -30.5v-626q0 -24 -13.5 -33.5t-38.5 -9.5q-24 0 -36.5 10.5t-23.5 27.5zM455 760
q-18 0 -32.5 3.5t-29.5 9.5l-38 15q-15 6 -27.5 10t-23.5 4q-18 0 -27.5 -7t-20.5 -20q-4 -5 -9.5 -9.5t-13.5 -4.5q-11 0 -20 6.5t-9 19.5q0 14 6.5 26t14.5 23q16 19 36.5 31t42.5 12q18 0 33 -4.5t32 -11.5l37 -14q11 -5 25 -9t25 -4q20 0 28 6.5t16 20.5q4 7 9.5 12
t13.5 5t18.5 -6t10.5 -17q0 -6 -2 -16q-8 -35 -35 -58t-60 -23z" />
    <glyph glyph-name="Ograve" unicode="&#xd2;" horiz-adv-x="764" 
d="M713 347q0 -84 -24 -151.5t-67.5 -115t-104.5 -72.5t-135 -25t-135 25t-104.5 72.5t-67.5 115t-24 151.5t24 151.5t67.5 115t104.5 72.5t135 25t135 -25t104.5 -72.5t67.5 -115t24 -151.5zM146 347q0 -65 15 -117.5t45 -89.5t74 -57.5t102 -20.5t102 20.5t74 57.5
t45 89.5t15 117.5q0 64 -15 117t-45 90t-74 57.5t-102 20.5t-102 -20.5t-74 -57.5t-45 -90t-15 -117zM466 809q11 -8 16 -14.5t5 -17.5q0 -14 -9.5 -23.5t-23.5 -9.5q-13 0 -24 4t-20 9l-99 53q-17 9 -24.5 18.5t-7.5 23.5q0 17 12.5 32t32.5 15q14 0 27.5 -8t29.5 -20z" />
    <glyph glyph-name="Oacute" unicode="&#xd3;" horiz-adv-x="764" 
d="M713 347q0 -84 -24 -151.5t-67.5 -115t-104.5 -72.5t-135 -25t-135 25t-104.5 72.5t-67.5 115t-24 151.5t24 151.5t67.5 115t104.5 72.5t135 25t135 -25t104.5 -72.5t67.5 -115t24 -151.5zM146 347q0 -65 15 -117.5t45 -89.5t74 -57.5t102 -20.5t102 20.5t74 57.5
t45 89.5t15 117.5q0 64 -15 117t-45 90t-74 57.5t-102 20.5t-102 -20.5t-74 -57.5t-45 -90t-15 -117zM382 868q16 12 30.5 19.5t28.5 7.5q20 0 31.5 -13t11.5 -30q0 -14 -7.5 -23.5t-24.5 -18.5l-99 -53q-9 -5 -19.5 -9t-23.5 -4q-14 0 -23 8t-9 22q0 11 4 17.5t15 14.5z
" />
    <glyph glyph-name="Ocircumflex" unicode="&#xd4;" horiz-adv-x="764" 
d="M713 347q0 -84 -24 -151.5t-67.5 -115t-104.5 -72.5t-135 -25t-135 25t-104.5 72.5t-67.5 115t-24 151.5t24 151.5t67.5 115t104.5 72.5t135 25t135 -25t104.5 -72.5t67.5 -115t24 -151.5zM146 347q0 -65 15 -117.5t45 -89.5t74 -57.5t102 -20.5t102 20.5t74 57.5
t45 89.5t15 117.5q0 64 -15 117t-45 90t-74 57.5t-102 20.5t-102 -20.5t-74 -57.5t-45 -90t-15 -117zM322 871q19 16 32.5 24t30.5 8q15 0 28 -7t31 -24l76 -69q8 -7 9.5 -14t1.5 -13q0 -14 -10 -23t-24 -9t-23 5.5t-19 13.5l-71 63l-74 -62q-11 -8 -21 -14t-24 -6
t-23.5 8.5t-9.5 22.5q0 8 2 14.5t9 13.5z" />
    <glyph glyph-name="Otilde" unicode="&#xd5;" horiz-adv-x="764" 
d="M713 347q0 -84 -24 -151.5t-67.5 -115t-104.5 -72.5t-135 -25t-135 25t-104.5 72.5t-67.5 115t-24 151.5t24 151.5t67.5 115t104.5 72.5t135 25t135 -25t104.5 -72.5t67.5 -115t24 -151.5zM146 347q0 -65 15 -117.5t45 -89.5t74 -57.5t102 -20.5t102 20.5t74 57.5
t45 89.5t15 117.5q0 64 -15 117t-45 90t-74 57.5t-102 20.5t-102 -20.5t-74 -57.5t-45 -90t-15 -117zM459 760q-18 0 -32.5 3.5t-29.5 9.5l-38 15q-15 6 -27.5 10t-23.5 4q-18 0 -27.5 -7t-20.5 -20q-4 -5 -9.5 -9.5t-13.5 -4.5q-11 0 -20 6.5t-9 19.5q0 14 6.5 26t14.5 23
q16 19 36.5 31t42.5 12q18 0 33 -4.5t32 -11.5l37 -14q11 -5 25 -9t25 -4q20 0 28 6.5t16 20.5q4 7 9.5 12t13.5 5t18.5 -6t10.5 -17q0 -6 -2 -16q-8 -35 -35 -58t-60 -23z" />
    <glyph glyph-name="Odieresis" unicode="&#xd6;" horiz-adv-x="764" 
d="M713 347q0 -84 -24 -151.5t-67.5 -115t-104.5 -72.5t-135 -25t-135 25t-104.5 72.5t-67.5 115t-24 151.5t24 151.5t67.5 115t104.5 72.5t135 25t135 -25t104.5 -72.5t67.5 -115t24 -151.5zM146 347q0 -65 15 -117.5t45 -89.5t74 -57.5t102 -20.5t102 20.5t74 57.5
t45 89.5t15 117.5q0 64 -15 117t-45 90t-74 57.5t-102 20.5t-102 -20.5t-74 -57.5t-45 -90t-15 -117zM481 855q20 0 36 -12t16 -37q0 -23 -14.5 -36t-37.5 -13t-37.5 13t-14.5 36q0 22 14.5 35.5t37.5 13.5zM281 855q20 0 36.5 -12t16.5 -37q0 -23 -15 -36t-38 -13t-37 13
t-14 36q0 22 14 35.5t37 13.5z" />
    <glyph glyph-name="multiply" unicode="&#xd7;" horiz-adv-x="610" 
d="M139 448q-12 12 -12 25q0 15 14 29q13 13 29 13q14 0 26 -12l110 -108l111 114q14 14 27 14t28 -15q8 -8 10.5 -14t2.5 -13q0 -13 -14 -27l-112 -114l112 -109q11 -11 11 -23q0 -14 -14 -30q-14 -14 -29 -14q-13 0 -25 12l-111 110l-113 -113q-14 -14 -27 -14
q-12 0 -26 14q-15 15 -15 28t14 27l113 113z" />
    <glyph glyph-name="Oslash" unicode="&#xd8;" horiz-adv-x="764" 
d="M713 346q0 -84 -24 -151.5t-67.5 -115t-104.5 -72.5t-135 -25q-97 0 -172 43l-48 -70q-14 -20 -31 -20q-14 0 -29 11.5t-15 27.5q0 13 10 27l50 74q-46 48 -71 115.5t-25 155.5q0 84 24 152t67.5 115t104.5 72.5t135 25.5q94 0 167 -41l34 51q14 20 31 20q14 0 29.5 -12
t15.5 -28q0 -12 -10 -25l-37 -54q48 -48 74.5 -117.5t26.5 -158.5zM618 346q0 62 -14 113t-42 89l-306 -454q51 -33 126 -33q58 0 102 20.5t74 57.5t45 89.5t15 117.5zM146 346q0 -121 52 -196l304 452q-25 14 -55 22t-65 8q-58 0 -102 -20.5t-74 -58t-45 -90.5t-15 -117z
" />
    <glyph glyph-name="Ugrave" unicode="&#xd9;" horiz-adv-x="711" 
d="M544 660q0 23 11.5 32t32.5 9t33 -9t12 -32v-407q0 -60 -18 -109.5t-53 -85t-87 -55.5t-120 -20t-119.5 20t-86.5 55.5t-53 85t-18 109.5v407q0 23 12 32t33 9t32.5 -9t11.5 -32v-400q0 -100 50 -149.5t138 -49.5q90 0 139.5 49.5t49.5 149.5v400zM439 809
q11 -8 16 -14.5t5 -17.5q0 -14 -9.5 -23.5t-23.5 -9.5q-13 0 -24 4t-20 9l-99 53q-17 9 -24.5 18.5t-7.5 23.5q0 17 12.5 32t32.5 15q14 0 27.5 -8t29.5 -20z" />
    <glyph glyph-name="Uacute" unicode="&#xda;" horiz-adv-x="711" 
d="M544 660q0 23 11.5 32t32.5 9t33 -9t12 -32v-407q0 -60 -18 -109.5t-53 -85t-87 -55.5t-120 -20t-119.5 20t-86.5 55.5t-53 85t-18 109.5v407q0 23 12 32t33 9t32.5 -9t11.5 -32v-400q0 -100 50 -149.5t138 -49.5q90 0 139.5 49.5t49.5 149.5v400zM369 868
q16 12 30.5 19.5t28.5 7.5q20 0 31.5 -13t11.5 -30q0 -14 -7.5 -23.5t-24.5 -18.5l-99 -53q-9 -5 -19.5 -9t-23.5 -4q-14 0 -23 8t-9 22q0 11 4 17.5t15 14.5z" />
    <glyph glyph-name="Ucircumflex" unicode="&#xdb;" horiz-adv-x="711" 
d="M544 660q0 23 11.5 32t32.5 9t33 -9t12 -32v-407q0 -60 -18 -109.5t-53 -85t-87 -55.5t-120 -20t-119.5 20t-86.5 55.5t-53 85t-18 109.5v407q0 23 12 32t33 9t32.5 -9t11.5 -32v-400q0 -100 50 -149.5t138 -49.5q90 0 139.5 49.5t49.5 149.5v400zM306 871q19 16 32.5 24
t30.5 8q15 0 28 -7t31 -24l76 -69q8 -7 9.5 -14t1.5 -13q0 -14 -10 -23t-24 -9t-23 5.5t-19 13.5l-71 63l-74 -62q-11 -8 -21 -14t-24 -6t-23.5 8.5t-9.5 22.5q0 8 2 14.5t9 13.5z" />
    <glyph glyph-name="Udieresis" unicode="&#xdc;" horiz-adv-x="711" 
d="M544 660q0 23 11.5 32t32.5 9t33 -9t12 -32v-407q0 -60 -18 -109.5t-53 -85t-87 -55.5t-120 -20t-119.5 20t-86.5 55.5t-53 85t-18 109.5v407q0 23 12 32t33 9t32.5 -9t11.5 -32v-400q0 -100 50 -149.5t138 -49.5q90 0 139.5 49.5t49.5 149.5v400zM463 855q20 0 36 -12
t16 -37q0 -23 -14.5 -36t-37.5 -13t-37.5 13t-14.5 36q0 22 14.5 35.5t37.5 13.5zM263 855q20 0 36.5 -12t16.5 -37q0 -23 -15 -36t-38 -13t-37 13t-14 36q0 22 14 35.5t37 13.5z" />
    <glyph glyph-name="Yacute" unicode="&#xdd;" horiz-adv-x="605" 
d="M259 319q-54 73 -114.5 155t-114.5 156q-5 8 -9 16t-4 16q0 17 15.5 28t30.5 11q21 0 33 -18l209 -292l206 289q14 21 34 21q14 0 28.5 -10t14.5 -27q0 -8 -4 -16t-9 -16l-227 -314v-284q0 -23 -11.5 -32t-32.5 -9t-33 9t-12 32v285zM330 868q16 12 30.5 19.5t28.5 7.5
q20 0 31.5 -13t11.5 -30q0 -14 -7.5 -23.5t-24.5 -18.5l-99 -53q-9 -5 -19.5 -9t-23.5 -4q-14 0 -23 8t-9 22q0 11 4 17.5t15 14.5z" />
    <glyph glyph-name="Thorn" unicode="&#xde;" horiz-adv-x="619" 
d="M83 660q0 23 11.5 32t32.5 9t32.5 -9t11.5 -32v-86h137q137 0 201 -54t64 -155q0 -28 -9.5 -64t-37.5 -68t-77.5 -54t-129.5 -22h-149v-125q0 -23 -11.5 -32t-32.5 -9t-32 9t-11 32v628zM296 232q53 0 89 9.5t57.5 27t31 42t9.5 54.5q0 29 -9 53.5t-30 42.5t-55 28
t-84 10h-135v-267h126z" />
    <glyph glyph-name="germandbls" unicode="&#xdf;" horiz-adv-x="597" 
d="M76 494q0 45 13 84.5t39.5 68.5t67 46t96.5 17q48 0 85.5 -13t62.5 -36t38 -54.5t13 -67.5t-11 -63.5t-27 -46t-35.5 -30t-34.5 -15.5q24 -1 52.5 -11t52.5 -32t39.5 -57t15.5 -84q0 -59 -15.5 -99.5t-42 -66.5t-62 -37.5t-76.5 -11.5q-32 0 -55 4.5t-39 10.5t-25 12
t-12 9q-8 8 -10 14.5t-2 14.5q0 17 11.5 29.5t28.5 12.5q10 0 19.5 -5.5t20.5 -12.5t25.5 -12.5t35.5 -5.5q19 0 39 5.5t36 20t26 41t10 68.5q0 43 -14 72t-37 46t-53 24.5t-62 7.5h-21q-17 0 -24 12t-7 26t7.5 26.5t21.5 12.5h28q19 0 39 5t35.5 18t25.5 35t10 56
q0 30 -10.5 50t-27.5 32.5t-38 17.5t-42 5q-70 0 -98 -43.5t-28 -114.5v-447q0 -23 -11.5 -31.5t-31.5 -8.5t-31 8.5t-11 31.5v462z" />
    <glyph glyph-name="agrave" unicode="&#xe0;" horiz-adv-x="559" 
d="M398 313v20q0 57 -29.5 85t-95.5 28q-26 0 -45 -6t-32.5 -14t-22 -17t-14.5 -16q-10 -12 -17 -16t-18 -4q-16 0 -29.5 9.5t-13.5 24.5q0 8 1.5 13t4.5 11q1 3 12 17t33.5 30t58 28.5t86.5 12.5q57 0 96.5 -14.5t63.5 -38.5t35 -55.5t11 -65.5v-319q0 -33 -43 -33
q-29 0 -35.5 13t-6.5 36v30q-10 -14 -24 -29t-34.5 -27.5t-49 -20.5t-65.5 -8q-45 0 -77.5 11t-54 30.5t-32 46t-10.5 56.5q0 39 14 72t48 56.5t90.5 37t142.5 15.5zM343 245q-64 -1 -104 -9t-63 -21.5t-31.5 -32.5t-8.5 -43q0 -34 23.5 -58.5t77.5 -24.5q47 0 85.5 21.5
t58.5 53.5q17 27 17 73v42zM360 632q13 -14 13 -30q0 -13 -9 -21.5t-23 -8.5t-24 6t-20 15l-85 76q-23 21 -23 37q0 17 14.5 32t35.5 15q15 0 27 -10t28 -29z" />
    <glyph glyph-name="aacute" unicode="&#xe1;" horiz-adv-x="559" 
d="M398 313v20q0 57 -29.5 85t-95.5 28q-26 0 -45 -6t-32.5 -14t-22 -17t-14.5 -16q-10 -12 -17 -16t-18 -4q-16 0 -29.5 9.5t-13.5 24.5q0 8 1.5 13t4.5 11q1 3 12 17t33.5 30t58 28.5t86.5 12.5q57 0 96.5 -14.5t63.5 -38.5t35 -55.5t11 -65.5v-319q0 -33 -43 -33
q-29 0 -35.5 13t-6.5 36v30q-10 -14 -24 -29t-34.5 -27.5t-49 -20.5t-65.5 -8q-45 0 -77.5 11t-54 30.5t-32 46t-10.5 56.5q0 39 14 72t48 56.5t90.5 37t142.5 15.5zM343 245q-64 -1 -104 -9t-63 -21.5t-31.5 -32.5t-8.5 -43q0 -34 23.5 -58.5t77.5 -24.5q47 0 85.5 21.5
t58.5 53.5q17 27 17 73v42zM299 711q16 19 29 28.5t28 9.5q23 0 35 -13t12 -30q0 -16 -23 -37l-85 -76q-10 -9 -20 -15t-24 -6t-22.5 8t-8.5 21q0 16 13 30z" />
    <glyph glyph-name="acircumflex" unicode="&#xe2;" horiz-adv-x="559" 
d="M398 313v20q0 57 -29.5 85t-95.5 28q-26 0 -45 -6t-32.5 -14t-22 -17t-14.5 -16q-10 -12 -17 -16t-18 -4q-16 0 -29.5 9.5t-13.5 24.5q0 8 1.5 13t4.5 11q1 3 12 17t33.5 30t58 28.5t86.5 12.5q57 0 96.5 -14.5t63.5 -38.5t35 -55.5t11 -65.5v-319q0 -33 -43 -33
q-29 0 -35.5 13t-6.5 36v30q-10 -14 -24 -29t-34.5 -27.5t-49 -20.5t-65.5 -8q-45 0 -77.5 11t-54 30.5t-32 46t-10.5 56.5q0 39 14 72t48 56.5t90.5 37t142.5 15.5zM343 245q-64 -1 -104 -9t-63 -21.5t-31.5 -32.5t-8.5 -43q0 -34 23.5 -58.5t77.5 -24.5q47 0 85.5 21.5
t58.5 53.5q17 27 17 73v42zM226 712q17 18 32 26t30 8q17 0 32.5 -8t32.5 -26l73 -79q7 -8 9.5 -16t2.5 -14q0 -14 -10 -22.5t-24 -8.5q-13 0 -22.5 5.5t-17.5 15.5l-75 78l-74 -78q-10 -10 -19.5 -15.5t-23.5 -5.5t-23.5 8.5t-9.5 22.5q0 17 13 30z" />
    <glyph glyph-name="atilde" unicode="&#xe3;" horiz-adv-x="559" 
d="M398 313v20q0 57 -29.5 85t-95.5 28q-26 0 -45 -6t-32.5 -14t-22 -17t-14.5 -16q-10 -12 -17 -16t-18 -4q-16 0 -29.5 9.5t-13.5 24.5q0 8 1.5 13t4.5 11q1 3 12 17t33.5 30t58 28.5t86.5 12.5q57 0 96.5 -14.5t63.5 -38.5t35 -55.5t11 -65.5v-319q0 -33 -43 -33
q-29 0 -35.5 13t-6.5 36v30q-10 -14 -24 -29t-34.5 -27.5t-49 -20.5t-65.5 -8q-45 0 -77.5 11t-54 30.5t-32 46t-10.5 56.5q0 39 14 72t48 56.5t90.5 37t142.5 15.5zM343 245q-64 -1 -104 -9t-63 -21.5t-31.5 -32.5t-8.5 -43q0 -34 23.5 -58.5t77.5 -24.5q47 0 85.5 21.5
t58.5 53.5q17 27 17 73v42zM356 596q-18 0 -32.5 3.5t-29.5 9.5l-38 15q-15 6 -27.5 10t-23.5 4q-18 0 -27.5 -7t-20.5 -20q-4 -5 -9.5 -9.5t-13.5 -4.5q-11 0 -20 6.5t-9 19.5q0 14 6.5 26t14.5 23q16 19 36.5 31t42.5 12q18 0 33 -4.5t32 -11.5l37 -14q11 -5 25 -9t25 -4
q20 0 28 6.5t16 20.5q4 7 9.5 12t13.5 5t18.5 -6t10.5 -17q0 -6 -2 -16q-8 -35 -35 -58t-60 -23z" />
    <glyph glyph-name="adieresis" unicode="&#xe4;" horiz-adv-x="559" 
d="M398 313v20q0 57 -29.5 85t-95.5 28q-26 0 -45 -6t-32.5 -14t-22 -17t-14.5 -16q-10 -12 -17 -16t-18 -4q-16 0 -29.5 9.5t-13.5 24.5q0 8 1.5 13t4.5 11q1 3 12 17t33.5 30t58 28.5t86.5 12.5q57 0 96.5 -14.5t63.5 -38.5t35 -55.5t11 -65.5v-319q0 -33 -43 -33
q-29 0 -35.5 13t-6.5 36v30q-10 -14 -24 -29t-34.5 -27.5t-49 -20.5t-65.5 -8q-45 0 -77.5 11t-54 30.5t-32 46t-10.5 56.5q0 39 14 72t48 56.5t90.5 37t142.5 15.5zM343 245q-64 -1 -104 -9t-63 -21.5t-31.5 -32.5t-8.5 -43q0 -34 23.5 -58.5t77.5 -24.5q47 0 85.5 21.5
t58.5 53.5q17 27 17 73v42zM385 707q21 0 38 -13t17 -39q0 -24 -15 -38t-40 -14t-40 14t-15 38q0 23 15.5 37.5t39.5 14.5zM173 707q20 0 38 -13t18 -39q0 -24 -15.5 -38t-40.5 -14t-39.5 14t-14.5 38q0 23 15 37.5t39 14.5z" />
    <glyph glyph-name="aring" unicode="&#xe5;" horiz-adv-x="559" 
d="M398 313v20q0 57 -29.5 85t-95.5 28q-26 0 -45 -6t-32.5 -14t-22 -17t-14.5 -16q-10 -12 -17 -16t-18 -4q-16 0 -29.5 9.5t-13.5 24.5q0 8 1.5 13t4.5 11q1 3 12 17t33.5 30t58 28.5t86.5 12.5q57 0 96.5 -14.5t63.5 -38.5t35 -55.5t11 -65.5v-319q0 -33 -43 -33
q-29 0 -35.5 13t-6.5 36v30q-10 -14 -24 -29t-34.5 -27.5t-49 -20.5t-65.5 -8q-45 0 -77.5 11t-54 30.5t-32 46t-10.5 56.5q0 39 14 72t48 56.5t90.5 37t142.5 15.5zM343 245q-64 -1 -104 -9t-63 -21.5t-31.5 -32.5t-8.5 -43q0 -34 23.5 -58.5t77.5 -24.5q47 0 85.5 21.5
t58.5 53.5q17 27 17 73v42zM391 679q0 -22 -8.5 -41.5t-23 -34t-34.5 -23t-43 -8.5t-43 8.5t-34.5 23t-23 34t-8.5 41.5t8.5 41.5t23 34t34.5 23t43 8.5t43 -8.5t34.5 -23t23 -34t8.5 -41.5zM338 679q0 23 -16.5 40.5t-39.5 17.5t-39.5 -17.5t-16.5 -40.5t16.5 -40.5
t39.5 -17.5t39.5 17.5t16.5 40.5z" />
    <glyph glyph-name="ae" unicode="&#xe6;" horiz-adv-x="908" 
d="M862 270q0 -35 -41 -35h-340q2 -88 41.5 -131.5t113.5 -43.5q29 0 50.5 7.5t36.5 18t24.5 21.5t15.5 19q7 10 13.5 15t19.5 5q14 0 27.5 -9t13.5 -24q0 -13 -11 -31q-9 -14 -23.5 -30.5t-37 -31.5t-54.5 -25t-75 -10q-69 0 -121 28t-78 79q-9 -14 -24 -32.5t-39.5 -35
t-59 -28t-82.5 -11.5q-49 0 -83.5 11.5t-56 31.5t-31.5 48t-10 60q0 37 13.5 68.5t47.5 54t90.5 35t143.5 12.5h52v24q0 57 -29.5 87t-95.5 30q-26 0 -45 -6t-32.5 -14t-22 -17t-14.5 -16q-10 -12 -17 -16t-18 -4q-16 0 -29.5 9.5t-13.5 24.5q0 8 1.5 13t4.5 11q1 3 12 17
t33.5 30t58 28.5t86.5 12.5q72 0 113.5 -23t64.5 -66q28 39 73.5 64t103.5 25q56 0 99 -19t72 -52t44 -79t15 -100zM343 240q-64 0 -104 -7t-63 -20t-31.5 -31.5t-8.5 -40.5q0 -38 23.5 -62.5t77.5 -24.5q47 0 85.5 21.5t58.5 53.5q9 14 13 33.5t4 41.5v36h-55zM632 447
q-35 0 -61 -12t-44 -31.5t-28.5 -45.5t-13.5 -54h291q-3 30 -12.5 56t-27 45.5t-43.5 30.5t-61 11z" />
    <glyph glyph-name="ccedilla" unicode="&#xe7;" horiz-adv-x="525" 
d="M399 -131q0 -40 -27.5 -68.5t-89.5 -28.5q-34 0 -53.5 6.5t-30.5 11.5q-22 12 -22 31q0 12 8 23t22 11q9 0 17 -3.5t16 -8t18 -8t23 -3.5q21 0 34 9t13 27q0 13 -6 21t-15.5 11.5t-22.5 4.5t-27 1q-22 0 -27 8t-2 19l16 53q-31 5 -58 17q-44 20 -74 55.5t-46 85
t-16 108.5t16 108t46 84.5t74 55t101 19.5q43 0 75.5 -10.5t56 -26.5t38 -35t22.5 -35q4 -8 6 -15t2 -15q0 -18 -13 -28.5t-28 -10.5q-11 0 -18.5 4.5t-18.5 20.5q-6 8 -15 21t-23 25t-34.5 20.5t-49.5 8.5q-75 0 -111 -51t-36 -139q0 -90 36 -142t111 -52q27 0 46 6.5
t32.5 16.5t22.5 21.5t17 22.5q12 17 19.5 23t20.5 6q14 0 27.5 -10t13.5 -25q0 -14 -7 -27q-5 -11 -18.5 -29.5t-37 -36.5t-57.5 -31q-27 -10 -63 -12l-6 -25q54 -5 78.5 -27.5t24.5 -62.5z" />
    <glyph glyph-name="egrave" unicode="&#xe8;" horiz-adv-x="566" 
d="M290 446q-35 0 -61 -11.5t-44 -31t-28.5 -46t-13.5 -55.5h291q-3 28 -12.5 54.5t-27 46t-43.5 31.5t-61 12zM520 263q0 -36 -41 -36h-340q0 -81 40.5 -125t114.5 -44q29 0 50.5 7.5t36.5 18t24.5 21.5t15.5 19q7 10 13.5 15t19.5 5q14 0 27.5 -9t13.5 -24q0 -13 -11 -31
q-9 -14 -23.5 -30.5t-37 -31.5t-54.5 -25t-75 -10q-56 0 -101.5 19.5t-77.5 55t-49 85t-17 108.5q0 60 17 109t48.5 84.5t76 55t99.5 19.5q56 0 99 -19.5t72 -54t44 -81.5t15 -101zM364 632q13 -14 13 -30q0 -13 -9 -21.5t-23 -8.5t-24 6t-20 15l-85 76q-23 21 -23 37
q0 17 14.5 32t35.5 15q15 0 27 -10t28 -29z" />
    <glyph glyph-name="eacute" unicode="&#xe9;" horiz-adv-x="566" 
d="M290 446q-35 0 -61 -11.5t-44 -31t-28.5 -46t-13.5 -55.5h291q-3 28 -12.5 54.5t-27 46t-43.5 31.5t-61 12zM520 263q0 -36 -41 -36h-340q0 -81 40.5 -125t114.5 -44q29 0 50.5 7.5t36.5 18t24.5 21.5t15.5 19q7 10 13.5 15t19.5 5q14 0 27.5 -9t13.5 -24q0 -13 -11 -31
q-9 -14 -23.5 -30.5t-37 -31.5t-54.5 -25t-75 -10q-56 0 -101.5 19.5t-77.5 55t-49 85t-17 108.5q0 60 17 109t48.5 84.5t76 55t99.5 19.5q56 0 99 -19.5t72 -54t44 -81.5t15 -101zM310 711q16 19 29 28.5t28 9.5q23 0 35 -13t12 -30q0 -16 -23 -37l-85 -76q-10 -9 -20 -15
t-24 -6t-22.5 8t-8.5 21q0 16 13 30z" />
    <glyph glyph-name="ecircumflex" unicode="&#xea;" horiz-adv-x="566" 
d="M290 446q-35 0 -61 -11.5t-44 -31t-28.5 -46t-13.5 -55.5h291q-3 28 -12.5 54.5t-27 46t-43.5 31.5t-61 12zM520 263q0 -36 -41 -36h-340q0 -81 40.5 -125t114.5 -44q29 0 50.5 7.5t36.5 18t24.5 21.5t15.5 19q7 10 13.5 15t19.5 5q14 0 27.5 -9t13.5 -24q0 -13 -11 -31
q-9 -14 -23.5 -30.5t-37 -31.5t-54.5 -25t-75 -10q-56 0 -101.5 19.5t-77.5 55t-49 85t-17 108.5q0 60 17 109t48.5 84.5t76 55t99.5 19.5q56 0 99 -19.5t72 -54t44 -81.5t15 -101zM228 712q17 18 32 26t30 8q17 0 32.5 -8t32.5 -26l73 -79q7 -8 9.5 -16t2.5 -14
q0 -14 -10 -22.5t-24 -8.5q-13 0 -22.5 5.5t-17.5 15.5l-75 78l-74 -78q-10 -10 -19.5 -15.5t-23.5 -5.5t-23.5 8.5t-9.5 22.5q0 17 13 30z" />
    <glyph glyph-name="edieresis" unicode="&#xeb;" horiz-adv-x="566" 
d="M290 446q-35 0 -61 -11.5t-44 -31t-28.5 -46t-13.5 -55.5h291q-3 28 -12.5 54.5t-27 46t-43.5 31.5t-61 12zM520 263q0 -36 -41 -36h-340q0 -81 40.5 -125t114.5 -44q29 0 50.5 7.5t36.5 18t24.5 21.5t15.5 19q7 10 13.5 15t19.5 5q14 0 27.5 -9t13.5 -24q0 -13 -11 -31
q-9 -14 -23.5 -30.5t-37 -31.5t-54.5 -25t-75 -10q-56 0 -101.5 19.5t-77.5 55t-49 85t-17 108.5q0 60 17 109t48.5 84.5t76 55t99.5 19.5q56 0 99 -19.5t72 -54t44 -81.5t15 -101zM396 707q21 0 38 -13t17 -39q0 -24 -15 -38t-40 -14t-40 14t-15 38q0 23 15.5 37.5
t39.5 14.5zM184 707q20 0 38 -13t18 -39q0 -24 -15.5 -38t-40.5 -14t-39.5 14t-14.5 38q0 23 15 37.5t39 14.5z" />
    <glyph glyph-name="igrave" unicode="&#xec;" horiz-adv-x="237" 
d="M76 469q0 23 11 31.5t31 8.5t31.5 -8.5t11.5 -31.5v-437q0 -23 -11.5 -31.5t-31.5 -8.5t-31 8.5t-11 31.5v437zM176 632q13 -14 13 -30q0 -13 -9 -21.5t-23 -8.5t-24 6t-20 15l-85 76q-23 21 -23 37q0 17 14.5 32t35.5 15q15 0 27 -10t28 -29z" />
    <glyph glyph-name="iacute" unicode="&#xed;" horiz-adv-x="237" 
d="M76 469q0 23 11 31.5t31 8.5t31.5 -8.5t11.5 -31.5v-437q0 -23 -11.5 -31.5t-31.5 -8.5t-31 8.5t-11 31.5v437zM123 711q16 19 29 28.5t28 9.5q23 0 35 -13t12 -30q0 -16 -23 -37l-85 -76q-10 -9 -20 -15t-24 -6t-22.5 8t-8.5 21q0 16 13 30z" />
    <glyph glyph-name="icircumflex" unicode="&#xee;" horiz-adv-x="237" 
d="M76 469q0 23 11 31.5t31 8.5t31.5 -8.5t11.5 -31.5v-437q0 -23 -11.5 -31.5t-31.5 -8.5t-31 8.5t-11 31.5v437zM59 712q17 18 32 26t30 8q17 0 32.5 -8t32.5 -26l73 -79q7 -8 9.5 -16t2.5 -14q0 -14 -10 -22.5t-24 -8.5q-13 0 -22.5 5.5t-17.5 15.5l-75 78l-74 -78
q-10 -10 -19.5 -15.5t-23.5 -5.5t-23.5 8.5t-9.5 22.5q0 17 13 30z" />
    <glyph glyph-name="idieresis" unicode="&#xef;" horiz-adv-x="237" 
d="M207 707q21 0 38 -13t17 -39q0 -24 -15 -38t-40 -14t-40 14t-15 38q0 23 15.5 37.5t39.5 14.5zM29 707q20 0 38 -13t18 -39q0 -24 -15.5 -38t-40.5 -14t-39.5 14t-14.5 38q0 23 15 37.5t39 14.5zM76 469q0 23 11 31.5t31 8.5t31.5 -8.5t11.5 -31.5v-437
q0 -23 -11.5 -31.5t-31.5 -8.5t-31 8.5t-11 31.5v437z" />
    <glyph glyph-name="eth" unicode="&#xf0;" horiz-adv-x="586" 
d="M335 616q-15 8 -31.5 12.5t-35.5 4.5q-29 0 -48.5 -6.5t-38.5 -17.5q-14 -8 -27.5 -16.5t-27.5 -8.5q-11 0 -17.5 3.5t-12.5 9.5q-12 12 -12 27q0 17 18 33q26 23 69 38t98 15q45 0 80 -11.5t64 -33.5l84 52q14 8 24 8q17 0 28 -19q8 -13 8 -23q0 -18 -21 -31l-71 -44
q36 -54 52.5 -130t16.5 -166q0 -76 -14.5 -137t-44.5 -104t-77 -66t-113 -23q-60 0 -105 19t-75.5 52t-46 78t-15.5 98q0 50 15.5 94t45 77t73 52.5t99.5 19.5q45 0 77 -13.5t52 -30.5q24 -19 39 -43q-7 59 -19 103t-32 74l-66 -41q-14 -9 -27 -9q-22 0 -32 19q-7 10 -7 21
q0 18 20 31zM133 225q0 -37 10.5 -68.5t30.5 -54t48.5 -35.5t63.5 -13q36 0 64.5 13t47.5 36t29 54t10 68q0 38 -12 70t-33 55t-50 35.5t-63 12.5q-33 0 -60 -12.5t-46 -35.5t-29.5 -54.5t-10.5 -70.5z" />
    <glyph glyph-name="ntilde" unicode="&#xf1;" horiz-adv-x="582" 
d="M161 33q0 -23 -11.5 -31.5t-31.5 -8.5t-31 8.5t-11 31.5v438q0 22 10 30t30 8t30.5 -8t10.5 -30v-47q14 26 38 47q20 18 52.5 33t81.5 15q79 0 128 -44t49 -135v-312q0 -35 -41 -35q-44 0 -44 35v291q0 59 -24.5 90t-88.5 31q-39 0 -67 -17.5t-45.5 -45.5t-26 -62.5
t-8.5 -68.5v-213zM385 596q-18 0 -32.5 3.5t-29.5 9.5l-38 15q-15 6 -27.5 10t-23.5 4q-18 0 -27.5 -7t-20.5 -20q-4 -5 -9.5 -9.5t-13.5 -4.5q-11 0 -20 6.5t-9 19.5q0 14 6.5 26t14.5 23q16 19 36.5 31t42.5 12q18 0 33 -4.5t32 -11.5l37 -14q11 -5 25 -9t25 -4
q20 0 28 6.5t16 20.5q4 7 9.5 12t13.5 5t18.5 -6t10.5 -17q0 -6 -2 -16q-8 -35 -35 -58t-60 -23z" />
    <glyph glyph-name="ograve" unicode="&#xf2;" horiz-adv-x="588" 
d="M139 252q0 -91 40 -143t115 -52t115 52t40 143t-40 142t-115 51t-115 -51t-40 -142zM49 252q0 63 17.5 112.5t50 84t77.5 52.5t100 18t100 -18t77.5 -52.5t50 -84t17.5 -112.5t-17.5 -113t-50 -84.5t-77.5 -53t-100 -18.5t-100 18.5t-77.5 53t-50 84.5t-17.5 113z
M375 632q13 -14 13 -30q0 -13 -9 -21.5t-23 -8.5t-24 6t-20 15l-85 76q-23 21 -23 37q0 17 14.5 32t35.5 15q15 0 27 -10t28 -29z" />
    <glyph glyph-name="oacute" unicode="&#xf3;" horiz-adv-x="588" 
d="M139 252q0 -91 40 -143t115 -52t115 52t40 143t-40 142t-115 51t-115 -51t-40 -142zM49 252q0 63 17.5 112.5t50 84t77.5 52.5t100 18t100 -18t77.5 -52.5t50 -84t17.5 -112.5t-17.5 -113t-50 -84.5t-77.5 -53t-100 -18.5t-100 18.5t-77.5 53t-50 84.5t-17.5 113z
M318 711q16 19 29 28.5t28 9.5q23 0 35 -13t12 -30q0 -16 -23 -37l-85 -76q-10 -9 -20 -15t-24 -6t-22.5 8t-8.5 21q0 16 13 30z" />
    <glyph glyph-name="ocircumflex" unicode="&#xf4;" horiz-adv-x="588" 
d="M139 252q0 -91 40 -143t115 -52t115 52t40 143t-40 142t-115 51t-115 -51t-40 -142zM49 252q0 63 17.5 112.5t50 84t77.5 52.5t100 18t100 -18t77.5 -52.5t50 -84t17.5 -112.5t-17.5 -113t-50 -84.5t-77.5 -53t-100 -18.5t-100 18.5t-77.5 53t-50 84.5t-17.5 113z
M232 712q17 18 32 26t30 8q17 0 32.5 -8t32.5 -26l73 -79q7 -8 9.5 -16t2.5 -14q0 -14 -10 -22.5t-24 -8.5q-13 0 -22.5 5.5t-17.5 15.5l-75 78l-74 -78q-10 -10 -19.5 -15.5t-23.5 -5.5t-23.5 8.5t-9.5 22.5q0 17 13 30z" />
    <glyph glyph-name="otilde" unicode="&#xf5;" horiz-adv-x="588" 
d="M139 252q0 -91 40 -143t115 -52t115 52t40 143t-40 142t-115 51t-115 -51t-40 -142zM49 252q0 63 17.5 112.5t50 84t77.5 52.5t100 18t100 -18t77.5 -52.5t50 -84t17.5 -112.5t-17.5 -113t-50 -84.5t-77.5 -53t-100 -18.5t-100 18.5t-77.5 53t-50 84.5t-17.5 113z
M371 596q-18 0 -32.5 3.5t-29.5 9.5l-38 15q-15 6 -27.5 10t-23.5 4q-18 0 -27.5 -7t-20.5 -20q-4 -5 -9.5 -9.5t-13.5 -4.5q-11 0 -20 6.5t-9 19.5q0 14 6.5 26t14.5 23q16 19 36.5 31t42.5 12q18 0 33 -4.5t32 -11.5l37 -14q11 -5 25 -9t25 -4q20 0 28 6.5t16 20.5
q4 7 9.5 12t13.5 5t18.5 -6t10.5 -17q0 -6 -2 -16q-8 -35 -35 -58t-60 -23z" />
    <glyph glyph-name="odieresis" unicode="&#xf6;" horiz-adv-x="588" 
d="M139 252q0 -91 40 -143t115 -52t115 52t40 143t-40 142t-115 51t-115 -51t-40 -142zM49 252q0 63 17.5 112.5t50 84t77.5 52.5t100 18t100 -18t77.5 -52.5t50 -84t17.5 -112.5t-17.5 -113t-50 -84.5t-77.5 -53t-100 -18.5t-100 18.5t-77.5 53t-50 84.5t-17.5 113z
M399 707q21 0 38 -13t17 -39q0 -24 -15 -38t-40 -14t-40 14t-15 38q0 23 15.5 37.5t39.5 14.5zM187 707q20 0 38 -13t18 -39q0 -24 -15.5 -38t-40.5 -14t-39.5 14t-14.5 38q0 23 15 37.5t39 14.5z" />
    <glyph glyph-name="divide" unicode="&#xf7;" horiz-adv-x="610" 
d="M244 149q0 25 18 43t44 18q25 0 43 -18t18 -43q0 -26 -18 -44t-43 -18q-26 0 -44 18t-18 44zM244 528q0 25 18 43t44 18q25 0 43 -18t18 -43q0 -26 -18 -44t-43 -18q-26 0 -44 18t-18 44zM496 378q20 0 28 -10t8 -28t-8 -28.5t-28 -10.5h-382q-20 0 -28 10.5t-8 28.5
t8 28t28 10h382z" />
    <glyph glyph-name="oslash" unicode="&#xf8;" horiz-adv-x="588" 
d="M49 250q0 63 17.5 113t50 85t77.5 53.5t100 18.5q68 0 122 -28l52 73q14 20 31 20q14 0 29.5 -12t15.5 -28q0 -12 -10 -25l-55 -79q29 -34 44.5 -82.5t15.5 -108.5q0 -63 -17.5 -112.5t-50 -84t-77.5 -52.5t-100 -18q-64 0 -117 25l-54 -77q-14 -20 -31 -20
q-14 0 -29 11.5t-15 27.5q0 13 10 27l55 79q-31 34 -47.5 83t-16.5 111zM139 250q0 -74 26 -121l206 298q-35 19 -77 19q-75 0 -115 -52.5t-40 -143.5zM449 250q0 67 -23 113l-203 -291q30 -15 71 -15q75 0 115 51t40 142z" />
    <glyph glyph-name="ugrave" unicode="&#xf9;" horiz-adv-x="582" 
d="M421 469q0 23 11.5 31.5t31.5 8.5t31 -8.5t11 -31.5v-438q0 -22 -10 -30t-30 -8t-30.5 8t-10.5 30v48q-14 -27 -38 -48q-20 -18 -53 -33t-81 -15q-39 0 -72 11t-56 33t-36 55.5t-13 79.5v312q0 35 41 35q44 0 44 -35v-291q0 -59 24 -90t89 -31q39 0 67 17.5t45.5 45.5
t26 63t8.5 69v212zM346 632q13 -14 13 -30q0 -13 -9 -21.5t-23 -8.5t-24 6t-20 15l-85 76q-23 21 -23 37q0 17 14.5 32t35.5 15q15 0 27 -10t28 -29z" />
    <glyph glyph-name="uacute" unicode="&#xfa;" horiz-adv-x="582" 
d="M421 469q0 23 11.5 31.5t31.5 8.5t31 -8.5t11 -31.5v-438q0 -22 -10 -30t-30 -8t-30.5 8t-10.5 30v48q-14 -27 -38 -48q-20 -18 -53 -33t-81 -15q-39 0 -72 11t-56 33t-36 55.5t-13 79.5v312q0 35 41 35q44 0 44 -35v-291q0 -59 24 -90t89 -31q39 0 67 17.5t45.5 45.5
t26 63t8.5 69v212zM314 711q16 19 29 28.5t28 9.5q23 0 35 -13t12 -30q0 -16 -23 -37l-85 -76q-10 -9 -20 -15t-24 -6t-22.5 8t-8.5 21q0 16 13 30z" />
    <glyph glyph-name="ucircumflex" unicode="&#xfb;" horiz-adv-x="582" 
d="M421 469q0 23 11.5 31.5t31.5 8.5t31 -8.5t11 -31.5v-438q0 -22 -10 -30t-30 -8t-30.5 8t-10.5 30v48q-14 -27 -38 -48q-20 -18 -53 -33t-81 -15q-39 0 -72 11t-56 33t-36 55.5t-13 79.5v312q0 35 41 35q44 0 44 -35v-291q0 -59 24 -90t89 -31q39 0 67 17.5t45.5 45.5
t26 63t8.5 69v212zM232 712q17 18 32 26t30 8q17 0 32.5 -8t32.5 -26l73 -79q7 -8 9.5 -16t2.5 -14q0 -14 -10 -22.5t-24 -8.5q-13 0 -22.5 5.5t-17.5 15.5l-75 78l-74 -78q-10 -10 -19.5 -15.5t-23.5 -5.5t-23.5 8.5t-9.5 22.5q0 17 13 30z" />
    <glyph glyph-name="udieresis" unicode="&#xfc;" horiz-adv-x="582" 
d="M421 469q0 23 11.5 31.5t31.5 8.5t31 -8.5t11 -31.5v-438q0 -22 -10 -30t-30 -8t-30.5 8t-10.5 30v48q-14 -27 -38 -48q-20 -18 -53 -33t-81 -15q-39 0 -72 11t-56 33t-36 55.5t-13 79.5v312q0 35 41 35q44 0 44 -35v-291q0 -59 24 -90t89 -31q39 0 67 17.5t45.5 45.5
t26 63t8.5 69v212zM396 707q21 0 38 -13t17 -39q0 -24 -15 -38t-40 -14t-40 14t-15 38q0 23 15.5 37.5t39.5 14.5zM184 707q20 0 38 -13t18 -39q0 -24 -15.5 -38t-40.5 -14t-39.5 14t-14.5 38q0 23 15 37.5t39 14.5z" />
    <glyph glyph-name="yacute" unicode="&#xfd;" horiz-adv-x="508" 
d="M205 -186q-7 -14 -15 -21t-24 -7q-17 0 -29 9.5t-12 26.5q0 5 1.5 12t6.5 17l73 164l-175 422q-4 10 -8 18.5t-4 16.5q0 17 15.5 27t34.5 10q23 0 34 -28l149 -366l157 368q6 14 13 20t19 6q18 0 33 -9t15 -26q0 -7 -3.5 -15.5t-7.5 -17.5zM289 711q16 19 29 28.5t28 9.5
q23 0 35 -13t12 -30q0 -16 -23 -37l-85 -76q-10 -9 -20 -15t-24 -6t-22.5 8t-8.5 21q0 16 13 30z" />
    <glyph glyph-name="thorn" unicode="&#xfe;" horiz-adv-x="595" 
d="M76 663q0 22 10 30t30 8t30.5 -8t10.5 -30v-241q21 41 63.5 69t103.5 28q52 0 93 -20t69.5 -56t43 -85.5t14.5 -107.5q0 -59 -14.5 -108t-43 -84t-69.5 -54.5t-93 -19.5q-63 0 -103 23.5t-60 55.5v-236q0 -23 -11.5 -31.5t-31.5 -8.5t-31 8.5t-11 31.5v836zM454 250
q0 42 -9 77.5t-27 61t-45 39.5t-62 14q-36 0 -64.5 -15.5t-48 -42.5t-30 -62.5t-10.5 -75.5q0 -89 40 -138.5t112 -49.5q36 0 63 14t45 39.5t27 60.5t9 78z" />
    <glyph glyph-name="ydieresis" unicode="&#xff;" horiz-adv-x="508" 
d="M205 -186q-7 -14 -15 -21t-24 -7q-17 0 -29 9.5t-12 26.5q0 5 1.5 12t6.5 17l73 164l-175 422q-4 10 -8 18.5t-4 16.5q0 17 15.5 27t34.5 10q23 0 34 -28l149 -366l157 368q6 14 13 20t19 6q18 0 33 -9t15 -26q0 -7 -3.5 -15.5t-7.5 -17.5zM363 707q21 0 38 -13t17 -39
q0 -24 -15 -38t-40 -14t-40 14t-15 38q0 23 15.5 37.5t39.5 14.5zM151 707q20 0 38 -13t18 -39q0 -24 -15.5 -38t-40.5 -14t-39.5 14t-14.5 38q0 23 15 37.5t39 14.5z" />
    <glyph glyph-name="Amacron" unicode="&#x100;" horiz-adv-x="672" 
d="M71 -7q-18 0 -34.5 9.5t-16.5 26.5q0 3 1 8t5 13l263 624q6 12 16.5 19.5t31.5 7.5q23 0 33.5 -7.5t15.5 -19.5l261 -622q4 -8 4.5 -12.5t0.5 -8.5q0 -18 -16.5 -28t-35.5 -10q-14 0 -22 7.5t-13 18.5l-77 180h-306l-78 -181q-11 -25 -33 -25zM336 585l-123 -312h244z
M224 768q-17 0 -25.5 8t-8.5 31q0 21 7.5 30.5t27.5 9.5h222q20 0 27.5 -9.5t7.5 -30.5q0 -23 -9 -31t-29 -8h-220z" />
    <glyph glyph-name="amacron" unicode="&#x101;" horiz-adv-x="559" 
d="M398 313v20q0 57 -29.5 85t-95.5 28q-26 0 -45 -6t-32.5 -14t-22 -17t-14.5 -16q-10 -12 -17 -16t-18 -4q-16 0 -29.5 9.5t-13.5 24.5q0 8 1.5 13t4.5 11q1 3 12 17t33.5 30t58 28.5t86.5 12.5q57 0 96.5 -14.5t63.5 -38.5t35 -55.5t11 -65.5v-319q0 -33 -43 -33
q-29 0 -35.5 13t-6.5 36v30q-10 -14 -24 -29t-34.5 -27.5t-49 -20.5t-65.5 -8q-45 0 -77.5 11t-54 30.5t-32 46t-10.5 56.5q0 39 14 72t48 56.5t90.5 37t142.5 15.5zM343 245q-64 -1 -104 -9t-63 -21.5t-31.5 -32.5t-8.5 -43q0 -34 23.5 -58.5t77.5 -24.5q47 0 85.5 21.5
t58.5 53.5q17 27 17 73v42zM167 615q-17 0 -25.5 8t-8.5 31q0 21 7.5 30.5t27.5 9.5h222q20 0 27.5 -9.5t7.5 -30.5q0 -23 -9 -31t-29 -8h-220z" />
    <glyph glyph-name="Abreve" unicode="&#x102;" horiz-adv-x="672" 
d="M71 -7q-18 0 -34.5 9.5t-16.5 26.5q0 3 1 8t5 13l263 624q6 12 16.5 19.5t31.5 7.5q23 0 33.5 -7.5t15.5 -19.5l261 -622q4 -8 4.5 -12.5t0.5 -8.5q0 -18 -16.5 -28t-35.5 -10q-14 0 -22 7.5t-13 18.5l-77 180h-306l-78 -181q-11 -25 -33 -25zM336 585l-123 -312h244z
M334 747q-39 0 -67.5 11.5t-46.5 28.5t-27 36t-9 35q0 17 12 25.5t32 8.5q21 0 32 -20q5 -9 10.5 -19.5t14 -19.5t21 -15t31.5 -6q17 0 29 6t20.5 14t14 17.5t9.5 17.5q7 13 15 19t22 6q19 0 30 -8.5t11 -23.5q0 -18 -9.5 -37.5t-29 -36.5t-48 -28t-67.5 -11z" />
    <glyph glyph-name="abreve" unicode="&#x103;" horiz-adv-x="559" 
d="M398 313v20q0 57 -29.5 85t-95.5 28q-26 0 -45 -6t-32.5 -14t-22 -17t-14.5 -16q-10 -12 -17 -16t-18 -4q-16 0 -29.5 9.5t-13.5 24.5q0 8 1.5 13t4.5 11q1 3 12 17t33.5 30t58 28.5t86.5 12.5q57 0 96.5 -14.5t63.5 -38.5t35 -55.5t11 -65.5v-319q0 -33 -43 -33
q-29 0 -35.5 13t-6.5 36v30q-10 -14 -24 -29t-34.5 -27.5t-49 -20.5t-65.5 -8q-45 0 -77.5 11t-54 30.5t-32 46t-10.5 56.5q0 39 14 72t48 56.5t90.5 37t142.5 15.5zM343 245q-64 -1 -104 -9t-63 -21.5t-31.5 -32.5t-8.5 -43q0 -34 23.5 -58.5t77.5 -24.5q47 0 85.5 21.5
t58.5 53.5q17 27 17 73v42zM288 572q-39 0 -67.5 11.5t-46.5 28.5t-27 36t-9 35q0 17 12 25.5t32 8.5q21 0 32 -20q5 -9 10.5 -19.5t14 -19.5t21 -15t31.5 -6q17 0 29 6t20.5 14t14 17.5t9.5 17.5q7 13 15 19t22 6q19 0 30 -8.5t11 -23.5q0 -18 -9.5 -37.5t-29 -36.5
t-48 -28t-67.5 -11z" />
    <glyph glyph-name="Aogonek" unicode="&#x104;" horiz-adv-x="671" 
d="M70 -9q-18 0 -34 10t-16 27q0 3 0.5 7.5t4.5 12.5l263 626q6 12 16.5 19.5t31.5 7.5q23 0 33.5 -7.5t15.5 -19.5l261 -624q4 -8 4.5 -12.5t0.5 -8.5q0 -11 -4.5 -18t-12.5 -13q-30 -24 -52.5 -54.5t-22.5 -62.5q0 -29 15 -40t33 -11q11 0 18.5 2t13.5 4.5t11.5 4.5
t12.5 2q9 0 15.5 -9.5t6.5 -22.5t-13 -25q-11 -10 -31.5 -16t-44.5 -6q-33 0 -55.5 9t-36 23.5t-19.5 33t-6 37.5q0 25 8 46.5t20.5 39.5t28 33.5t30.5 27.5l-79 185h-306l-78 -183q-4 -8 -13 -16.5t-20 -8.5zM335 585l-123 -312h244z" />
    <glyph glyph-name="aogonek" unicode="&#x105;" horiz-adv-x="559" 
d="M398 313v17q0 57 -29.5 85t-95.5 28q-26 0 -45 -6t-32.5 -14t-22 -17t-14.5 -16q-10 -12 -17 -16t-18 -4q-16 0 -29.5 9.5t-13.5 24.5q0 8 1.5 13t4.5 11q1 3 12 17t33.5 30t58 28.5t86.5 12.5q57 0 96.5 -14.5t63.5 -38.5t35 -55.5t11 -65.5v-317q0 -20 -17 -30
q-35 -23 -54.5 -52t-19.5 -60q0 -30 15 -41.5t33 -11.5q11 0 18.5 2t13.5 4.5t11.5 4.5t12.5 2q9 0 15.5 -9.5t6.5 -22.5t-13 -25q-11 -10 -31.5 -16t-43.5 -6q-33 0 -55.5 9t-36 24t-19 33t-5.5 36q0 48 24.5 83t59.5 59v64q-10 -14 -24 -28.5t-34.5 -26t-49 -18.5
t-65.5 -7q-90 0 -132 39.5t-42 104.5q0 37 13.5 69t47 55t90.5 36.5t144 15.5zM343 245q-64 -1 -104 -9t-63 -22t-31.5 -32.5t-8.5 -40.5q0 -38 23.5 -59t77.5 -21q47 0 85.5 21.5t58.5 53.5q17 27 17 68v42z" />
    <glyph glyph-name="Cacute" unicode="&#x106;" horiz-adv-x="696" 
d="M571 183q9 16 17.5 23.5t21.5 7.5q14 0 30 -8t16 -30q0 -20 -15.5 -47.5t-33.5 -48.5q-7 -8 -24.5 -24.5t-46 -32.5t-67.5 -28t-90 -12q-74 0 -134.5 26t-103.5 73t-66.5 114t-23.5 150t23.5 150.5t66.5 115t103.5 73.5t134.5 26q49 0 87 -11t65 -25.5t44 -30t25 -24.5
q18 -21 34.5 -48.5t16.5 -47.5q0 -22 -16.5 -30t-30.5 -8q-13 0 -21.5 7.5t-15.5 20.5q-11 20 -27 40.5t-38 37.5t-52 28t-70 11q-57 0 -100.5 -21t-73.5 -58.5t-45 -90t-15 -115.5q0 -62 15 -114.5t45 -90t73.5 -58.5t100.5 -21q45 0 77 12.5t54 31t36 39.5t24 38zM375 868
q16 12 30.5 19.5t28.5 7.5q20 0 31.5 -13t11.5 -30q0 -14 -7.5 -23.5t-24.5 -18.5l-99 -53q-9 -5 -19.5 -9t-23.5 -4q-14 0 -23 8t-9 22q0 11 4 17.5t15 14.5z" />
    <glyph glyph-name="cacute" unicode="&#x107;" horiz-adv-x="525" 
d="M404 126q12 17 19.5 23t20.5 6q14 0 27.5 -10t13.5 -25q0 -14 -7 -27q-5 -11 -18.5 -29.5t-37 -36.5t-57 -31t-79.5 -13q-57 0 -101 20t-74 55.5t-46 85t-16 108.5t16 108t46 84.5t74 55t101 19.5q43 0 75.5 -10.5t56 -26.5t38 -35t22.5 -35q4 -8 6 -15t2 -15
q0 -18 -13 -28.5t-28 -10.5q-11 0 -18.5 4.5t-18.5 20.5q-6 8 -15 21t-23 25t-34.5 20.5t-49.5 8.5q-75 0 -111 -51t-36 -139q0 -90 36 -142t111 -52q27 0 46 6.5t32.5 16.5t22.5 21.5t17 22.5zM296 711q16 19 29 28.5t28 9.5q23 0 35 -13t12 -30q0 -16 -23 -37l-85 -76
q-10 -9 -20 -15t-24 -6t-22.5 8t-8.5 21q0 16 13 30z" />
    <glyph glyph-name="Ccircumflex" unicode="&#x108;" horiz-adv-x="696" 
d="M571 183q9 16 17.5 23.5t21.5 7.5q14 0 30 -8t16 -30q0 -20 -15.5 -47.5t-33.5 -48.5q-7 -8 -24.5 -24.5t-46 -32.5t-67.5 -28t-90 -12q-74 0 -134.5 26t-103.5 73t-66.5 114t-23.5 150t23.5 150.5t66.5 115t103.5 73.5t134.5 26q49 0 87 -11t65 -25.5t44 -30t25 -24.5
q18 -21 34.5 -48.5t16.5 -47.5q0 -22 -16.5 -30t-30.5 -8q-13 0 -21.5 7.5t-15.5 20.5q-11 20 -27 40.5t-38 37.5t-52 28t-70 11q-57 0 -100.5 -21t-73.5 -58.5t-45 -90t-15 -115.5q0 -62 15 -114.5t45 -90t73.5 -58.5t100.5 -21q45 0 77 12.5t54 31t36 39.5t24 38zM320 871
q19 16 32.5 24t30.5 8q15 0 28 -7t31 -24l76 -69q8 -7 9.5 -14t1.5 -13q0 -14 -10 -23t-24 -9t-23 5.5t-19 13.5l-71 63l-74 -62q-11 -8 -21 -14t-24 -6t-23.5 8.5t-9.5 22.5q0 8 2 14.5t9 13.5z" />
    <glyph glyph-name="ccircumflex" unicode="&#x109;" horiz-adv-x="525" 
d="M404 126q12 17 19.5 23t20.5 6q14 0 27.5 -10t13.5 -25q0 -14 -7 -27q-5 -11 -18.5 -29.5t-37 -36.5t-57 -31t-79.5 -13q-57 0 -101 20t-74 55.5t-46 85t-16 108.5t16 108t46 84.5t74 55t101 19.5q43 0 75.5 -10.5t56 -26.5t38 -35t22.5 -35q4 -8 6 -15t2 -15
q0 -18 -13 -28.5t-28 -10.5q-11 0 -18.5 4.5t-18.5 20.5q-6 8 -15 21t-23 25t-34.5 20.5t-49.5 8.5q-75 0 -111 -51t-36 -139q0 -90 36 -142t111 -52q27 0 46 6.5t32.5 16.5t22.5 21.5t17 22.5zM223 712q17 18 32 26t30 8q17 0 32.5 -8t32.5 -26l73 -79q7 -8 9.5 -16
t2.5 -14q0 -14 -10 -22.5t-24 -8.5q-13 0 -22.5 5.5t-17.5 15.5l-75 78l-74 -78q-10 -10 -19.5 -15.5t-23.5 -5.5t-23.5 8.5t-9.5 22.5q0 17 13 30z" />
    <glyph glyph-name="Cdotaccent" unicode="&#x10a;" horiz-adv-x="696" 
d="M571 183q9 16 17.5 23.5t21.5 7.5q14 0 30 -8t16 -30q0 -20 -15.5 -47.5t-33.5 -48.5q-7 -8 -24.5 -24.5t-46 -32.5t-67.5 -28t-90 -12q-74 0 -134.5 26t-103.5 73t-66.5 114t-23.5 150t23.5 150.5t66.5 115t103.5 73.5t134.5 26q49 0 87 -11t65 -25.5t44 -30t25 -24.5
q18 -21 34.5 -48.5t16.5 -47.5q0 -22 -16.5 -30t-30.5 -8q-13 0 -21.5 7.5t-15.5 20.5q-11 20 -27 40.5t-38 37.5t-52 28t-70 11q-57 0 -100.5 -21t-73.5 -58.5t-45 -90t-15 -115.5q0 -62 15 -114.5t45 -90t73.5 -58.5t100.5 -21q45 0 77 12.5t54 31t36 39.5t24 38zM380 876
q24 0 43.5 -14.5t19.5 -44.5q0 -26 -17 -42t-46 -16q-28 0 -45 16t-17 42t17.5 42.5t44.5 16.5z" />
    <glyph glyph-name="cdotaccent" unicode="&#x10b;" horiz-adv-x="525" 
d="M404 126q12 17 19.5 23t20.5 6q14 0 27.5 -10t13.5 -25q0 -14 -7 -27q-5 -11 -18.5 -29.5t-37 -36.5t-57 -31t-79.5 -13q-57 0 -101 20t-74 55.5t-46 85t-16 108.5t16 108t46 84.5t74 55t101 19.5q43 0 75.5 -10.5t56 -26.5t38 -35t22.5 -35q4 -8 6 -15t2 -15
q0 -18 -13 -28.5t-28 -10.5q-11 0 -18.5 4.5t-18.5 20.5q-6 8 -15 21t-23 25t-34.5 20.5t-49.5 8.5q-75 0 -111 -51t-36 -139q0 -90 36 -142t111 -52q27 0 46 6.5t32.5 16.5t22.5 21.5t17 22.5zM287 712q24 0 43.5 -14.5t19.5 -44.5q0 -26 -17 -42t-46 -16q-28 0 -45 16
t-17 42t17.5 42.5t44.5 16.5z" />
    <glyph glyph-name="Ccaron" unicode="&#x10c;" horiz-adv-x="696" 
d="M571 183q9 16 17.5 23.5t21.5 7.5q14 0 30 -8t16 -30q0 -20 -15.5 -47.5t-33.5 -48.5q-7 -8 -24.5 -24.5t-46 -32.5t-67.5 -28t-90 -12q-74 0 -134.5 26t-103.5 73t-66.5 114t-23.5 150t23.5 150.5t66.5 115t103.5 73.5t134.5 26q49 0 87 -11t65 -25.5t44 -30t25 -24.5
q18 -21 34.5 -48.5t16.5 -47.5q0 -22 -16.5 -30t-30.5 -8q-13 0 -21.5 7.5t-15.5 20.5q-11 20 -27 40.5t-38 37.5t-52 28t-70 11q-57 0 -100.5 -21t-73.5 -58.5t-45 -90t-15 -115.5q0 -62 15 -114.5t45 -90t73.5 -58.5t100.5 -21q45 0 77 12.5t54 31t36 39.5t24 38zM443 776
q-19 -16 -32.5 -24t-30.5 -8q-15 0 -28 7t-31 24l-76 69q-8 7 -9.5 14t-1.5 13q0 14 10.5 23.5t24.5 9.5t22.5 -6t18.5 -14l72 -65l73 64q11 8 20 14.5t23 6.5t24.5 -9t10.5 -23q0 -8 -2 -14.5t-9 -13.5z" />
    <glyph glyph-name="ccaron" unicode="&#x10d;" horiz-adv-x="525" 
d="M404 126q12 17 19.5 23t20.5 6q14 0 27.5 -10t13.5 -25q0 -14 -7 -27q-5 -11 -18.5 -29.5t-37 -36.5t-57 -31t-79.5 -13q-57 0 -101 20t-74 55.5t-46 85t-16 108.5t16 108t46 84.5t74 55t101 19.5q43 0 75.5 -10.5t56 -26.5t38 -35t22.5 -35q4 -8 6 -15t2 -15
q0 -18 -13 -28.5t-28 -10.5q-11 0 -18.5 4.5t-18.5 20.5q-6 8 -15 21t-23 25t-34.5 20.5t-49.5 8.5q-75 0 -111 -51t-36 -139q0 -90 36 -142t111 -52q27 0 46 6.5t32.5 16.5t22.5 21.5t17 22.5zM147 685q-13 13 -13 30q0 14 9.5 22.5t23.5 8.5t23.5 -5.5t19.5 -15.5l74 -78
l75 78q8 10 17.5 15.5t22.5 5.5q14 0 24 -8.5t10 -22.5q0 -6 -2.5 -14t-9.5 -16l-73 -79q-31 -34 -65 -34q-31 0 -62 34z" />
    <glyph glyph-name="Dcaron" unicode="&#x10e;" horiz-adv-x="714" 
d="M569 346q0 69 -19 120t-53 84.5t-82 50t-105 16.5h-138v-540h138q58 0 106 16.5t82 49.5t52.5 83.5t18.5 119.5zM130 0q-22 0 -34.5 10t-12.5 33v608q0 23 12.5 33t34.5 10h186q78 0 142 -21t110 -63.5t71 -108t25 -155.5q0 -89 -25 -154t-71 -107.5t-110 -63.5t-142 -21
h-186zM369 776q-19 -16 -32.5 -24t-30.5 -8q-15 0 -28 7t-31 24l-76 69q-8 7 -9.5 14t-1.5 13q0 14 10.5 23.5t24.5 9.5t22.5 -6t18.5 -14l72 -65l73 64q11 8 20 14.5t23 6.5t24.5 -9t10.5 -23q0 -8 -2 -14.5t-9 -13.5z" />
    <glyph glyph-name="dcaron" unicode="&#x10f;" horiz-adv-x="634" 
d="M519 31q0 -22 -10 -30t-30 -8t-30.5 8t-10.5 30v46q-21 -39 -63.5 -66t-103.5 -27q-53 0 -93.5 20t-69 55.5t-43 85t-14.5 108.5t14.5 108t43 84t69 54.5t93.5 19.5q31 0 57.5 -8t47 -20t35.5 -27.5t23 -30.5v228q0 23 11.5 31.5t31.5 8.5t31 -8.5t11 -31.5v-630z
M141 250q0 -87 38 -139t109 -52q36 0 64 14.5t47 40.5t28.5 61.5t9.5 77.5q0 89 -40 139.5t-112 50.5q-36 0 -63 -14t-45 -39.5t-27 -61t-9 -78.5zM572 636q0 3 -0.5 8.5t-0.5 8.5q0 48 48 48q26 0 35.5 -11.5t9.5 -33.5v-11q0 -5 -1 -10l-11 -119q-2 -20 -8.5 -32.5
t-27.5 -12.5q-19 0 -26.5 11t-9.5 34z" />
    <glyph glyph-name="Dcroat" unicode="&#x110;" horiz-adv-x="715" 
d="M131 0q-22 0 -34.5 10t-12.5 33v267h-50q-17 0 -25.5 7.5t-8.5 28.5q0 20 7.5 29t27.5 9h49v267q0 23 12.5 33t34.5 10h186q78 0 142 -21t110 -63.5t71 -108t25 -155.5q0 -89 -25 -154t-71 -107.5t-110 -63.5t-142 -21h-186zM570 346q0 69 -19 120t-53 84.5t-82 50
t-105 16.5h-138v-233h188q20 0 27.5 -9t7.5 -29q0 -21 -9 -28.5t-29 -7.5h-185v-233h138q58 0 106 16.5t82 49.5t52.5 83.5t18.5 119.5z" />
    <glyph glyph-name="dcroat" unicode="&#x111;" horiz-adv-x="595" 
d="M519 622h44q20 0 27 -9.5t7 -26.5t-7 -26.5t-27 -9.5h-44v-520q0 -22 -10 -30t-30 -8t-30.5 8t-10.5 30v47q-21 -39 -63.5 -65.5t-103.5 -26.5q-53 0 -93.5 19t-69 53t-43 82t-14.5 107q0 118 57 186.5t163 68.5q31 0 57.5 -7.5t47 -19t35.5 -26.5t23 -30v132h-148
q-20 0 -27 9.5t-7 26.5t7 26.5t27 9.5h148v39q0 23 11.5 31.5t31.5 8.5t31 -8.5t11 -31.5v-39zM141 243q0 -85 38 -134t109 -49q73 0 111 51.5t38 135.5q0 89 -40 133.5t-112 44.5t-108 -48t-36 -134z" />
    <glyph glyph-name="Emacron" unicode="&#x112;" horiz-adv-x="603" 
d="M171 316v-239h354q20 0 28.5 -9.5t8.5 -28.5t-8.5 -29t-28.5 -10h-396q-21 0 -33.5 10t-12.5 33v608q0 23 12.5 33t33.5 10h396q20 0 28.5 -9.5t8.5 -28.5t-8.5 -29t-28.5 -10h-354v-224h335q20 0 28.5 -9.5t8.5 -28.5t-8.5 -29t-28.5 -10h-335zM213 768q-17 0 -25.5 8
t-8.5 31q0 21 7.5 30.5t27.5 9.5h222q20 0 27.5 -9.5t7.5 -30.5q0 -23 -9 -31t-29 -8h-220z" />
    <glyph glyph-name="emacron" unicode="&#x113;" horiz-adv-x="566" 
d="M290 446q-35 0 -61 -11.5t-44 -31t-28.5 -46t-13.5 -55.5h291q-3 28 -12.5 54.5t-27 46t-43.5 31.5t-61 12zM520 263q0 -36 -41 -36h-340q0 -81 40.5 -125t114.5 -44q29 0 50.5 7.5t36.5 18t24.5 21.5t15.5 19q7 10 13.5 15t19.5 5q14 0 27.5 -9t13.5 -24q0 -13 -11 -31
q-9 -14 -23.5 -30.5t-37 -31.5t-54.5 -25t-75 -10q-56 0 -101.5 19.5t-77.5 55t-49 85t-17 108.5q0 60 17 109t48.5 84.5t76 55t99.5 19.5q56 0 99 -19.5t72 -54t44 -81.5t15 -101zM184 615q-17 0 -25.5 8t-8.5 31q0 21 7.5 30.5t27.5 9.5h222q20 0 27.5 -9.5t7.5 -30.5
q0 -23 -9 -31t-29 -8h-220z" />
    <glyph glyph-name="Ebreve" unicode="&#x114;" horiz-adv-x="603" 
d="M171 316v-239h354q20 0 28.5 -9.5t8.5 -28.5t-8.5 -29t-28.5 -10h-396q-21 0 -33.5 10t-12.5 33v608q0 23 12.5 33t33.5 10h396q20 0 28.5 -9.5t8.5 -28.5t-8.5 -29t-28.5 -10h-354v-224h335q20 0 28.5 -9.5t8.5 -28.5t-8.5 -29t-28.5 -10h-335zM329 747
q-39 0 -67.5 11.5t-46.5 28.5t-27 36t-9 35q0 17 12 25.5t32 8.5q21 0 32 -20q5 -9 10.5 -19.5t14 -19.5t21 -15t31.5 -6q17 0 29 6t20.5 14t14 17.5t9.5 17.5q7 13 15 19t22 6q19 0 30 -8.5t11 -23.5q0 -18 -9.5 -37.5t-29 -36.5t-48 -28t-67.5 -11z" />
    <glyph glyph-name="ebreve" unicode="&#x115;" horiz-adv-x="566" 
d="M290 446q-35 0 -61 -11.5t-44 -31t-28.5 -46t-13.5 -55.5h291q-3 28 -12.5 54.5t-27 46t-43.5 31.5t-61 12zM520 263q0 -36 -41 -36h-340q0 -81 40.5 -125t114.5 -44q29 0 50.5 7.5t36.5 18t24.5 21.5t15.5 19q7 10 13.5 15t19.5 5q14 0 27.5 -9t13.5 -24q0 -13 -11 -31
q-9 -14 -23.5 -30.5t-37 -31.5t-54.5 -25t-75 -10q-56 0 -101.5 19.5t-77.5 55t-49 85t-17 108.5q0 60 17 109t48.5 84.5t76 55t99.5 19.5q56 0 99 -19.5t72 -54t44 -81.5t15 -101zM293 572q-39 0 -67.5 11.5t-46.5 28.5t-27 36t-9 35q0 17 12 25.5t32 8.5q21 0 32 -20
q5 -9 10.5 -19.5t14 -19.5t21 -15t31.5 -6q17 0 29 6t20.5 14t14 17.5t9.5 17.5q7 13 15 19t22 6q19 0 30 -8.5t11 -23.5q0 -18 -9.5 -37.5t-29 -36.5t-48 -28t-67.5 -11z" />
    <glyph glyph-name="Edotaccent" unicode="&#x116;" horiz-adv-x="603" 
d="M171 316v-239h354q20 0 28.5 -9.5t8.5 -28.5t-8.5 -29t-28.5 -10h-396q-21 0 -33.5 10t-12.5 33v608q0 23 12.5 33t33.5 10h396q20 0 28.5 -9.5t8.5 -28.5t-8.5 -29t-28.5 -10h-354v-224h335q20 0 28.5 -9.5t8.5 -28.5t-8.5 -29t-28.5 -10h-335zM334 876q24 0 43.5 -14.5
t19.5 -44.5q0 -26 -17 -42t-46 -16q-28 0 -45 16t-17 42t17.5 42.5t44.5 16.5z" />
    <glyph glyph-name="edotaccent" unicode="&#x117;" horiz-adv-x="566" 
d="M290 446q-35 0 -61 -11.5t-44 -31t-28.5 -46t-13.5 -55.5h291q-3 28 -12.5 54.5t-27 46t-43.5 31.5t-61 12zM520 263q0 -36 -41 -36h-340q0 -81 40.5 -125t114.5 -44q29 0 50.5 7.5t36.5 18t24.5 21.5t15.5 19q7 10 13.5 15t19.5 5q14 0 27.5 -9t13.5 -24q0 -13 -11 -31
q-9 -14 -23.5 -30.5t-37 -31.5t-54.5 -25t-75 -10q-56 0 -101.5 19.5t-77.5 55t-49 85t-17 108.5q0 60 17 109t48.5 84.5t76 55t99.5 19.5q56 0 99 -19.5t72 -54t44 -81.5t15 -101zM294 712q24 0 43.5 -14.5t19.5 -44.5q0 -26 -17 -42t-46 -16q-28 0 -45 16t-17 42
t17.5 42.5t44.5 16.5z" />
    <glyph glyph-name="Eogonek" unicode="&#x118;" horiz-adv-x="603" 
d="M171 316v-239h354q20 0 28.5 -9.5t8.5 -28.5q0 -13 -3.5 -19.5t-10.5 -10.5t-16.5 -7.5t-22.5 -9.5q-39 -19 -63 -48t-24 -61q0 -30 15 -41.5t33 -11.5q11 0 18.5 2t13.5 4.5t11.5 4.5t12.5 2q9 0 15.5 -9.5t6.5 -22.5t-13 -25q-11 -10 -31 -16t-42 -6q-34 0 -57 9
t-36.5 23t-19.5 32.5t-6 37.5q0 24 8 45t21.5 38t29.5 30t33 21h-306q-21 0 -33.5 10t-12.5 33v608q0 23 12.5 33t33.5 10h396q20 0 28.5 -9.5t8.5 -28.5t-8.5 -29t-28.5 -10h-354v-224h335q20 0 28.5 -9.5t8.5 -28.5t-8.5 -29t-28.5 -10h-335z" />
    <glyph glyph-name="eogonek" unicode="&#x119;" horiz-adv-x="566" 
d="M520 263q0 -36 -41 -36h-340q0 -81 40.5 -125t114.5 -44q29 0 50.5 7.5t36.5 18t24.5 21.5t15.5 19q7 10 13.5 15.5t19.5 5.5q14 0 27.5 -9.5t13.5 -24.5q0 -13 -11 -31t-37 -40t-52 -40q-77 -53 -77 -117q0 -30 15 -41.5t33 -11.5q11 0 18.5 2t13.5 4.5t11.5 4.5t12.5 2
q9 0 15.5 -9.5t6.5 -22.5t-13 -25q-11 -10 -31 -16t-42 -6q-33 0 -56 8.5t-36.5 23t-19.5 32.5t-6 38q0 38 17.5 67t44.5 50h-8q-56 0 -101.5 19.5t-77.5 55t-49 85t-17 108.5q0 60 17 109t48.5 84.5t76 55t99.5 19.5q56 0 99 -19.5t72 -54t44 -81.5t15 -101zM290 446
q-35 0 -61 -11.5t-44 -31t-28.5 -46t-13.5 -55.5h291q-3 28 -12.5 54.5t-27 46t-43.5 31.5t-61 12z" />
    <glyph glyph-name="Ecaron" unicode="&#x11a;" horiz-adv-x="603" 
d="M171 316v-239h354q20 0 28.5 -9.5t8.5 -28.5t-8.5 -29t-28.5 -10h-396q-21 0 -33.5 10t-12.5 33v608q0 23 12.5 33t33.5 10h396q20 0 28.5 -9.5t8.5 -28.5t-8.5 -29t-28.5 -10h-354v-224h335q20 0 28.5 -9.5t8.5 -28.5t-8.5 -29t-28.5 -10h-335zM381 776
q-19 -16 -32.5 -24t-30.5 -8q-15 0 -28 7t-31 24l-76 69q-8 7 -9.5 14t-1.5 13q0 14 10.5 23.5t24.5 9.5t22.5 -6t18.5 -14l72 -65l73 64q11 8 20 14.5t23 6.5t24.5 -9t10.5 -23q0 -8 -2 -14.5t-9 -13.5z" />
    <glyph glyph-name="ecaron" unicode="&#x11b;" horiz-adv-x="566" 
d="M290 446q-35 0 -61 -11.5t-44 -31t-28.5 -46t-13.5 -55.5h291q-3 28 -12.5 54.5t-27 46t-43.5 31.5t-61 12zM520 263q0 -36 -41 -36h-340q0 -81 40.5 -125t114.5 -44q29 0 50.5 7.5t36.5 18t24.5 21.5t15.5 19q7 10 13.5 15t19.5 5q14 0 27.5 -9t13.5 -24q0 -13 -11 -31
q-9 -14 -23.5 -30.5t-37 -31.5t-54.5 -25t-75 -10q-56 0 -101.5 19.5t-77.5 55t-49 85t-17 108.5q0 60 17 109t48.5 84.5t76 55t99.5 19.5q56 0 99 -19.5t72 -54t44 -81.5t15 -101zM154 685q-13 13 -13 30q0 14 9.5 22.5t23.5 8.5t23.5 -5.5t19.5 -15.5l74 -78l75 78
q8 10 17.5 15.5t22.5 5.5q14 0 24 -8.5t10 -22.5q0 -6 -2.5 -14t-9.5 -16l-73 -79q-31 -34 -65 -34q-31 0 -62 34z" />
    <glyph glyph-name="Gcircumflex" unicode="&#x11c;" horiz-adv-x="730" 
d="M608 622q18 -21 31 -43t13 -42q0 -11 -5 -18t-12 -11.5t-15 -6t-15 -1.5q-13 0 -20.5 6.5t-17.5 22.5q-32 54 -76 78.5t-105 24.5q-54 0 -98 -18t-75.5 -54.5t-49 -91t-17.5 -127.5q0 -136 56.5 -207.5t168.5 -71.5q30 0 68 8t72.5 32t58 69t23.5 119h-173
q-20 0 -28.5 10t-8.5 29t8.5 28.5t28.5 9.5h204q21 0 33.5 -10t12.5 -33v-296q0 -20 -10 -27.5t-28 -7.5q-19 0 -28.5 7.5t-9.5 27.5v69q-13 -17 -31.5 -37t-46.5 -37t-66.5 -28.5t-92.5 -11.5q-73 0 -130 25t-96 71.5t-59.5 112.5t-20.5 149q0 71 18.5 138t59 118.5
t104 82.5t153.5 31q67 0 125.5 -22.5t96.5 -66.5zM311 871q19 16 32.5 24t30.5 8q15 0 28 -7t31 -24l76 -69q8 -7 9.5 -14t1.5 -13q0 -14 -10 -23t-24 -9t-23 5.5t-19 13.5l-71 63l-74 -62q-11 -8 -21 -14t-24 -6t-23.5 8.5t-9.5 22.5q0 8 2 14.5t9 13.5z" />
    <glyph glyph-name="gcircumflex" unicode="&#x11d;" horiz-adv-x="595" 
d="M141 256q0 -88 37.5 -137t109.5 -49q73 0 111 52t38 136q0 90 -40 137.5t-112 47.5t-108 -50t-36 -137zM434 80q-20 -34 -61 -59.5t-102 -25.5q-53 0 -93.5 19t-69 53.5t-43 83.5t-14.5 108q0 57 14.5 104.5t43 82t69 54t93.5 19.5q31 0 58 -8t48 -21t36.5 -29.5
t24.5 -33.5v44q0 22 10.5 30t30.5 8t30 -8t10 -30v-456q0 -66 -17.5 -111.5t-48 -73.5t-73 -40.5t-93.5 -12.5q-42 0 -77.5 7.5t-60.5 18.5q-26 12 -42.5 24.5t-16.5 31.5q0 9 4.5 17.5t9.5 14.5q4 5 11 9.5t16 4.5t17 -5l7 -4q29 -17 62 -31t77 -14q61 0 100.5 36t39.5 119
v74zM235 712q17 18 32 26t30 8q17 0 32.5 -8t32.5 -26l73 -79q7 -8 9.5 -16t2.5 -14q0 -14 -10 -22.5t-24 -8.5q-13 0 -22.5 5.5t-17.5 15.5l-75 78l-74 -78q-10 -10 -19.5 -15.5t-23.5 -5.5t-23.5 8.5t-9.5 22.5q0 17 13 30z" />
    <glyph glyph-name="Gbreve" unicode="&#x11e;" horiz-adv-x="730" 
d="M608 622q18 -21 31 -43t13 -42q0 -11 -5 -18t-12 -11.5t-15 -6t-15 -1.5q-13 0 -20.5 6.5t-17.5 22.5q-32 54 -76 78.5t-105 24.5q-54 0 -98 -18t-75.5 -54.5t-49 -91t-17.5 -127.5q0 -136 56.5 -207.5t168.5 -71.5q30 0 68 8t72.5 32t58 69t23.5 119h-173
q-20 0 -28.5 10t-8.5 29t8.5 28.5t28.5 9.5h204q21 0 33.5 -10t12.5 -33v-296q0 -20 -10 -27.5t-28 -7.5q-19 0 -28.5 7.5t-9.5 27.5v69q-13 -17 -31.5 -37t-46.5 -37t-66.5 -28.5t-92.5 -11.5q-73 0 -130 25t-96 71.5t-59.5 112.5t-20.5 149q0 71 18.5 138t59 118.5
t104 82.5t153.5 31q67 0 125.5 -22.5t96.5 -66.5zM377 747q-39 0 -67.5 11.5t-46.5 28.5t-27 36t-9 35q0 17 12 25.5t32 8.5q21 0 32 -20q5 -9 10.5 -19.5t14 -19.5t21 -15t31.5 -6q17 0 29 6t20.5 14t14 17.5t9.5 17.5q7 13 15 19t22 6q19 0 30 -8.5t11 -23.5
q0 -18 -9.5 -37.5t-29 -36.5t-48 -28t-67.5 -11z" />
    <glyph glyph-name="gbreve" unicode="&#x11f;" horiz-adv-x="595" 
d="M141 256q0 -88 37.5 -137t109.5 -49q73 0 111 52t38 136q0 90 -40 137.5t-112 47.5t-108 -50t-36 -137zM434 80q-20 -34 -61 -59.5t-102 -25.5q-53 0 -93.5 19t-69 53.5t-43 83.5t-14.5 108q0 57 14.5 104.5t43 82t69 54t93.5 19.5q31 0 58 -8t48 -21t36.5 -29.5
t24.5 -33.5v44q0 22 10.5 30t30.5 8t30 -8t10 -30v-456q0 -66 -17.5 -111.5t-48 -73.5t-73 -40.5t-93.5 -12.5q-42 0 -77.5 7.5t-60.5 18.5q-26 12 -42.5 24.5t-16.5 31.5q0 9 4.5 17.5t9.5 14.5q4 5 11 9.5t16 4.5t17 -5l7 -4q29 -17 62 -31t77 -14q61 0 100.5 36t39.5 119
v74zM291 572q-39 0 -67.5 11.5t-46.5 28.5t-27 36t-9 35q0 17 12 25.5t32 8.5q21 0 32 -20q5 -9 10.5 -19.5t14 -19.5t21 -15t31.5 -6q17 0 29 6t20.5 14t14 17.5t9.5 17.5q7 13 15 19t22 6q19 0 30 -8.5t11 -23.5q0 -18 -9.5 -37.5t-29 -36.5t-48 -28t-67.5 -11z" />
    <glyph glyph-name="Gdotaccent" unicode="&#x120;" horiz-adv-x="730" 
d="M608 622q18 -21 31 -43t13 -42q0 -11 -5 -18t-12 -11.5t-15 -6t-15 -1.5q-13 0 -20.5 6.5t-17.5 22.5q-32 54 -76 78.5t-105 24.5q-54 0 -98 -18t-75.5 -54.5t-49 -91t-17.5 -127.5q0 -136 56.5 -207.5t168.5 -71.5q30 0 68 8t72.5 32t58 69t23.5 119h-173
q-20 0 -28.5 10t-8.5 29t8.5 28.5t28.5 9.5h204q21 0 33.5 -10t12.5 -33v-296q0 -20 -10 -27.5t-28 -7.5q-19 0 -28.5 7.5t-9.5 27.5v69q-13 -17 -31.5 -37t-46.5 -37t-66.5 -28.5t-92.5 -11.5q-73 0 -130 25t-96 71.5t-59.5 112.5t-20.5 149q0 71 18.5 138t59 118.5
t104 82.5t153.5 31q67 0 125.5 -22.5t96.5 -66.5zM378 876q24 0 43.5 -14.5t19.5 -44.5q0 -26 -17 -42t-46 -16q-28 0 -45 16t-17 42t17.5 42.5t44.5 16.5z" />
    <glyph glyph-name="gdotaccent" unicode="&#x121;" horiz-adv-x="595" 
d="M141 256q0 -88 37.5 -137t109.5 -49q73 0 111 52t38 136q0 90 -40 137.5t-112 47.5t-108 -50t-36 -137zM434 80q-20 -34 -61 -59.5t-102 -25.5q-53 0 -93.5 19t-69 53.5t-43 83.5t-14.5 108q0 57 14.5 104.5t43 82t69 54t93.5 19.5q31 0 58 -8t48 -21t36.5 -29.5
t24.5 -33.5v44q0 22 10.5 30t30.5 8t30 -8t10 -30v-456q0 -66 -17.5 -111.5t-48 -73.5t-73 -40.5t-93.5 -12.5q-42 0 -77.5 7.5t-60.5 18.5q-26 12 -42.5 24.5t-16.5 31.5q0 9 4.5 17.5t9.5 14.5q4 5 11 9.5t16 4.5t17 -5l7 -4q29 -17 62 -31t77 -14q61 0 100.5 36t39.5 119
v74zM293 712q24 0 43.5 -14.5t19.5 -44.5q0 -26 -17 -42t-46 -16q-28 0 -45 16t-17 42t17.5 42.5t44.5 16.5z" />
    <glyph glyph-name="Gcommaaccent" unicode="&#x122;" horiz-adv-x="730" 
d="M608 622q18 -21 31 -43t13 -42q0 -11 -5 -18t-12 -11.5t-15 -6t-15 -1.5q-13 0 -20.5 6.5t-17.5 22.5q-32 54 -76 78.5t-105 24.5q-54 0 -98 -18t-75.5 -54.5t-49 -91t-17.5 -127.5q0 -136 56.5 -207.5t168.5 -71.5q30 0 68 8t72.5 32t58 69t23.5 119h-173
q-20 0 -28.5 10t-8.5 29t8.5 28.5t28.5 9.5h204q21 0 33.5 -10t12.5 -33v-296q0 -20 -10 -27.5t-28 -7.5q-19 0 -28.5 7.5t-9.5 27.5v69q-13 -17 -31.5 -37t-46.5 -37t-66.5 -28.5t-92.5 -11.5q-73 0 -130 25t-96 71.5t-59.5 112.5t-20.5 149q0 71 18.5 138t59 118.5
t104 82.5t153.5 31q67 0 125.5 -22.5t96.5 -66.5zM313 -112q9 29 20 43t34 14q20 0 32.5 -10t12.5 -28q0 -16 -9 -32l-52 -103q-8 -15 -17 -26t-25 -11q-19 0 -25.5 9t-6.5 20q0 8 1 13t3 9z" />
    <glyph glyph-name="gcommaaccent" unicode="&#x123;" horiz-adv-x="595" 
d="M141 256q0 -88 37.5 -137t109.5 -49q73 0 111 52t38 136q0 90 -40 137.5t-112 47.5t-108 -50t-36 -137zM434 80q-20 -34 -61 -59.5t-102 -25.5q-53 0 -93.5 19t-69 53.5t-43 83.5t-14.5 108q0 57 14.5 104.5t43 82t69 54t93.5 19.5q31 0 58 -8t48 -21t36.5 -29.5
t24.5 -33.5v44q0 22 10.5 30t30.5 8t30 -8t10 -30v-456q0 -66 -17.5 -111.5t-48 -73.5t-73 -40.5t-93.5 -12.5q-42 0 -77.5 7.5t-60.5 18.5q-26 12 -42.5 24.5t-16.5 31.5q0 9 4.5 17.5t9.5 14.5q4 5 11 9.5t16 4.5t17 -5l7 -4q29 -17 62 -31t77 -14q61 0 100.5 36t39.5 119
v74zM333 629q-9 -29 -20 -43t-34 -14q-20 0 -32.5 10t-12.5 28q0 16 9 32l52 103q8 15 17 26t25 11q19 0 25.5 -9t6.5 -20q0 -8 -1 -13t-3 -9z" />
    <glyph glyph-name="Hcircumflex" unicode="&#x124;" horiz-adv-x="721" 
d="M83 660q0 23 12 32t33 9t32.5 -9t11.5 -32v-253h377v253q0 23 11.5 32t32.5 9t33 -9t12 -32v-626q0 -23 -12 -32t-33 -9t-32.5 9t-11.5 32v296h-377v-296q0 -23 -11.5 -32t-32.5 -9t-33 9t-12 32v626zM309 871q19 16 32.5 24t30.5 8q15 0 28 -7t31 -24l76 -69
q8 -7 9.5 -14t1.5 -13q0 -14 -10 -23t-24 -9t-23 5.5t-19 13.5l-71 63l-74 -62q-11 -8 -21 -14t-24 -6t-23.5 8.5t-9.5 22.5q0 8 2 14.5t9 13.5z" />
    <glyph glyph-name="hcircumflex" unicode="&#x125;" horiz-adv-x="582" 
d="M161 430q14 26 37 44q27 23 61.5 34t69.5 11q79 0 128 -44t49 -135v-312q0 -35 -41 -35q-44 0 -44 35v291q0 60 -24.5 90.5t-88.5 30.5q-39 0 -67 -17.5t-45.5 -45.5t-26 -63t-8.5 -69v-212q0 -23 -11.5 -31.5t-31.5 -8.5t-31 8.5t-11 31.5v628q0 23 11 31.5t31 8.5
t31.5 -8.5t11.5 -31.5v-231zM169 872q17 18 32 26t30 8q17 0 32.5 -8t32.5 -26l73 -79q7 -8 9.5 -16t2.5 -14q0 -14 -10 -22.5t-24 -8.5q-13 0 -22.5 5.5t-17.5 15.5l-75 78l-74 -78q-10 -10 -19.5 -15.5t-23.5 -5.5t-23.5 8.5t-9.5 22.5q0 17 13 30z" />
    <glyph glyph-name="Hbar" unicode="&#x126;" horiz-adv-x="721" 
d="M83 660q0 23 12 32t33 9t32.5 -9t11.5 -32v-69h377v69q0 23 11.5 32t32.5 9t33 -9t12 -32v-69h47q20 0 27.5 -9t7.5 -29q0 -21 -9 -28.5t-29 -7.5h-44v-485q0 -23 -12 -32t-33 -9t-32.5 9t-11.5 32v298h-377v-298q0 -23 -11.5 -32t-32.5 -9t-33 9t-12 32v485h-50
q-17 0 -25.5 7.5t-8.5 28.5q0 20 7.5 29t27.5 9h49v69zM549 407v110h-377v-110h377z" />
    <glyph glyph-name="hbar" unicode="&#x127;" horiz-adv-x="582" 
d="M161 411q13 25 37 44q20 17 52 31t79 14q79 0 128 -44t49 -135v-294q0 -35 -41 -35q-44 0 -44 35v273q0 59 -24.5 90t-88.5 31q-39 0 -67 -17.5t-45.5 -45.5t-26 -63t-8.5 -69v-194q0 -23 -11.5 -31.5t-31.5 -8.5t-31 8.5t-11 31.5v518h-43q-20 0 -27 9.5t-7 26.5t7 26.5
t27 9.5h43v39q0 23 11 31.5t31 8.5t31.5 -8.5t11.5 -31.5v-39h149q20 0 27 -9.5t7 -26.5t-7 -26.5t-27 -9.5h-149v-139z" />
    <glyph glyph-name="Itilde" unicode="&#x128;" horiz-adv-x="254" 
d="M83 660q0 23 11.5 32t32.5 9t32.5 -9t11.5 -32v-626q0 -23 -11.5 -32t-32.5 -9t-32.5 9t-11.5 32v626zM206 760q-18 0 -32.5 3.5t-29.5 9.5l-38 15q-15 6 -27.5 10t-23.5 4q-18 0 -27.5 -7t-20.5 -20q-4 -5 -9.5 -9.5t-13.5 -4.5q-11 0 -20 6.5t-9 19.5q0 14 6.5 26
t14.5 23q16 19 36.5 31t42.5 12q18 0 33 -4.5t32 -11.5l37 -14q11 -5 25 -9t25 -4q20 0 28 6.5t16 20.5q4 7 9.5 12t13.5 5t18.5 -6t10.5 -17q0 -6 -2 -16q-8 -35 -35 -58t-60 -23z" />
    <glyph glyph-name="itilde" unicode="&#x129;" horiz-adv-x="237" 
d="M76 469q0 23 11 31.5t31 8.5t31.5 -8.5t11.5 -31.5v-437q0 -23 -11.5 -31.5t-31.5 -8.5t-31 8.5t-11 31.5v437zM198 596q-18 0 -32.5 3.5t-29.5 9.5l-38 15q-15 6 -27.5 10t-23.5 4q-18 0 -27.5 -7t-20.5 -20q-4 -5 -9.5 -9.5t-13.5 -4.5q-11 0 -20 6.5t-9 19.5
q0 14 6.5 26t14.5 23q16 19 36.5 31t42.5 12q18 0 33 -4.5t32 -11.5l37 -14q11 -5 25 -9t25 -4q20 0 28 6.5t16 20.5q4 7 9.5 12t13.5 5t18.5 -6t10.5 -17q0 -6 -2 -16q-8 -35 -35 -58t-60 -23z" />
    <glyph glyph-name="Imacron" unicode="&#x12a;" horiz-adv-x="254" 
d="M83 660q0 23 11.5 32t32.5 9t32.5 -9t11.5 -32v-626q0 -23 -11.5 -32t-32.5 -9t-32.5 9t-11.5 32v626zM17 768q-17 0 -25.5 8t-8.5 31q0 21 7.5 30.5t27.5 9.5h222q20 0 27.5 -9.5t7.5 -30.5q0 -23 -9 -31t-29 -8h-220z" />
    <glyph glyph-name="imacron" unicode="&#x12b;" horiz-adv-x="237" 
d="M76 469q0 23 11 31.5t31 8.5t31.5 -8.5t11.5 -31.5v-437q0 -23 -11.5 -31.5t-31.5 -8.5t-31 8.5t-11 31.5v437zM9 615q-17 0 -25.5 8t-8.5 31q0 21 7.5 30.5t27.5 9.5h222q20 0 27.5 -9.5t7.5 -30.5q0 -23 -9 -31t-29 -8h-220z" />
    <glyph glyph-name="Ibreve" unicode="&#x12c;" horiz-adv-x="254" 
d="M83 660q0 23 11.5 32t32.5 9t32.5 -9t11.5 -32v-626q0 -23 -11.5 -32t-32.5 -9t-32.5 9t-11.5 32v626zM129 747q-39 0 -67.5 11.5t-46.5 28.5t-27 36t-9 35q0 17 12 25.5t32 8.5q21 0 32 -20q5 -9 10.5 -19.5t14 -19.5t21 -15t31.5 -6q17 0 29 6t20.5 14t14 17.5
t9.5 17.5q7 13 15 19t22 6q19 0 30 -8.5t11 -23.5q0 -18 -9.5 -37.5t-29 -36.5t-48 -28t-67.5 -11z" />
    <glyph glyph-name="ibreve" unicode="&#x12d;" horiz-adv-x="237" 
d="M76 469q0 23 11 31.5t31 8.5t31.5 -8.5t11.5 -31.5v-437q0 -23 -11.5 -31.5t-31.5 -8.5t-31 8.5t-11 31.5v437zM119 572q-39 0 -67.5 11.5t-46.5 28.5t-27 36t-9 35q0 17 12 25.5t32 8.5q21 0 32 -20q5 -9 10.5 -19.5t14 -19.5t21 -15t31.5 -6q17 0 29 6t20.5 14t14 17.5
t9.5 17.5q7 13 15 19t22 6q19 0 30 -8.5t11 -23.5q0 -18 -9.5 -37.5t-29 -36.5t-48 -28t-67.5 -11z" />
    <glyph glyph-name="Iogonek" unicode="&#x12e;" horiz-adv-x="254" 
d="M83 660q0 23 11.5 32t32.5 9t32.5 -9t11.5 -32v-628q0 -16 -4.5 -24t-13.5 -15q-33 -25 -50.5 -51.5t-17.5 -58.5q0 -30 15 -41.5t33 -11.5q11 0 18.5 2t13.5 4.5t11.5 4.5t12.5 2q9 0 15.5 -9.5t6.5 -22.5t-13 -25q-11 -10 -31 -16t-42 -6q-33 0 -56 8.5t-37 23t-20 33
t-6 38.5q0 49 23.5 80t53.5 54v659z" />
    <glyph glyph-name="iogonek" unicode="&#x12f;" horiz-adv-x="237" 
d="M76 469q0 23 11 31.5t31 8.5t31.5 -8.5t11.5 -31.5v-437q0 -15 -4.5 -24t-12.5 -14q-35 -24 -52.5 -52.5t-17.5 -58.5t15 -41.5t33 -11.5q11 0 18.5 2t13.5 4.5t11.5 4.5t12.5 2q9 0 15.5 -9.5t6.5 -22.5t-13 -25q-11 -10 -31 -16t-42 -6q-33 0 -56 8.5t-36.5 22.5
t-19.5 32.5t-6 38.5q0 48 24.5 81t55.5 55v467zM64 647q0 26 15.5 40.5t38.5 14.5t38.5 -14.5t15.5 -40.5t-15.5 -40.5t-38.5 -14.5t-38.5 14.5t-15.5 40.5z" />
    <glyph glyph-name="Idotaccent" unicode="&#x130;" horiz-adv-x="254" 
d="M83 660q0 23 11.5 32t32.5 9t32.5 -9t11.5 -32v-626q0 -23 -11.5 -32t-32.5 -9t-32.5 9t-11.5 32v626zM129 876q24 0 43.5 -14.5t19.5 -44.5q0 -26 -17 -42t-46 -16q-28 0 -45 16t-17 42t17.5 42.5t44.5 16.5z" />
    <glyph glyph-name="dotlessi" unicode="&#x131;" horiz-adv-x="237" 
d="M76 469q0 23 11 31.5t31 8.5t31.5 -8.5t11.5 -31.5v-437q0 -23 -11.5 -31.5t-31.5 -8.5t-31 8.5t-11 31.5v437z" />
    <glyph glyph-name="IJ" unicode="&#x132;" horiz-adv-x="254" 
d="M83 660q0 23 11.5 32t32.5 9t32.5 -9t11.5 -32v-626q0 -23 -11.5 -32t-32.5 -9t-32.5 9t-11.5 32v626zM490 59q71 0 99.5 40.5t28.5 126.5v434q0 23 11.5 32t32.5 9t32.5 -9t11.5 -32v-433q0 -127 -56.5 -185.5t-169.5 -58.5q-49 0 -83 13t-56.5 31.5t-36.5 40t-22 39.5
q-9 21 -9 38q0 22 16.5 31.5t32.5 9.5t24 -10t16 -26q9 -18 20.5 -34.5t26.5 -29t34.5 -20t46.5 -7.5z" />
    <glyph glyph-name="ij" unicode="&#x133;" horiz-adv-x="495" 
d="M76 469q0 23 11 31.5t31 8.5t31.5 -8.5t11.5 -31.5v-436q0 -23 -11.5 -31.5t-31.5 -8.5t-31 8.5t-11 31.5v436zM64 647q0 26 15.5 40.5t38.5 14.5t38.5 -14.5t15.5 -40.5t-15.5 -40.5t-38.5 -14.5t-38.5 14.5t-15.5 40.5zM419 -84q0 -62 -38 -100.5t-107 -38.5
q-23 0 -44.5 4t-38 11.5t-26.5 18t-10 22.5q0 17 10.5 29t24.5 12q9 0 16.5 -3.5t16.5 -8t20 -8t26 -3.5q29 0 47 16t18 60v542q0 23 11 31.5t31 8.5t31.5 -8.5t11.5 -31.5v-553zM322 647q0 26 15.5 40.5t38.5 14.5t38.5 -14.5t15.5 -40.5t-15.5 -40.5t-38.5 -14.5
t-38.5 14.5t-15.5 40.5z" />
    <glyph glyph-name="Jcircumflex" unicode="&#x134;" horiz-adv-x="537" 
d="M245 59q71 0 99.5 40.5t28.5 126.5v434q0 23 11.5 32t32.5 9t32.5 -9t11.5 -32v-433q0 -127 -56.5 -185.5t-169.5 -58.5q-49 0 -83 13t-56.5 31.5t-36.5 40t-22 39.5q-9 21 -9 38q0 22 16.5 31.5t32.5 9.5t24 -10t16 -26q9 -18 20.5 -34.5t26.5 -29t34.5 -20t46.5 -7.5z
M358 871q19 16 32.5 24t30.5 8q15 0 28 -7t31 -24l76 -69q8 -7 9.5 -14t1.5 -13q0 -14 -10 -23t-24 -9t-23 5.5t-19 13.5l-71 63l-74 -62q-11 -8 -21 -14t-24 -6t-23.5 8.5t-9.5 22.5q0 8 2 14.5t9 13.5z" />
    <glyph glyph-name="jcircumflex" unicode="&#x135;" horiz-adv-x="237" 
d="M161 -84q0 -62 -38 -100.5t-107 -38.5q-23 0 -44.5 4t-38 11.5t-26.5 18t-10 22.5q0 17 10.5 29t24.5 12q9 0 16.5 -3.5t16.5 -8t20 -8t26 -3.5q29 0 47 16t18 60v542q0 23 11 31.5t31 8.5t31.5 -8.5t11.5 -31.5v-553zM59 712q17 18 32 26t30 8q17 0 32.5 -8t32.5 -26
l73 -79q7 -8 9.5 -16t2.5 -14q0 -14 -10 -22.5t-24 -8.5q-13 0 -22.5 5.5t-17.5 15.5l-75 78l-74 -78q-10 -10 -19.5 -15.5t-23.5 -5.5t-23.5 8.5t-9.5 22.5q0 17 13 30z" />
    <glyph glyph-name="Kcommaaccent" unicode="&#x136;" horiz-adv-x="636" 
d="M162 34q0 -23 -11.5 -32t-32.5 -9q-22 0 -33.5 9t-11.5 32v626q0 23 11.5 32t33.5 9q21 0 32.5 -9t11.5 -32v-297l338 322q16 16 32 16q18 0 30.5 -13t12.5 -27q0 -5 -3.5 -13t-14.5 -19l-226 -217l275 -351q7 -9 8.5 -16t1.5 -11q0 -8 -4.5 -15.5t-11.5 -13t-15 -9
t-15 -3.5q-23 0 -42 24l-262 337l-104 -98v-222zM281 -112q9 29 20 43t34 14q20 0 32.5 -10t12.5 -28q0 -16 -9 -32l-52 -103q-8 -15 -17 -26t-25 -11q-19 0 -25.5 9t-6.5 20q0 8 1 13t3 9z" />
    <glyph glyph-name="kcommaaccent" unicode="&#x137;" horiz-adv-x="525" 
d="M161 300l240 196q7 5 13.5 9t14.5 4q17 0 28.5 -11.5t11.5 -25.5q0 -5 -2.5 -12.5t-13.5 -16.5l-141 -117l179 -270q5 -8 7 -15.5t2 -10.5q-1 -17 -17 -27t-33 -10q-9 0 -16 3.5t-16 17.5l-172 262l-85 -72v-171q0 -23 -11.5 -31.5t-31.5 -8.5t-31 8.5t-11 31.5v628
q0 23 11 31.5t31 8.5t31.5 -8.5t11.5 -31.5v-361zM230 -112q9 29 20 43t34 14q20 0 32.5 -10t12.5 -28q0 -16 -9 -32l-52 -103q-8 -15 -17 -26t-25 -11q-19 0 -25.5 9t-6.5 20q0 8 1 13t3 9z" />
    <glyph glyph-name="kgreenlandic" unicode="&#x138;" horiz-adv-x="527" 
d="M161 280l250 216q7 5 13.5 9t14.5 4q17 0 28.5 -11.5t11.5 -25.5q0 -5 -2.5 -12t-13.5 -17l-155 -134l183 -254q6 -8 7.5 -15.5t1.5 -10.5q0 -17 -15 -27t-30 -10q-13 0 -20.5 5.5t-17.5 19.5l-171 241l-85 -76v-150q0 -23 -11.5 -31.5t-31.5 -8.5t-31 8.5t-11 31.5v437
q0 23 11 31.5t31 8.5t31.5 -8.5t11.5 -31.5v-189z" />
    <glyph glyph-name="Lacute" unicode="&#x139;" horiz-adv-x="563" 
d="M83 660q0 23 11.5 32t32.5 9t32.5 -9t11.5 -32v-583h334q20 0 28.5 -9.5t8.5 -28.5t-8.5 -29t-28.5 -10h-376q-21 0 -33.5 10t-12.5 33v617zM137 868q16 12 30.5 19.5t28.5 7.5q20 0 31.5 -13t11.5 -30q0 -14 -7.5 -23.5t-24.5 -18.5l-99 -53q-9 -5 -19.5 -9t-23.5 -4
q-14 0 -23 8t-9 22q0 11 4 17.5t15 14.5z" />
    <glyph glyph-name="lacute" unicode="&#x13a;" horiz-adv-x="237" 
d="M76 661q0 23 11 31.5t31 8.5t31.5 -8.5t11.5 -31.5v-628q0 -23 -11.5 -31.5t-31.5 -8.5t-31 8.5t-11 31.5v628zM126 868q16 12 30.5 19.5t28.5 7.5q20 0 31.5 -13t11.5 -30q0 -14 -7.5 -23.5t-24.5 -18.5l-99 -53q-9 -5 -19.5 -9t-23.5 -4q-14 0 -23 8t-9 22q0 11 4 17.5
t15 14.5z" />
    <glyph glyph-name="Lcommaaccent" unicode="&#x13b;" horiz-adv-x="563" 
d="M83 660q0 23 11.5 32t32.5 9t32.5 -9t11.5 -32v-583h334q20 0 28.5 -9.5t8.5 -28.5t-8.5 -29t-28.5 -10h-376q-21 0 -33.5 10t-12.5 33v617zM248 -112q9 29 20 43t34 14q20 0 32.5 -10t12.5 -28q0 -16 -9 -32l-52 -103q-8 -15 -17 -26t-25 -11q-19 0 -25.5 9t-6.5 20
q0 8 1 13t3 9z" />
    <glyph glyph-name="lcommaaccent" unicode="&#x13c;" horiz-adv-x="237" 
d="M76 661q0 23 11 31.5t31 8.5t31.5 -8.5t11.5 -31.5v-628q0 -23 -11.5 -31.5t-31.5 -8.5t-31 8.5t-11 31.5v628zM55 -112q9 29 20 43t34 14q20 0 32.5 -10t12.5 -28q0 -16 -9 -32l-52 -103q-8 -15 -17 -26t-25 -11q-19 0 -25.5 9t-6.5 20q0 8 1 13t3 9z" />
    <glyph glyph-name="Lcaron" unicode="&#x13d;" horiz-adv-x="563" 
d="M83 660q0 23 11.5 32t32.5 9t32.5 -9t11.5 -32v-583h334q20 0 28.5 -9.5t8.5 -28.5t-8.5 -29t-28.5 -10h-376q-21 0 -33.5 10t-12.5 33v617zM268 636q0 3 -0.5 8.5t-0.5 8.5q0 48 48 48q26 0 35.5 -11.5t9.5 -33.5v-11q0 -5 -1 -10l-11 -119q-2 -20 -8.5 -32.5
t-27.5 -12.5q-19 0 -26.5 11t-9.5 34z" />
    <glyph glyph-name="lcaron" unicode="&#x13e;" horiz-adv-x="270" 
d="M76 661q0 23 11 31.5t31 8.5t31.5 -8.5t11.5 -31.5v-628q0 -23 -11.5 -31.5t-31.5 -8.5t-31 8.5t-11 31.5v628zM208 636q0 3 -0.5 8.5t-0.5 8.5q0 48 48 48q26 0 35.5 -11.5t9.5 -33.5v-11q0 -5 -1 -10l-11 -119q-2 -20 -8.5 -32.5t-27.5 -12.5q-19 0 -26.5 11t-9.5 34z
" />
    <glyph glyph-name="Ldot" unicode="&#x13f;" horiz-adv-x="563" 
d="M83 660q0 23 11.5 32t32.5 9t32.5 -9t11.5 -32v-583h334q20 0 28.5 -9.5t8.5 -28.5t-8.5 -29t-28.5 -10h-376q-21 0 -33.5 10t-12.5 33v617zM408 410q24 0 43.5 -14.5t19.5 -44.5q0 -26 -17 -42t-46 -16q-28 0 -45 16t-17 42t17.5 42.5t44.5 16.5z" />
    <glyph glyph-name="ldot" unicode="&#x140;" horiz-adv-x="337" 
d="M76 661q0 23 11 31.5t31 8.5t31.5 -8.5t11.5 -31.5v-628q0 -23 -11.5 -31.5t-31.5 -8.5t-31 8.5t-11 31.5v628zM285 422q24 0 43.5 -14.5t19.5 -44.5q0 -26 -17 -42t-46 -16q-28 0 -45 16t-17 42t17.5 42.5t44.5 16.5z" />
    <glyph glyph-name="Lslash" unicode="&#x141;" horiz-adv-x="563" 
d="M83 660q0 23 11.5 32t32.5 9t32.5 -9t11.5 -32v-251l151 92q14 8 23 8q15 0 29 -20q8 -13 8 -23q0 -17 -20 -30l-191 -117v-242h334q20 0 28.5 -9.5t8.5 -28.5t-8.5 -29t-28.5 -10h-376q-21 0 -33.5 10t-12.5 33v231l-45 -27q-11 -7 -23 -7q-20 0 -32 20q-7 11 -7 22
q0 16 21 30l86 52v296z" />
    <glyph glyph-name="lslash" unicode="&#x142;" horiz-adv-x="311" 
d="M103 282l-54 -37q-13 -8 -25 -8q-19 0 -31 20q-7 11 -7 22q0 16 21 30l96 66v286q0 23 11 31.5t31 8.5t31.5 -8.5t11.5 -31.5v-240l68 45q12 8 23 8q15 0 29 -20q8 -13 8 -23q0 -17 -20 -30l-108 -72v-297q0 -23 -11.5 -31.5t-31.5 -8.5t-31 8.5t-11 31.5v250z" />
    <glyph glyph-name="Nacute" unicode="&#x143;" horiz-adv-x="719" 
d="M169 558v-526q0 -22 -11.5 -30.5t-31.5 -8.5t-31.5 8.5t-11.5 30.5v626q0 24 13.5 33.5t38.5 9.5q24 0 36.5 -10.5t23.5 -27.5l355 -529v528q0 22 11.5 30.5t31.5 8.5t31.5 -8.5t11.5 -30.5v-626q0 -24 -13.5 -33.5t-38.5 -9.5q-24 0 -36.5 10.5t-23.5 27.5zM389 868
q16 12 30.5 19.5t28.5 7.5q20 0 31.5 -13t11.5 -30q0 -14 -7.5 -23.5t-24.5 -18.5l-99 -53q-9 -5 -19.5 -9t-23.5 -4q-14 0 -23 8t-9 22q0 11 4 17.5t15 14.5z" />
    <glyph glyph-name="nacute" unicode="&#x144;" horiz-adv-x="582" 
d="M161 33q0 -23 -11.5 -31.5t-31.5 -8.5t-31 8.5t-11 31.5v438q0 22 10 30t30 8t30.5 -8t10.5 -30v-47q14 26 38 47q20 18 52.5 33t81.5 15q79 0 128 -44t49 -135v-312q0 -35 -41 -35q-44 0 -44 35v291q0 59 -24.5 90t-88.5 31q-39 0 -67 -17.5t-45.5 -45.5t-26 -62.5
t-8.5 -68.5v-213zM299 711q16 19 29 28.5t28 9.5q23 0 35 -13t12 -30q0 -16 -23 -37l-85 -76q-10 -9 -20 -15t-24 -6t-22.5 8t-8.5 21q0 16 13 30z" />
    <glyph glyph-name="Ncommaaccent" unicode="&#x145;" horiz-adv-x="719" 
d="M169 558v-526q0 -22 -11.5 -30.5t-31.5 -8.5t-31.5 8.5t-11.5 30.5v626q0 24 13.5 33.5t38.5 9.5q24 0 36.5 -10.5t23.5 -27.5l355 -529v528q0 22 11.5 30.5t31.5 8.5t31.5 -8.5t11.5 -30.5v-626q0 -24 -13.5 -33.5t-38.5 -9.5q-24 0 -36.5 10.5t-23.5 27.5zM326 -112
q9 29 20 43t34 14q20 0 32.5 -10t12.5 -28q0 -16 -9 -32l-52 -103q-8 -15 -17 -26t-25 -11q-19 0 -25.5 9t-6.5 20q0 8 1 13t3 9z" />
    <glyph glyph-name="ncommaaccent" unicode="&#x146;" horiz-adv-x="582" 
d="M161 33q0 -23 -11.5 -31.5t-31.5 -8.5t-31 8.5t-11 31.5v438q0 22 10 30t30 8t30.5 -8t10.5 -30v-47q14 26 38 47q20 18 52.5 33t81.5 15q79 0 128 -44t49 -135v-312q0 -35 -41 -35q-44 0 -44 35v291q0 59 -24.5 90t-88.5 31q-39 0 -67 -17.5t-45.5 -45.5t-26 -62.5
t-8.5 -68.5v-213zM238 -112q9 29 20 43t34 14q20 0 32.5 -10t12.5 -28q0 -16 -9 -32l-52 -103q-8 -15 -17 -26t-25 -11q-19 0 -25.5 9t-6.5 20q0 8 1 13t3 9z" />
    <glyph glyph-name="Ncaron" unicode="&#x147;" horiz-adv-x="719" 
d="M169 558v-526q0 -22 -11.5 -30.5t-31.5 -8.5t-31.5 8.5t-11.5 30.5v626q0 24 13.5 33.5t38.5 9.5q24 0 36.5 -10.5t23.5 -27.5l355 -529v528q0 22 11.5 30.5t31.5 8.5t31.5 -8.5t11.5 -30.5v-626q0 -24 -13.5 -33.5t-38.5 -9.5q-24 0 -36.5 10.5t-23.5 27.5zM429 776
q-19 -16 -32.5 -24t-30.5 -8q-15 0 -28 7t-31 24l-76 69q-8 7 -9.5 14t-1.5 13q0 14 10.5 23.5t24.5 9.5t22.5 -6t18.5 -14l72 -65l73 64q11 8 20 14.5t23 6.5t24.5 -9t10.5 -23q0 -8 -2 -14.5t-9 -13.5z" />
    <glyph glyph-name="ncaron" unicode="&#x148;" horiz-adv-x="582" 
d="M161 33q0 -23 -11.5 -31.5t-31.5 -8.5t-31 8.5t-11 31.5v438q0 22 10 30t30 8t30.5 -8t10.5 -30v-47q14 26 38 47q20 18 52.5 33t81.5 15q79 0 128 -44t49 -135v-312q0 -35 -41 -35q-44 0 -44 35v291q0 59 -24.5 90t-88.5 31q-39 0 -67 -17.5t-45.5 -45.5t-26 -62.5
t-8.5 -68.5v-213zM171 685q-13 13 -13 30q0 14 9.5 22.5t23.5 8.5t23.5 -5.5t19.5 -15.5l74 -78l75 78q8 10 17.5 15.5t22.5 5.5q14 0 24 -8.5t10 -22.5q0 -6 -2.5 -14t-9.5 -16l-73 -79q-31 -34 -65 -34q-31 0 -62 34z" />
    <glyph glyph-name="napostrophe" unicode="&#x149;" horiz-adv-x="734" 
d="M313 33q0 -23 -11.5 -31.5t-31.5 -8.5t-31 8.5t-11 31.5v438q0 22 10 30t30 8t30.5 -8t10.5 -30v-47q14 26 38 47q20 18 52.5 33t81.5 15q79 0 128 -44t49 -135v-312q0 -35 -41 -35q-44 0 -44 35v291q0 59 -24.5 90t-88.5 31q-39 0 -67 -17.5t-45.5 -45.5t-26 -62.5
t-8.5 -68.5v-213zM100 481q-7 -8 -12.5 -9.5t-9.5 -1.5q-13 0 -22.5 7t-9.5 18q0 5 1.5 10.5t9.5 15.5q11 14 22 31t13 38q-22 2 -35.5 16.5t-13.5 35.5q0 28 16 43.5t42 15.5t43.5 -18t17.5 -54q0 -30 -8.5 -55.5t-19.5 -45t-21 -32t-13 -15.5z" />
    <glyph glyph-name="Eng" unicode="&#x14a;" horiz-adv-x="719" 
d="M169 558v-528q0 -22 -11.5 -30.5t-31.5 -8.5t-31.5 8.5t-11.5 30.5v628q0 24 13.5 33.5t38.5 9.5q24 0 36.5 -10.5t23.5 -27.5l355 -529v528q0 22 11.5 30.5t31.5 8.5t31.5 -8.5t11.5 -30.5v-749q0 -60 -34.5 -98t-110.5 -38q-23 0 -44.5 4t-38 11.5t-26.5 18t-10 22.5
q0 17 10.5 29t24.5 12q9 0 16.5 -3.5t16.5 -8t20 -8t26 -3.5q27 0 46 15t19 55v68z" />
    <glyph glyph-name="eng" unicode="&#x14b;" horiz-adv-x="582" 
d="M161 32q0 -23 -11.5 -31.5t-31.5 -8.5t-31 8.5t-11 31.5v439q0 22 10 30t30 8t30.5 -8t10.5 -30v-51q14 27 38 48q20 18 52.5 33t81.5 15q79 0 128 -44t49 -135v-421q0 -62 -38 -100.5t-107 -38.5q-23 0 -44.5 4t-38 11.5t-26.5 18t-10 22.5q0 17 10.5 29t24.5 12
q9 0 16.5 -3.5t16.5 -8t20 -8t26 -3.5q27 0 46 15t19 55v395q0 59 -24.5 90t-88.5 31q-39 0 -67 -17.5t-45.5 -45.5t-26 -63t-8.5 -69v-210z" />
    <glyph glyph-name="Omacron" unicode="&#x14c;" horiz-adv-x="764" 
d="M713 347q0 -84 -24 -151.5t-67.5 -115t-104.5 -72.5t-135 -25t-135 25t-104.5 72.5t-67.5 115t-24 151.5t24 151.5t67.5 115t104.5 72.5t135 25t135 -25t104.5 -72.5t67.5 -115t24 -151.5zM146 347q0 -65 15 -117.5t45 -89.5t74 -57.5t102 -20.5t102 20.5t74 57.5
t45 89.5t15 117.5q0 64 -15 117t-45 90t-74 57.5t-102 20.5t-102 -20.5t-74 -57.5t-45 -90t-15 -117zM270 768q-17 0 -25.5 8t-8.5 31q0 21 7.5 30.5t27.5 9.5h222q20 0 27.5 -9.5t7.5 -30.5q0 -23 -9 -31t-29 -8h-220z" />
    <glyph glyph-name="omacron" unicode="&#x14d;" horiz-adv-x="588" 
d="M139 252q0 -91 40 -143t115 -52t115 52t40 143t-40 142t-115 51t-115 -51t-40 -142zM49 252q0 63 17.5 112.5t50 84t77.5 52.5t100 18t100 -18t77.5 -52.5t50 -84t17.5 -112.5t-17.5 -113t-50 -84.5t-77.5 -53t-100 -18.5t-100 18.5t-77.5 53t-50 84.5t-17.5 113z
M182 615q-17 0 -25.5 8t-8.5 31q0 21 7.5 30.5t27.5 9.5h222q20 0 27.5 -9.5t7.5 -30.5q0 -23 -9 -31t-29 -8h-220z" />
    <glyph glyph-name="Obreve" unicode="&#x14e;" horiz-adv-x="764" 
d="M713 347q0 -84 -24 -151.5t-67.5 -115t-104.5 -72.5t-135 -25t-135 25t-104.5 72.5t-67.5 115t-24 151.5t24 151.5t67.5 115t104.5 72.5t135 25t135 -25t104.5 -72.5t67.5 -115t24 -151.5zM146 347q0 -65 15 -117.5t45 -89.5t74 -57.5t102 -20.5t102 20.5t74 57.5
t45 89.5t15 117.5q0 64 -15 117t-45 90t-74 57.5t-102 20.5t-102 -20.5t-74 -57.5t-45 -90t-15 -117zM380 747q-39 0 -67.5 11.5t-46.5 28.5t-27 36t-9 35q0 17 12 25.5t32 8.5q21 0 32 -20q5 -9 10.5 -19.5t14 -19.5t21 -15t31.5 -6q17 0 29 6t20.5 14t14 17.5t9.5 17.5
q7 13 15 19t22 6q19 0 30 -8.5t11 -23.5q0 -18 -9.5 -37.5t-29 -36.5t-48 -28t-67.5 -11z" />
    <glyph glyph-name="obreve" unicode="&#x14f;" horiz-adv-x="588" 
d="M139 252q0 -91 40 -143t115 -52t115 52t40 143t-40 142t-115 51t-115 -51t-40 -142zM49 252q0 63 17.5 112.5t50 84t77.5 52.5t100 18t100 -18t77.5 -52.5t50 -84t17.5 -112.5t-17.5 -113t-50 -84.5t-77.5 -53t-100 -18.5t-100 18.5t-77.5 53t-50 84.5t-17.5 113z
M292 572q-39 0 -67.5 11.5t-46.5 28.5t-27 36t-9 35q0 17 12 25.5t32 8.5q21 0 32 -20q5 -9 10.5 -19.5t14 -19.5t21 -15t31.5 -6q17 0 29 6t20.5 14t14 17.5t9.5 17.5q7 13 15 19t22 6q19 0 30 -8.5t11 -23.5q0 -18 -9.5 -37.5t-29 -36.5t-48 -28t-67.5 -11z" />
    <glyph glyph-name="Ohungarumlaut" unicode="&#x150;" horiz-adv-x="764" 
d="M713 347q0 -84 -24 -151.5t-67.5 -115t-104.5 -72.5t-135 -25t-135 25t-104.5 72.5t-67.5 115t-24 151.5t24 151.5t67.5 115t104.5 72.5t135 25t135 -25t104.5 -72.5t67.5 -115t24 -151.5zM146 347q0 -65 15 -117.5t45 -89.5t74 -57.5t102 -20.5t102 20.5t74 57.5
t45 89.5t15 117.5q0 64 -15 117t-45 90t-74 57.5t-102 20.5t-102 -20.5t-74 -57.5t-45 -90t-15 -117zM531 868q16 12 30.5 19.5t28.5 7.5q20 0 31.5 -13t11.5 -30q0 -14 -7.5 -23.5t-24.5 -18.5l-99 -53q-9 -5 -19.5 -9t-23.5 -4q-14 0 -23 8t-9 22q0 11 4 17.5t15 14.5z
M293 868q16 12 30.5 19.5t28.5 7.5q20 0 31.5 -13t11.5 -30q0 -14 -7.5 -23.5t-24.5 -18.5l-99 -53q-9 -5 -19.5 -9t-23.5 -4q-14 0 -23 8t-9 22q0 11 4 17.5t15 14.5z" />
    <glyph glyph-name="ohungarumlaut" unicode="&#x151;" horiz-adv-x="588" 
d="M139 252q0 -91 40 -143t115 -52t115 52t40 143t-40 142t-115 51t-115 -51t-40 -142zM49 252q0 63 17.5 112.5t50 84t77.5 52.5t100 18t100 -18t77.5 -52.5t50 -84t17.5 -112.5t-17.5 -113t-50 -84.5t-77.5 -53t-100 -18.5t-100 18.5t-77.5 53t-50 84.5t-17.5 113z
M430 711q16 19 29 28.5t28 9.5q23 0 35 -13t12 -30q0 -16 -23 -37l-85 -76q-10 -9 -20 -15t-24 -6t-22.5 8t-8.5 21q0 16 13 30zM234 711q16 19 29 28.5t28 9.5q23 0 35 -13t12 -30q0 -16 -23 -37l-85 -76q-10 -9 -20 -15t-24 -6t-22.5 8t-8.5 21q0 16 13 30z" />
    <glyph glyph-name="OE" unicode="&#x152;" horiz-adv-x="1008" 
d="M576 316v-239h354q20 0 28.5 -9.5t8.5 -28.5t-8.5 -29t-28.5 -10h-389q-14 -3 -32.5 -6.5t-39 -5.5t-40.5 -3.5t-37 -1.5q-84 0 -148 25t-106.5 72t-64.5 114.5t-22 151.5t25 152t70.5 115t109.5 72.5t142 25.5q16 0 35.5 -1.5t38.5 -3.5t37 -5.5t31 -6.5h390
q20 0 28.5 -9.5t8.5 -28.5t-8.5 -29t-28.5 -10h-354v-224h335q20 0 28.5 -9.5t8.5 -28.5t-8.5 -29t-28.5 -10h-335zM146 346q0 -65 15 -117.5t44.5 -90.5t73.5 -58.5t103 -20.5q28 0 54 2.5t52 8.5v551q-55 11 -99 11q-60 0 -105.5 -20.5t-76 -58t-46 -90.5t-15.5 -117z" />
    <glyph glyph-name="oe" unicode="&#x153;" horiz-adv-x="960" 
d="M914 268q0 -35 -41 -35h-339q2 -88 41 -131.5t113 -43.5q29 0 50.5 7.5t36.5 18t24.5 21.5t15.5 19q7 10 13.5 15t19.5 5q14 0 27.5 -9t13.5 -24q0 -13 -11 -31q-9 -14 -23.5 -30.5t-37 -31.5t-54.5 -25t-75 -10q-69 0 -120.5 29.5t-77.5 82.5q-26 -52 -77 -82t-126 -30
q-53 0 -96.5 17.5t-75 51.5t-49 84t-17.5 114q0 63 17.5 113t50 85t77.5 53.5t100 18.5q69 0 120.5 -29.5t77.5 -83.5q27 52 76.5 82.5t120.5 30.5q54 0 96 -19.5t70.5 -54t43.5 -80.5t15 -98zM139 250q0 -93 40 -143t115 -50t114.5 51t39.5 142t-39.5 143.5t-114.5 52.5
t-115 -52.5t-40 -143.5zM684 447q-35 0 -61 -12t-44 -32.5t-28 -46.5t-13 -54h290q-3 28 -12.5 54.5t-27 46.5t-43.5 32t-61 12z" />
    <glyph glyph-name="Racute" unicode="&#x154;" horiz-adv-x="629" 
d="M170 619v-248h130q53 0 88 8t56 23.5t29.5 38.5t8.5 53q0 29 -8.5 52.5t-29.5 39.5t-55 24.5t-85 8.5h-134zM579 59q6 -12 7 -18t1 -10q0 -18 -15.5 -28t-34.5 -10q-14 0 -23 7.5t-18 25.5l-143 272q-8 -1 -16.5 -1.5t-17.5 -0.5h-149v-262q0 -23 -11.5 -32t-32.5 -9
t-32 9t-11 32v617q0 23 12.5 33t33.5 10h178q138 0 202 -50t64 -150q0 -22 -5.5 -47.5t-19.5 -50t-40 -46t-66 -36.5zM314 868q16 12 30.5 19.5t28.5 7.5q20 0 31.5 -13t11.5 -30q0 -14 -7.5 -23.5t-24.5 -18.5l-99 -53q-9 -5 -19.5 -9t-23.5 -4q-14 0 -23 8t-9 22
q0 11 4 17.5t15 14.5z" />
    <glyph glyph-name="racute" unicode="&#x155;" horiz-adv-x="363" 
d="M161 33q0 -23 -11.5 -31.5t-31.5 -8.5t-31 8.5t-11 31.5v438q0 22 10 30t30 8t30.5 -8t10.5 -30v-57q27 50 67.5 72.5t86.5 22.5q23 0 33 -10t10 -32q0 -23 -10 -34t-33 -11q-150 0 -150 -187v-202zM216 711q16 19 29 28.5t28 9.5q23 0 35 -13t12 -30q0 -16 -23 -37
l-85 -76q-10 -9 -20 -15t-24 -6t-22.5 8t-8.5 21q0 16 13 30z" />
    <glyph glyph-name="Rcommaaccent" unicode="&#x156;" horiz-adv-x="629" 
d="M170 619v-248h130q53 0 88 8t56 23.5t29.5 38.5t8.5 53q0 29 -8.5 52.5t-29.5 39.5t-55 24.5t-85 8.5h-134zM579 59q6 -12 7 -18t1 -10q0 -18 -15.5 -28t-34.5 -10q-14 0 -23 7.5t-18 25.5l-143 272q-8 -1 -16.5 -1.5t-17.5 -0.5h-149v-262q0 -23 -11.5 -32t-32.5 -9
t-32 9t-11 32v617q0 23 12.5 33t33.5 10h178q138 0 202 -50t64 -150q0 -22 -5.5 -47.5t-19.5 -50t-40 -46t-66 -36.5zM271 -112q9 29 20 43t34 14q20 0 32.5 -10t12.5 -28q0 -16 -9 -32l-52 -103q-8 -15 -17 -26t-25 -11q-19 0 -25.5 9t-6.5 20q0 8 1 13t3 9z" />
    <glyph glyph-name="rcommaaccent" unicode="&#x157;" horiz-adv-x="363" 
d="M161 33q0 -23 -11.5 -31.5t-31.5 -8.5t-31 8.5t-11 31.5v438q0 22 10 30t30 8t30.5 -8t10.5 -30v-57q27 50 67.5 72.5t86.5 22.5q23 0 33 -10t10 -32q0 -23 -10 -34t-33 -11q-150 0 -150 -187v-202zM59 -112q9 29 20 43t34 14q20 0 32.5 -10t12.5 -28q0 -16 -9 -32
l-52 -103q-8 -15 -17 -26t-25 -11q-19 0 -25.5 9t-6.5 20q0 8 1 13t3 9z" />
    <glyph glyph-name="Rcaron" unicode="&#x158;" horiz-adv-x="629" 
d="M170 619v-248h130q53 0 88 8t56 23.5t29.5 38.5t8.5 53q0 29 -8.5 52.5t-29.5 39.5t-55 24.5t-85 8.5h-134zM579 59q6 -12 7 -18t1 -10q0 -18 -15.5 -28t-34.5 -10q-14 0 -23 7.5t-18 25.5l-143 272q-8 -1 -16.5 -1.5t-17.5 -0.5h-149v-262q0 -23 -11.5 -32t-32.5 -9
t-32 9t-11 32v617q0 23 12.5 33t33.5 10h178q138 0 202 -50t64 -150q0 -22 -5.5 -47.5t-19.5 -50t-40 -46t-66 -36.5zM373 776q-19 -16 -32.5 -24t-30.5 -8q-15 0 -28 7t-31 24l-76 69q-8 7 -9.5 14t-1.5 13q0 14 10.5 23.5t24.5 9.5t22.5 -6t18.5 -14l72 -65l73 64
q11 8 20 14.5t23 6.5t24.5 -9t10.5 -23q0 -8 -2 -14.5t-9 -13.5z" />
    <glyph glyph-name="rcaron" unicode="&#x159;" horiz-adv-x="363" 
d="M161 33q0 -23 -11.5 -31.5t-31.5 -8.5t-31 8.5t-11 31.5v438q0 22 10 30t30 8t30.5 -8t10.5 -30v-57q27 50 67.5 72.5t86.5 22.5q23 0 33 -10t10 -32q0 -23 -10 -34t-33 -11q-150 0 -150 -187v-202zM76 685q-13 13 -13 30q0 14 9.5 22.5t23.5 8.5t23.5 -5.5t19.5 -15.5
l74 -78l75 78q8 10 17.5 15.5t22.5 5.5q14 0 24 -8.5t10 -22.5q0 -6 -2.5 -14t-9.5 -16l-73 -79q-31 -34 -65 -34q-31 0 -62 34z" />
    <glyph glyph-name="Sacute" unicode="&#x15a;" horiz-adv-x="604" 
d="M386 376q87 -26 127.5 -70.5t40.5 -120.5q0 -53 -19.5 -91t-52 -63t-75 -36.5t-87.5 -11.5q-75 0 -143.5 21t-116.5 72q-13 14 -15.5 23.5t-2.5 17.5q0 16 15 29t31 13q9 -1 16 -6t13 -11q48 -49 95 -66.5t106 -17.5q64 0 105.5 29.5t41.5 86.5q0 50 -30 79t-99 49
l-87 25q-93 26 -138.5 70t-45.5 123q0 50 21.5 86t56 59.5t76 34.5t82.5 11q69 0 129.5 -23t102.5 -76q8 -11 11 -19t3 -16q0 -17 -13 -28t-28 -11q-10 0 -18.5 4.5t-19.5 15.5q-38 42 -77 60t-91 18q-28 0 -54 -7t-46.5 -21t-33 -35.5t-12.5 -49.5q0 -19 5.5 -34.5
t19 -29.5t37.5 -26t60 -23zM308 868q16 12 30.5 19.5t28.5 7.5q20 0 31.5 -13t11.5 -30q0 -14 -7.5 -23.5t-24.5 -18.5l-99 -53q-9 -5 -19.5 -9t-23.5 -4q-14 0 -23 8t-9 22q0 11 4 17.5t15 14.5z" />
    <glyph glyph-name="sacute" unicode="&#x15b;" horiz-adv-x="512" 
d="M72 32q-11 9 -15.5 17.5t-4.5 16.5q0 17 12 31.5t29 14.5q10 0 18.5 -4t19.5 -12q17 -12 49 -27t80 -15q53 0 81.5 21t28.5 57q0 13 -3 25t-13.5 23t-30.5 19.5t-54 13.5l-61 10q-65 10 -106.5 46t-41.5 101q0 71 52.5 110t142.5 39q40 0 69.5 -5.5t49.5 -13.5t33 -16.5
t20 -14.5q19 -16 19 -32t-9.5 -28.5t-27.5 -12.5q-11 0 -20.5 4.5t-22.5 12.5q-19 11 -45.5 23t-69.5 12q-54 0 -79.5 -20t-25.5 -51q0 -13 3 -25t12.5 -22.5t28 -18.5t49.5 -12l62 -10q77 -11 115.5 -47.5t38.5 -102.5q0 -73 -51 -114.5t-146 -41.5q-38 0 -68.5 5t-54 12.5
t-39 16t-24.5 15.5zM276 711q16 19 29 28.5t28 9.5q23 0 35 -13t12 -30q0 -16 -23 -37l-85 -76q-10 -9 -20 -15t-24 -6t-22.5 8t-8.5 21q0 16 13 30z" />
    <glyph glyph-name="Scircumflex" unicode="&#x15c;" horiz-adv-x="604" 
d="M386 376q87 -26 127.5 -70.5t40.5 -120.5q0 -53 -19.5 -91t-52 -63t-75 -36.5t-87.5 -11.5q-75 0 -143.5 21t-116.5 72q-13 14 -15.5 23.5t-2.5 17.5q0 16 15 29t31 13q9 -1 16 -6t13 -11q48 -49 95 -66.5t106 -17.5q64 0 105.5 29.5t41.5 86.5q0 50 -30 79t-99 49
l-87 25q-93 26 -138.5 70t-45.5 123q0 50 21.5 86t56 59.5t76 34.5t82.5 11q69 0 129.5 -23t102.5 -76q8 -11 11 -19t3 -16q0 -17 -13 -28t-28 -11q-10 0 -18.5 4.5t-19.5 15.5q-38 42 -77 60t-91 18q-28 0 -54 -7t-46.5 -21t-33 -35.5t-12.5 -49.5q0 -19 5.5 -34.5
t19 -29.5t37.5 -26t60 -23zM245 871q19 16 32.5 24t30.5 8q15 0 28 -7t31 -24l76 -69q8 -7 9.5 -14t1.5 -13q0 -14 -10 -23t-24 -9t-23 5.5t-19 13.5l-71 63l-74 -62q-11 -8 -21 -14t-24 -6t-23.5 8.5t-9.5 22.5q0 8 2 14.5t9 13.5z" />
    <glyph glyph-name="scircumflex" unicode="&#x15d;" horiz-adv-x="512" 
d="M72 32q-11 9 -15.5 17.5t-4.5 16.5q0 17 12 31.5t29 14.5q10 0 18.5 -4t19.5 -12q17 -12 49 -27t80 -15q53 0 81.5 21t28.5 57q0 13 -3 25t-13.5 23t-30.5 19.5t-54 13.5l-61 10q-65 10 -106.5 46t-41.5 101q0 71 52.5 110t142.5 39q40 0 69.5 -5.5t49.5 -13.5t33 -16.5
t20 -14.5q19 -16 19 -32t-9.5 -28.5t-27.5 -12.5q-11 0 -20.5 4.5t-22.5 12.5q-19 11 -45.5 23t-69.5 12q-54 0 -79.5 -20t-25.5 -51q0 -13 3 -25t12.5 -22.5t28 -18.5t49.5 -12l62 -10q77 -11 115.5 -47.5t38.5 -102.5q0 -73 -51 -114.5t-146 -41.5q-38 0 -68.5 5t-54 12.5
t-39 16t-24.5 15.5zM194 712q17 18 32 26t30 8q17 0 32.5 -8t32.5 -26l73 -79q7 -8 9.5 -16t2.5 -14q0 -14 -10 -22.5t-24 -8.5q-13 0 -22.5 5.5t-17.5 15.5l-75 78l-74 -78q-10 -10 -19.5 -15.5t-23.5 -5.5t-23.5 8.5t-9.5 22.5q0 17 13 30z" />
    <glyph glyph-name="Scedilla" unicode="&#x15e;" horiz-adv-x="604" 
d="M422 -131q0 -40 -27.5 -68.5t-89.5 -28.5q-34 0 -53.5 6.5t-30.5 11.5q-22 12 -22 31q0 12 8 23t22 11q9 0 17 -3.5t16 -8t18 -8t23 -3.5q21 0 34 9t13 27q0 13 -6 21t-15.5 11.5t-22.5 4.5t-27 1q-22 0 -27 8t-2 19l16 53q-46 5 -90 18q-68 21 -116 72
q-13 14 -15.5 23.5t-2.5 17.5q0 16 15 29t31 13q9 -1 16 -6t13 -11q48 -49 95 -66.5t106 -17.5q64 0 105.5 29.5t41.5 86.5q0 50 -30 79t-99 49l-87 25q-93 26 -138.5 70t-45.5 123q0 50 21.5 86t56 59.5t76 34.5t82.5 11q69 0 129.5 -23t102.5 -76q8 -11 11 -19t3 -16
q0 -17 -13 -28t-28 -11q-10 0 -18.5 4.5t-19.5 15.5q-38 42 -77 60t-91 18q-28 0 -54 -7t-46.5 -21t-33 -35.5t-12.5 -49.5q0 -19 5.5 -34.5t19 -29.5t37.5 -26t60 -23l110 -34q87 -26 127.5 -70.5t40.5 -120.5q0 -53 -19.5 -91t-52 -63t-75.5 -36q-40 -11 -82 -12l-6 -24
q54 -5 78.5 -27.5t24.5 -62.5z" />
    <glyph glyph-name="scedilla" unicode="&#x15f;" horiz-adv-x="512" 
d="M368 -131q0 -40 -27.5 -68.5t-89.5 -28.5q-34 0 -53.5 6.5t-30.5 11.5q-22 12 -22 31q0 12 8 23t22 11q9 0 17 -3.5t16 -8t18 -8t23 -3.5q21 0 34 9t13 27q0 13 -6 21t-15.5 11.5t-22.5 4.5t-27 1q-22 0 -27 8t-2 19l16 52q-12 1 -23 3q-30 5 -53.5 12.5t-39 16
t-24.5 15.5q-11 9 -15.5 17.5t-4.5 16.5q0 17 12 31.5t29 14.5q10 0 18.5 -4t19.5 -12q17 -12 49 -27t80 -15q53 0 81.5 21t28.5 57q0 13 -3 25t-13.5 23t-30.5 19.5t-54 13.5l-61 10q-65 10 -106.5 46t-41.5 101q0 71 52.5 110t142.5 39q40 0 69.5 -5.5t49.5 -13.5
t33 -16.5t20 -14.5q19 -16 19 -32t-9.5 -28.5t-27.5 -12.5q-11 0 -20.5 4.5t-22.5 12.5q-19 11 -45.5 23t-69.5 12q-54 0 -79.5 -20t-25.5 -51q0 -13 3 -25t12.5 -22.5t28 -18.5t49.5 -12l62 -10q77 -11 115.5 -47.5t38.5 -102.5q0 -73 -51 -115q-48 -38 -133 -41l-6 -24
q54 -5 78.5 -27.5t24.5 -62.5z" />
    <glyph glyph-name="Scaron" unicode="&#x160;" horiz-adv-x="604" 
d="M386 376q87 -26 127.5 -70.5t40.5 -120.5q0 -53 -19.5 -91t-52 -63t-75 -36.5t-87.5 -11.5q-75 0 -143.5 21t-116.5 72q-13 14 -15.5 23.5t-2.5 17.5q0 16 15 29t31 13q9 -1 16 -6t13 -11q48 -49 95 -66.5t106 -17.5q64 0 105.5 29.5t41.5 86.5q0 50 -30 79t-99 49
l-87 25q-93 26 -138.5 70t-45.5 123q0 50 21.5 86t56 59.5t76 34.5t82.5 11q69 0 129.5 -23t102.5 -76q8 -11 11 -19t3 -16q0 -17 -13 -28t-28 -11q-10 0 -18.5 4.5t-19.5 15.5q-38 42 -77 60t-91 18q-28 0 -54 -7t-46.5 -21t-33 -35.5t-12.5 -49.5q0 -19 5.5 -34.5
t19 -29.5t37.5 -26t60 -23zM368 776q-19 -16 -32.5 -24t-30.5 -8q-15 0 -28 7t-31 24l-76 69q-8 7 -9.5 14t-1.5 13q0 14 10.5 23.5t24.5 9.5t22.5 -6t18.5 -14l72 -65l73 64q11 8 20 14.5t23 6.5t24.5 -9t10.5 -23q0 -8 -2 -14.5t-9 -13.5z" />
    <glyph glyph-name="scaron" unicode="&#x161;" horiz-adv-x="512" 
d="M72 32q-11 9 -15.5 17.5t-4.5 16.5q0 17 12 31.5t29 14.5q10 0 18.5 -4t19.5 -12q17 -12 49 -27t80 -15q53 0 81.5 21t28.5 57q0 13 -3 25t-13.5 23t-30.5 19.5t-54 13.5l-61 10q-65 10 -106.5 46t-41.5 101q0 71 52.5 110t142.5 39q40 0 69.5 -5.5t49.5 -13.5t33 -16.5
t20 -14.5q19 -16 19 -32t-9.5 -28.5t-27.5 -12.5q-11 0 -20.5 4.5t-22.5 12.5q-19 11 -45.5 23t-69.5 12q-54 0 -79.5 -20t-25.5 -51q0 -13 3 -25t12.5 -22.5t28 -18.5t49.5 -12l62 -10q77 -11 115.5 -47.5t38.5 -102.5q0 -73 -51 -114.5t-146 -41.5q-38 0 -68.5 5t-54 12.5
t-39 16t-24.5 15.5zM128 685q-13 13 -13 30q0 14 9.5 22.5t23.5 8.5t23.5 -5.5t19.5 -15.5l74 -78l75 78q8 10 17.5 15.5t22.5 5.5q14 0 24 -8.5t10 -22.5q0 -6 -2.5 -14t-9.5 -16l-73 -79q-31 -34 -65 -34q-31 0 -62 34z" />
    <glyph glyph-name="Tcommaaccent" unicode="&#x162;" horiz-adv-x="602" 
d="M345 34q0 -23 -11.5 -32t-32.5 -9t-32.5 9t-11.5 32v583h-209q-21 0 -29.5 10t-8.5 29t8.5 28.5t29.5 9.5h506q21 0 29.5 -9.5t8.5 -28.5t-8.5 -29t-29.5 -10h-209v-583zM238 -112q9 29 20 43t34 14q20 0 32.5 -10t12.5 -28q0 -16 -9 -32l-52 -103q-8 -15 -17 -26
t-25 -11q-19 0 -25.5 9t-6.5 20q0 8 1 13t3 9z" />
    <glyph glyph-name="tcommaaccent" unicode="&#x163;" horiz-adv-x="352" 
d="M49 430q-20 0 -27 9.5t-7 26.5t7 26.5t27 9.5h45v103q0 19 3.5 28t14.5 16q18 11 39 11q28 0 28 -29v-129h94q20 0 27 -9.5t7 -26.5t-7 -26.5t-27 -9.5h-94v-296q0 -44 13.5 -60t45.5 -16q12 0 20.5 3t15.5 6t13.5 6t15.5 3q14 0 24.5 -12t10.5 -29q0 -24 -31 -37.5
t-78 -13.5q-69 0 -102 33.5t-33 97.5v315h-45zM139 -112q9 29 20 43t34 14q20 0 32.5 -10t12.5 -28q0 -16 -9 -32l-52 -103q-8 -15 -17 -26t-25 -11q-19 0 -25.5 9t-6.5 20q0 8 1 13t3 9z" />
    <glyph glyph-name="Tcaron" unicode="&#x164;" horiz-adv-x="602" 
d="M345 34q0 -23 -11.5 -32t-32.5 -9t-32.5 9t-11.5 32v583h-209q-21 0 -29.5 10t-8.5 29t8.5 28.5t29.5 9.5h506q21 0 29.5 -9.5t8.5 -28.5t-8.5 -29t-29.5 -10h-209v-583zM360 776q-19 -16 -32.5 -24t-30.5 -8q-15 0 -28 7t-31 24l-76 69q-8 7 -9.5 14t-1.5 13
q0 14 10.5 23.5t24.5 9.5t22.5 -6t18.5 -14l72 -65l73 64q11 8 20 14.5t23 6.5t24.5 -9t10.5 -23q0 -8 -2 -14.5t-9 -13.5z" />
    <glyph glyph-name="tcaron" unicode="&#x165;" horiz-adv-x="352" 
d="M49 430q-20 0 -27 9.5t-7 26.5t7 26.5t27 9.5h45v103q0 19 3.5 28t14.5 16q18 11 39 11q28 0 28 -29v-129h94q20 0 27 -9.5t7 -26.5t-7 -26.5t-27 -9.5h-94v-296q0 -44 13.5 -60t45.5 -16q12 0 20.5 3t15.5 6t13.5 6t15.5 3q14 0 24.5 -12t10.5 -29q0 -24 -31 -37.5
t-78 -13.5q-69 0 -102 33.5t-33 97.5v315h-45zM241 711q0 3 -0.5 8.5t-0.5 8.5q0 48 48 48q26 0 35.5 -11.5t9.5 -33.5v-11q0 -5 -1 -10l-11 -119q-2 -20 -8.5 -32.5t-27.5 -12.5q-19 0 -26.5 11t-9.5 34z" />
    <glyph glyph-name="Tbar" unicode="&#x166;" horiz-adv-x="614" 
d="M351 32q0 -23 -11.5 -32t-32.5 -9t-32.5 9t-11.5 32v250h-127q-17 0 -25.5 7.5t-8.5 28.5q0 20 7.5 29t27.5 9h126v261h-209q-21 0 -29.5 10t-8.5 29t8.5 28.5t29.5 9.5h506q21 0 29.5 -9.5t8.5 -28.5t-8.5 -29t-29.5 -10h-209v-261h128q20 0 27.5 -9t7.5 -29
q0 -21 -9 -28.5t-29 -7.5h-125v-250z" />
    <glyph glyph-name="tbar" unicode="&#x167;" horiz-adv-x="352" 
d="M49 429q-20 0 -27 9.5t-7 26.5t7 26.5t27 9.5h45v104q0 19 3.5 28t14.5 16q18 11 39 11q28 0 28 -29v-130h94q20 0 27 -9.5t7 -26.5t-7 -26.5t-27 -9.5h-94v-128h94q20 0 27 -9.5t7 -26.5t-7 -26.5t-27 -9.5h-94v-87q0 -44 13.5 -60t45.5 -16q12 0 20.5 3t15.5 6t13.5 6
t15.5 3q14 0 24.5 -12t10.5 -29q0 -24 -31 -37.5t-78 -13.5q-69 0 -102 33.5t-33 97.5v106h-45q-20 0 -27 9.5t-7 26.5t7 26.5t27 9.5h45v128h-45z" />
    <glyph glyph-name="Utilde" unicode="&#x168;" horiz-adv-x="711" 
d="M544 660q0 23 11.5 32t32.5 9t33 -9t12 -32v-407q0 -60 -18 -109.5t-53 -85t-87 -55.5t-120 -20t-119.5 20t-86.5 55.5t-53 85t-18 109.5v407q0 23 12 32t33 9t32.5 -9t11.5 -32v-400q0 -100 50 -149.5t138 -49.5q90 0 139.5 49.5t49.5 149.5v400zM438 760
q-18 0 -32.5 3.5t-29.5 9.5l-38 15q-15 6 -27.5 10t-23.5 4q-18 0 -27.5 -7t-20.5 -20q-4 -5 -9.5 -9.5t-13.5 -4.5q-11 0 -20 6.5t-9 19.5q0 14 6.5 26t14.5 23q16 19 36.5 31t42.5 12q18 0 33 -4.5t32 -11.5l37 -14q11 -5 25 -9t25 -4q20 0 28 6.5t16 20.5q4 7 9.5 12
t13.5 5t18.5 -6t10.5 -17q0 -6 -2 -16q-8 -35 -35 -58t-60 -23z" />
    <glyph glyph-name="utilde" unicode="&#x169;" horiz-adv-x="582" 
d="M421 469q0 23 11.5 31.5t31.5 8.5t31 -8.5t11 -31.5v-438q0 -22 -10 -30t-30 -8t-30.5 8t-10.5 30v48q-14 -27 -38 -48q-20 -18 -53 -33t-81 -15q-39 0 -72 11t-56 33t-36 55.5t-13 79.5v312q0 35 41 35q44 0 44 -35v-291q0 -59 24 -90t89 -31q39 0 67 17.5t45.5 45.5
t26 63t8.5 69v212zM368 596q-18 0 -32.5 3.5t-29.5 9.5l-38 15q-15 6 -27.5 10t-23.5 4q-18 0 -27.5 -7t-20.5 -20q-4 -5 -9.5 -9.5t-13.5 -4.5q-11 0 -20 6.5t-9 19.5q0 14 6.5 26t14.5 23q16 19 36.5 31t42.5 12q18 0 33 -4.5t32 -11.5l37 -14q11 -5 25 -9t25 -4
q20 0 28 6.5t16 20.5q4 7 9.5 12t13.5 5t18.5 -6t10.5 -17q0 -6 -2 -16q-8 -35 -35 -58t-60 -23z" />
    <glyph glyph-name="Umacron" unicode="&#x16a;" horiz-adv-x="711" 
d="M544 660q0 23 11.5 32t32.5 9t33 -9t12 -32v-407q0 -60 -18 -109.5t-53 -85t-87 -55.5t-120 -20t-119.5 20t-86.5 55.5t-53 85t-18 109.5v407q0 23 12 32t33 9t32.5 -9t11.5 -32v-400q0 -100 50 -149.5t138 -49.5q90 0 139.5 49.5t49.5 149.5v400zM253 768q-17 0 -25.5 8
t-8.5 31q0 21 7.5 30.5t27.5 9.5h222q20 0 27.5 -9.5t7.5 -30.5q0 -23 -9 -31t-29 -8h-220z" />
    <glyph glyph-name="umacron" unicode="&#x16b;" horiz-adv-x="582" 
d="M421 469q0 23 11.5 31.5t31.5 8.5t31 -8.5t11 -31.5v-438q0 -22 -10 -30t-30 -8t-30.5 8t-10.5 30v48q-14 -27 -38 -48q-20 -18 -53 -33t-81 -15q-39 0 -72 11t-56 33t-36 55.5t-13 79.5v312q0 35 41 35q44 0 44 -35v-291q0 -59 24 -90t89 -31q39 0 67 17.5t45.5 45.5
t26 63t8.5 69v212zM183 615q-17 0 -25.5 8t-8.5 31q0 21 7.5 30.5t27.5 9.5h222q20 0 27.5 -9.5t7.5 -30.5q0 -23 -9 -31t-29 -8h-220z" />
    <glyph glyph-name="Ubreve" unicode="&#x16c;" horiz-adv-x="711" 
d="M544 660q0 23 11.5 32t32.5 9t33 -9t12 -32v-407q0 -60 -18 -109.5t-53 -85t-87 -55.5t-120 -20t-119.5 20t-86.5 55.5t-53 85t-18 109.5v407q0 23 12 32t33 9t32.5 -9t11.5 -32v-400q0 -100 50 -149.5t138 -49.5q90 0 139.5 49.5t49.5 149.5v400zM362 747
q-39 0 -67.5 11.5t-46.5 28.5t-27 36t-9 35q0 17 12 25.5t32 8.5q21 0 32 -20q5 -9 10.5 -19.5t14 -19.5t21 -15t31.5 -6q17 0 29 6t20.5 14t14 17.5t9.5 17.5q7 13 15 19t22 6q19 0 30 -8.5t11 -23.5q0 -18 -9.5 -37.5t-29 -36.5t-48 -28t-67.5 -11z" />
    <glyph glyph-name="ubreve" unicode="&#x16d;" horiz-adv-x="582" 
d="M421 469q0 23 11.5 31.5t31.5 8.5t31 -8.5t11 -31.5v-438q0 -22 -10 -30t-30 -8t-30.5 8t-10.5 30v48q-14 -27 -38 -48q-20 -18 -53 -33t-81 -15q-39 0 -72 11t-56 33t-36 55.5t-13 79.5v312q0 35 41 35q44 0 44 -35v-291q0 -59 24 -90t89 -31q39 0 67 17.5t45.5 45.5
t26 63t8.5 69v212zM298 572q-39 0 -67.5 11.5t-46.5 28.5t-27 36t-9 35q0 17 12 25.5t32 8.5q21 0 32 -20q5 -9 10.5 -19.5t14 -19.5t21 -15t31.5 -6q17 0 29 6t20.5 14t14 17.5t9.5 17.5q7 13 15 19t22 6q19 0 30 -8.5t11 -23.5q0 -18 -9.5 -37.5t-29 -36.5t-48 -28
t-67.5 -11z" />
    <glyph glyph-name="Uring" unicode="&#x16e;" horiz-adv-x="711" 
d="M544 660q0 23 11.5 32t32.5 9t33 -9t12 -32v-407q0 -60 -18 -109.5t-53 -85t-87 -55.5t-120 -20t-119.5 20t-86.5 55.5t-53 85t-18 109.5v407q0 23 12 32t33 9t32.5 -9t11.5 -32v-400q0 -100 50 -149.5t138 -49.5q90 0 139.5 49.5t49.5 149.5v400zM476 843
q0 -22 -8.5 -41.5t-23 -34t-34.5 -23t-43 -8.5t-43 8.5t-34.5 23t-23 34t-8.5 41.5t8.5 41.5t23 34t34.5 23t43 8.5t43 -8.5t34.5 -23t23 -34t8.5 -41.5zM423 843q0 23 -16.5 40.5t-39.5 17.5t-39.5 -17.5t-16.5 -40.5t16.5 -40.5t39.5 -17.5t39.5 17.5t16.5 40.5z" />
    <glyph glyph-name="uring" unicode="&#x16f;" horiz-adv-x="582" 
d="M421 469q0 23 11.5 31.5t31.5 8.5t31 -8.5t11 -31.5v-438q0 -22 -10 -30t-30 -8t-30.5 8t-10.5 30v48q-14 -27 -38 -48q-20 -18 -53 -33t-81 -15q-39 0 -72 11t-56 33t-36 55.5t-13 79.5v312q0 35 41 35q44 0 44 -35v-291q0 -59 24 -90t89 -31q39 0 67 17.5t45.5 45.5
t26 63t8.5 69v212zM407 679q0 -22 -8.5 -41.5t-23 -34t-34.5 -23t-43 -8.5t-43 8.5t-34.5 23t-23 34t-8.5 41.5t8.5 41.5t23 34t34.5 23t43 8.5t43 -8.5t34.5 -23t23 -34t8.5 -41.5zM354 679q0 23 -16.5 40.5t-39.5 17.5t-39.5 -17.5t-16.5 -40.5t16.5 -40.5t39.5 -17.5
t39.5 17.5t16.5 40.5z" />
    <glyph glyph-name="Uhungarumlaut" unicode="&#x170;" horiz-adv-x="711" 
d="M544 660q0 23 11.5 32t32.5 9t33 -9t12 -32v-407q0 -60 -18 -109.5t-53 -85t-87 -55.5t-120 -20t-119.5 20t-86.5 55.5t-53 85t-18 109.5v407q0 23 12 32t33 9t32.5 -9t11.5 -32v-400q0 -100 50 -149.5t138 -49.5q90 0 139.5 49.5t49.5 149.5v400zM506 868
q16 12 30.5 19.5t28.5 7.5q20 0 31.5 -13t11.5 -30q0 -14 -7.5 -23.5t-24.5 -18.5l-99 -53q-9 -5 -19.5 -9t-23.5 -4q-14 0 -23 8t-9 22q0 11 4 17.5t15 14.5zM268 868q16 12 30.5 19.5t28.5 7.5q20 0 31.5 -13t11.5 -30q0 -14 -7.5 -23.5t-24.5 -18.5l-99 -53
q-9 -5 -19.5 -9t-23.5 -4q-14 0 -23 8t-9 22q0 11 4 17.5t15 14.5z" />
    <glyph glyph-name="uhungarumlaut" unicode="&#x171;" horiz-adv-x="582" 
d="M421 469q0 23 11.5 31.5t31.5 8.5t31 -8.5t11 -31.5v-438q0 -22 -10 -30t-30 -8t-30.5 8t-10.5 30v48q-14 -27 -38 -48q-20 -18 -53 -33t-81 -15q-39 0 -72 11t-56 33t-36 55.5t-13 79.5v312q0 35 41 35q44 0 44 -35v-291q0 -59 24 -90t89 -31q39 0 67 17.5t45.5 45.5
t26 63t8.5 69v212zM421 711q16 19 29 28.5t28 9.5q23 0 35 -13t12 -30q0 -16 -23 -37l-85 -76q-10 -9 -20 -15t-24 -6t-22.5 8t-8.5 21q0 16 13 30zM225 711q16 19 29 28.5t28 9.5q23 0 35 -13t12 -30q0 -16 -23 -37l-85 -76q-10 -9 -20 -15t-24 -6t-22.5 8t-8.5 21
q0 16 13 30z" />
    <glyph glyph-name="Uogonek" unicode="&#x172;" horiz-adv-x="711" 
d="M544 660q0 23 11.5 32t32.5 9t33 -9t12 -32v-408q0 -92 -45 -152.5t-122 -102.5q-35 -20 -54.5 -51.5t-19.5 -62.5q0 -30 15 -41.5t33 -11.5q11 0 18.5 2t13.5 4.5t11.5 4.5t12.5 2q9 0 15.5 -9.5t6.5 -22.5t-13 -25q-11 -10 -31 -16t-42 -6q-33 0 -56 9t-36.5 24
t-19.5 33t-6 36q0 38 17 67t42 49h-18q-68 0 -119.5 20t-86.5 55.5t-53 85t-18 109.5v408q0 23 12 32t33 9t32.5 -9t11.5 -32v-401q0 -100 50 -149.5t138 -49.5q90 0 139.5 49.5t49.5 149.5v401z" />
    <glyph glyph-name="uogonek" unicode="&#x173;" horiz-adv-x="582" 
d="M425 81q-14 -27 -38 -48q-20 -18 -53 -33t-81 -15q-39 0 -72 11t-56 33t-36 55.5t-13 79.5v310q0 35 41 35q44 0 44 -35v-289q0 -59 24 -90t89 -31q39 0 67 17.5t45.5 45.5t26 63t8.5 69v210q0 23 11.5 31.5t31.5 8.5t31 -8.5t11 -31.5v-439q0 -16 -3.5 -24t-12.5 -14
q-35 -24 -54 -51t-19 -58q0 -30 15 -41.5t33 -11.5q11 0 18.5 2t13.5 4.5t11.5 4.5t12.5 2q9 0 15.5 -9.5t6.5 -22.5t-13 -25q-11 -10 -31 -16t-42 -6q-34 0 -57 8.5t-36.5 23t-19.5 32.5t-6 38q0 24 7.5 45t20 38t28 30.5t31.5 24.5v77z" />
    <glyph glyph-name="Wcircumflex" unicode="&#x174;" horiz-adv-x="934" 
d="M820 675q7 26 33 26q19 0 35 -8.5t16 -26.5q0 -8 -3 -18.5t-6 -20.5l-176 -601q-9 -33 -50 -33q-40 0 -49 33l-154 517l-153 -517q-9 -33 -49 -33q-41 0 -50 33l-176 601q-2 9 -5 20t-3 18q0 18 16 27t36 9q27 0 34 -26l150 -542l154 535q5 16 16 24.5t32 8.5
q39 0 48 -33l154 -535zM407 871q19 16 32.5 24t30.5 8q15 0 28 -7t31 -24l76 -69q8 -7 9.5 -14t1.5 -13q0 -14 -10 -23t-24 -9t-23 5.5t-19 13.5l-71 63l-74 -62q-11 -8 -21 -14t-24 -6t-23.5 8.5t-9.5 22.5q0 8 2 14.5t9 13.5z" />
    <glyph glyph-name="wcircumflex" unicode="&#x175;" horiz-adv-x="750" 
d="M331 477q6 18 16 25t30 7t30.5 -6.5t15.5 -25.5l112 -370l116 379q3 11 9.5 17t20.5 6q17 0 33.5 -8t16.5 -25q0 -7 -2 -12.5t-4 -12.5l-145 -427q-5 -16 -16.5 -23.5t-33.5 -7.5t-33.5 7t-16.5 24l-109 355l-106 -355q-5 -17 -16.5 -24t-33.5 -7t-33.5 7.5t-16.5 23.5
l-140 423q-2 8 -4 13.5t-2 13.5q0 18 17.5 26.5t34.5 8.5q14 0 21 -7t11 -18l118 -377zM319 712q17 18 32 26t30 8q17 0 32.5 -8t32.5 -26l73 -79q7 -8 9.5 -16t2.5 -14q0 -14 -10 -22.5t-24 -8.5q-13 0 -22.5 5.5t-17.5 15.5l-75 78l-74 -78q-10 -10 -19.5 -15.5
t-23.5 -5.5t-23.5 8.5t-9.5 22.5q0 17 13 30z" />
    <glyph glyph-name="Ycircumflex" unicode="&#x176;" horiz-adv-x="605" 
d="M259 319q-54 73 -114.5 155t-114.5 156q-5 8 -9 16t-4 16q0 17 15.5 28t30.5 11q21 0 33 -18l209 -292l206 289q14 21 34 21q14 0 28.5 -10t14.5 -27q0 -8 -4 -16t-9 -16l-227 -314v-284q0 -23 -11.5 -32t-32.5 -9t-33 9t-12 32v285zM244 871q19 16 32.5 24t30.5 8
q15 0 28 -7t31 -24l76 -69q8 -7 9.5 -14t1.5 -13q0 -14 -10 -23t-24 -9t-23 5.5t-19 13.5l-71 63l-74 -62q-11 -8 -21 -14t-24 -6t-23.5 8.5t-9.5 22.5q0 8 2 14.5t9 13.5z" />
    <glyph glyph-name="ycircumflex" unicode="&#x177;" horiz-adv-x="508" 
d="M205 -186q-7 -14 -15 -21t-24 -7q-17 0 -29 9.5t-12 26.5q0 5 1.5 12t6.5 17l73 164l-175 422q-4 10 -8 18.5t-4 16.5q0 17 15.5 27t34.5 10q23 0 34 -28l149 -366l157 368q6 14 13 20t19 6q18 0 33 -9t15 -26q0 -7 -3.5 -15.5t-7.5 -17.5zM199 712q17 18 32 26t30 8
q17 0 32.5 -8t32.5 -26l73 -79q7 -8 9.5 -16t2.5 -14q0 -14 -10 -22.5t-24 -8.5q-13 0 -22.5 5.5t-17.5 15.5l-75 78l-74 -78q-10 -10 -19.5 -15.5t-23.5 -5.5t-23.5 8.5t-9.5 22.5q0 17 13 30z" />
    <glyph glyph-name="Ydieresis" unicode="&#x178;" horiz-adv-x="605" 
d="M259 319q-54 73 -114.5 155t-114.5 156q-5 8 -9 16t-4 16q0 17 15.5 28t30.5 11q21 0 33 -18l209 -292l206 289q14 21 34 21q14 0 28.5 -10t14.5 -27q0 -8 -4 -16t-9 -16l-227 -314v-284q0 -23 -11.5 -32t-32.5 -9t-33 9t-12 32v285zM403 855q20 0 36 -12t16 -37
q0 -23 -14.5 -36t-37.5 -13t-37.5 13t-14.5 36q0 22 14.5 35.5t37.5 13.5zM203 855q20 0 36.5 -12t16.5 -37q0 -23 -15 -36t-38 -13t-37 13t-14 36q0 22 14 35.5t37 13.5z" />
    <glyph glyph-name="Zacute" unicode="&#x179;" horiz-adv-x="597" 
d="M73 0q-47 0 -47 44q0 12 4.5 22.5t17.5 27.5l410 523h-372q-20 0 -28.5 10t-8.5 29t8.5 28.5t28.5 9.5h432q47 0 47 -44q0 -12 -5 -22.5t-17 -27.5l-411 -523h401q21 0 29.5 -9.5t8.5 -28.5t-8.5 -29t-29.5 -10h-460zM312 868q16 12 30.5 19.5t28.5 7.5q20 0 31.5 -13
t11.5 -30q0 -14 -7.5 -23.5t-24.5 -18.5l-99 -53q-9 -5 -19.5 -9t-23.5 -4q-14 0 -23 8t-9 22q0 11 4 17.5t15 14.5z" />
    <glyph glyph-name="zacute" unicode="&#x17a;" horiz-adv-x="502" 
d="M139 72h300q20 0 27 -9.5t7 -26.5t-7 -26.5t-27 -9.5h-362q-49 0 -49 44q0 12 4 20.5t17 23.5l297 342h-270q-20 0 -27 9.5t-7 26.5t7 26.5t27 9.5h331q49 0 49 -44q0 -12 -4 -20.5t-17 -23.5zM258 711q16 19 29 28.5t28 9.5q23 0 35 -13t12 -30q0 -16 -23 -37l-85 -76
q-10 -9 -20 -15t-24 -6t-22.5 8t-8.5 21q0 16 13 30z" />
    <glyph glyph-name="Zdotaccent" unicode="&#x17b;" horiz-adv-x="597" 
d="M73 0q-47 0 -47 44q0 12 4.5 22.5t17.5 27.5l410 523h-372q-20 0 -28.5 10t-8.5 29t8.5 28.5t28.5 9.5h432q47 0 47 -44q0 -12 -5 -22.5t-17 -27.5l-411 -523h401q21 0 29.5 -9.5t8.5 -28.5t-8.5 -29t-29.5 -10h-460zM311 876q24 0 43.5 -14.5t19.5 -44.5q0 -26 -17 -42
t-46 -16q-28 0 -45 16t-17 42t17.5 42.5t44.5 16.5z" />
    <glyph glyph-name="zdotaccent" unicode="&#x17c;" horiz-adv-x="502" 
d="M139 72h300q20 0 27 -9.5t7 -26.5t-7 -26.5t-27 -9.5h-362q-49 0 -49 44q0 12 4 20.5t17 23.5l297 342h-270q-20 0 -27 9.5t-7 26.5t7 26.5t27 9.5h331q49 0 49 -44q0 -12 -4 -20.5t-17 -23.5zM256 712q24 0 43.5 -14.5t19.5 -44.5q0 -26 -17 -42t-46 -16q-28 0 -45 16
t-17 42t17.5 42.5t44.5 16.5z" />
    <glyph glyph-name="Zcaron" unicode="&#x17d;" horiz-adv-x="597" 
d="M73 0q-47 0 -47 44q0 12 4.5 22.5t17.5 27.5l410 523h-372q-20 0 -28.5 10t-8.5 29t8.5 28.5t28.5 9.5h432q47 0 47 -44q0 -12 -5 -22.5t-17 -27.5l-411 -523h401q21 0 29.5 -9.5t8.5 -28.5t-8.5 -29t-29.5 -10h-460zM369 776q-19 -16 -32.5 -24t-30.5 -8q-15 0 -28 7
t-31 24l-76 69q-8 7 -9.5 14t-1.5 13q0 14 10.5 23.5t24.5 9.5t22.5 -6t18.5 -14l72 -65l73 64q11 8 20 14.5t23 6.5t24.5 -9t10.5 -23q0 -8 -2 -14.5t-9 -13.5z" />
    <glyph glyph-name="zcaron" unicode="&#x17e;" horiz-adv-x="502" 
d="M139 72h300q20 0 27 -9.5t7 -26.5t-7 -26.5t-27 -9.5h-362q-49 0 -49 44q0 12 4 20.5t17 23.5l297 342h-270q-20 0 -27 9.5t-7 26.5t7 26.5t27 9.5h331q49 0 49 -44q0 -12 -4 -20.5t-17 -23.5zM120 685q-13 13 -13 30q0 14 9.5 22.5t23.5 8.5t23.5 -5.5t19.5 -15.5
l74 -78l75 78q8 10 17.5 15.5t22.5 5.5q14 0 24 -8.5t10 -22.5q0 -6 -2.5 -14t-9.5 -16l-73 -79q-31 -34 -65 -34q-31 0 -62 34z" />
    <glyph glyph-name="longs" unicode="&#x17f;" horiz-adv-x="305" 
d="M241 642q-29 0 -48 -16t-19 -60v-534q0 -23 -11.5 -31.5t-31.5 -8.5t-31 8.5t-11 31.5v540q0 62 38.5 100.5t112.5 38.5q21 0 41.5 -4.5t36 -12t25.5 -17.5t10 -22q0 -17 -10.5 -29t-24.5 -12q-9 0 -16.5 4.5t-16 9.5t-19 9.5t-25.5 4.5z" />
    <glyph glyph-name="florin" unicode="&#x192;" horiz-adv-x="610" 
d="M438 625q-26 0 -48 -15.5t-30 -60.5l-18 -99h94q33 0 33 -32q0 -17 -9 -28.5t-28 -11.5h-103l-80 -452q-12 -66 -49.5 -102.5t-103.5 -36.5q-54 0 -90 14.5t-36 41.5q0 15 9.5 28t26.5 13q9 0 17 -4.5t18 -9.5t21.5 -9.5t27.5 -4.5q31 0 49 15.5t26 60.5l79 446h-56
q-16 0 -22 8.5t-6 22.5q0 17 9 29t32 12h56l19 105q11 62 54 100.5t117 38.5q20 0 39.5 -3.5t34.5 -11t24.5 -18t9.5 -23.5q0 -15 -9.5 -28t-26.5 -13q-9 0 -16.5 4.5t-16.5 9.5t-20.5 9.5t-27.5 4.5z" />
    <glyph glyph-name="Scommaaccent" unicode="&#x218;" horiz-adv-x="604" 
d="M386 376q87 -26 127.5 -70.5t40.5 -120.5q0 -53 -19.5 -91t-52 -63t-75 -36.5t-87.5 -11.5q-75 0 -143.5 21t-116.5 72q-13 14 -15.5 23.5t-2.5 17.5q0 16 15 29t31 13q9 -1 16 -6t13 -11q48 -49 95 -66.5t106 -17.5q64 0 105.5 29.5t41.5 86.5q0 50 -30 79t-99 49
l-87 25q-93 26 -138.5 70t-45.5 123q0 50 21.5 86t56 59.5t76 34.5t82.5 11q69 0 129.5 -23t102.5 -76q8 -11 11 -19t3 -16q0 -17 -13 -28t-28 -11q-10 0 -18.5 4.5t-19.5 15.5q-38 42 -77 60t-91 18q-28 0 -54 -7t-46.5 -21t-33 -35.5t-12.5 -49.5q0 -19 5.5 -34.5
t19 -29.5t37.5 -26t60 -23zM261 -112q9 29 20 43t34 14q20 0 32.5 -10t12.5 -28q0 -16 -9 -32l-52 -103q-8 -15 -17 -26t-25 -11q-19 0 -25.5 9t-6.5 20q0 8 1 13t3 9z" />
    <glyph glyph-name="scommaaccent" unicode="&#x219;" horiz-adv-x="512" 
d="M72 32q-11 9 -15.5 17.5t-4.5 16.5q0 17 12 31.5t29 14.5q10 0 18.5 -4t19.5 -12q17 -12 49 -27t80 -15q53 0 81.5 21t28.5 57q0 13 -3 25t-13.5 23t-30.5 19.5t-54 13.5l-61 10q-65 10 -106.5 46t-41.5 101q0 71 52.5 110t142.5 39q40 0 69.5 -5.5t49.5 -13.5t33 -16.5
t20 -14.5q19 -16 19 -32t-9.5 -28.5t-27.5 -12.5q-11 0 -20.5 4.5t-22.5 12.5q-19 11 -45.5 23t-69.5 12q-54 0 -79.5 -20t-25.5 -51q0 -13 3 -25t12.5 -22.5t28 -18.5t49.5 -12l62 -10q77 -11 115.5 -47.5t38.5 -102.5q0 -73 -51 -114.5t-146 -41.5q-38 0 -68.5 5t-54 12.5
t-39 16t-24.5 15.5zM199 -112q9 29 20 43t34 14q20 0 32.5 -10t12.5 -28q0 -16 -9 -32l-52 -103q-8 -15 -17 -26t-25 -11q-19 0 -25.5 9t-6.5 20q0 8 1 13t3 9z" />
    <glyph glyph-name="uni021A" unicode="&#x21a;" horiz-adv-x="602" 
d="M345 34q0 -23 -11.5 -32t-32.5 -9t-32.5 9t-11.5 32v583h-209q-21 0 -29.5 10t-8.5 29t8.5 28.5t29.5 9.5h506q21 0 29.5 -9.5t8.5 -28.5t-8.5 -29t-29.5 -10h-209v-583zM238 -112q9 29 20 43t34 14q20 0 32.5 -10t12.5 -28q0 -16 -9 -32l-52 -103q-8 -15 -17 -26
t-25 -11q-19 0 -25.5 9t-6.5 20q0 8 1 13t3 9z" />
    <glyph glyph-name="uni021B" unicode="&#x21b;" horiz-adv-x="352" 
d="M49 430q-20 0 -27 9.5t-7 26.5t7 26.5t27 9.5h45v103q0 19 3.5 28t14.5 16q18 11 39 11q28 0 28 -29v-129h94q20 0 27 -9.5t7 -26.5t-7 -26.5t-27 -9.5h-94v-296q0 -44 13.5 -60t45.5 -16q12 0 20.5 3t15.5 6t13.5 6t15.5 3q14 0 24.5 -12t10.5 -29q0 -24 -31 -37.5
t-78 -13.5q-69 0 -102 33.5t-33 97.5v315h-45zM144 -112q9 29 20 43t34 14q20 0 32.5 -10t12.5 -28q0 -16 -9 -32l-52 -103q-8 -15 -17 -26t-25 -11q-19 0 -25.5 9t-6.5 20q0 8 1 13t3 9z" />
    <glyph glyph-name="dotlessj" unicode="&#x237;" horiz-adv-x="237" 
d="M161 -84q0 -62 -38 -100.5t-107 -38.5q-23 0 -44.5 4t-38 11.5t-26.5 18t-10 22.5q0 17 10.5 29t24.5 12q9 0 16.5 -3.5t16.5 -8t20 -8t26 -3.5q29 0 47 16t18 60v542q0 23 11 31.5t31 8.5t31.5 -8.5t11.5 -31.5v-553z" />
    <glyph glyph-name="apostrophe" unicode="&#x2bc;" horiz-adv-x="208" 
d="M100 501q-6 -7 -11 -8t-9 -1q-11 0 -19.5 6t-8.5 16q0 4 1.5 9.5t8.5 13.5q10 14 19 28.5t12 34.5q-20 1 -32 14t-12 32q0 26 14.5 39.5t37.5 13.5t39 -16t16 -48q0 -27 -8 -50t-17.5 -40.5t-18.5 -29t-12 -14.5z" />
    <glyph glyph-name="circumflex" unicode="&#x2c6;" horiz-adv-x="468" 
d="M114 712q17 18 32 26t30 8q17 0 32.5 -8t32.5 -26l73 -79q7 -8 9.5 -16t2.5 -14q0 -14 -10 -22.5t-24 -8.5q-13 0 -22.5 5.5t-17.5 15.5l-75 78l-74 -78q-10 -10 -19.5 -15.5t-23.5 -5.5t-23.5 8.5t-9.5 22.5q0 17 13 30z" />
    <glyph glyph-name="caron" unicode="&#x2c7;" horiz-adv-x="468" 
d="M37 685q-13 13 -13 30q0 14 9.5 22.5t23.5 8.5t23.5 -5.5t19.5 -15.5l74 -78l75 78q8 10 17.5 15.5t22.5 5.5q14 0 24 -8.5t10 -22.5q0 -6 -2.5 -14t-9.5 -16l-73 -79q-31 -34 -65 -34q-31 0 -62 34z" />
    <glyph glyph-name="uni02C9" unicode="&#x2c9;" horiz-adv-x="350" 
d="M58 615q-17 0 -25.5 8t-8.5 31q0 21 7.5 30.5t27.5 9.5h222q20 0 27.5 -9.5t7.5 -30.5q0 -23 -9 -31t-29 -8h-220z" />
    <glyph glyph-name="breve" unicode="&#x2d8;" horiz-adv-x="468" 
d="M234 572q-39 0 -67.5 11.5t-46.5 28.5t-27 36t-9 35q0 17 12 25.5t32 8.5q21 0 32 -20q5 -9 10.5 -19.5t14 -19.5t21 -15t31.5 -6q17 0 29 6t20.5 14t14 17.5t9.5 17.5q7 13 15 19t22 6q19 0 30 -8.5t11 -23.5q0 -18 -9.5 -37.5t-29 -36.5t-48 -28t-67.5 -11z" />
    <glyph glyph-name="dotaccent" unicode="&#x2d9;" horiz-adv-x="281" 
d="M143 712q24 0 43.5 -14.5t19.5 -44.5q0 -26 -17 -42t-46 -16q-28 0 -45 16t-17 42t17.5 42.5t44.5 16.5z" />
    <glyph glyph-name="ring" unicode="&#x2da;" horiz-adv-x="468" 
d="M343 679q0 -22 -8.5 -41.5t-23 -34t-34.5 -23t-43 -8.5t-43 8.5t-34.5 23t-23 34t-8.5 41.5t8.5 41.5t23 34t34.5 23t43 8.5t43 -8.5t34.5 -23t23 -34t8.5 -41.5zM290 679q0 23 -16.5 40.5t-39.5 17.5t-39.5 -17.5t-16.5 -40.5t16.5 -40.5t39.5 -17.5t39.5 17.5
t16.5 40.5z" />
    <glyph glyph-name="ogonek" unicode="&#x2db;" horiz-adv-x="468" 
d="M281 1q-35 -27 -56 -56.5t-21 -61.5q0 -30 15 -41.5t33 -11.5q11 0 18.5 2t13.5 4.5t11.5 4.5t12.5 2q9 0 15.5 -9.5t6.5 -22.5t-13 -25q-11 -10 -31 -16t-42 -6q-33 0 -56 9t-36.5 24t-19.5 33t-6 36q0 22 8 43t21 38.5t29.5 31.5t34.5 23z" />
    <glyph glyph-name="tilde" unicode="&#x2dc;" horiz-adv-x="468" 
d="M310 596q-18 0 -32.5 3.5t-29.5 9.5l-38 15q-15 6 -27.5 10t-23.5 4q-18 0 -27.5 -7t-20.5 -20q-4 -5 -9.5 -9.5t-13.5 -4.5q-11 0 -20 6.5t-9 19.5q0 14 6.5 26t14.5 23q16 19 36.5 31t42.5 12q18 0 33 -4.5t32 -11.5l37 -14q11 -5 25 -9t25 -4q20 0 28 6.5t16 20.5
q4 7 9.5 12t13.5 5t18.5 -6t10.5 -17q0 -6 -2 -16q-8 -35 -35 -58t-60 -23z" />
    <glyph glyph-name="hungarumlaut" unicode="&#x2dd;" horiz-adv-x="468" 
d="M362 711q16 19 29 28.5t28 9.5q23 0 35 -13t12 -30q0 -16 -23 -37l-85 -76q-10 -9 -20 -15t-24 -6t-22.5 8t-8.5 21q0 16 13 30zM166 711q16 19 29 28.5t28 9.5q23 0 35 -13t12 -30q0 -16 -23 -37l-85 -76q-10 -9 -20 -15t-24 -6t-22.5 8t-8.5 21q0 16 13 30z" />
    <glyph glyph-name="tonos" unicode="&#x384;" horiz-adv-x="406" 
d="M182 738q11 26 21.5 35.5t27.5 9.5q20 0 34 -13.5t14 -29.5q-1 -6 -3 -13.5t-7 -13.5l-64 -102q-7 -12 -16 -20t-23 -8q-12 0 -22 7.5t-10 18.5q0 8 1.5 12t3.5 10z" />
    <glyph glyph-name="dieresistonos" unicode="&#x385;" horiz-adv-x="488" 
d="M242 741q11 23 21 32.5t25 9.5q18 0 30.5 -12t12.5 -26q-2 -14 -9 -27l-69 -109q-7 -11 -15 -18.5t-21 -7.5q-12 0 -20 6.5t-8 20.5q0 8 4 17zM127 711q19 0 34.5 -11.5t15.5 -37.5q0 -22 -14 -35t-36 -13q-23 0 -36 13t-13 35t13 35.5t36 13.5zM375 711q19 0 34 -11.5
t15 -37.5q0 -22 -13 -35t-36 -13t-36 13t-13 35t13 35.5t36 13.5z" />
    <glyph glyph-name="Alphatonos" unicode="&#x386;" horiz-adv-x="672" 
d="M71 -7q-18 0 -34.5 9.5t-16.5 26.5q0 3 1 8t5 13l263 624q6 12 16.5 19.5t31.5 7.5q23 0 33.5 -7.5t15.5 -19.5l261 -622q4 -8 4.5 -12.5t0.5 -8.5q0 -18 -16.5 -28t-35.5 -10q-14 0 -22 7.5t-13 18.5l-77 180h-306l-78 -181q-11 -25 -33 -25zM336 585l-123 -312h244z
M86 738q11 26 21.5 35.5t27.5 9.5q20 0 34 -13.5t14 -29.5q-1 -6 -3 -13.5t-7 -13.5l-64 -102q-7 -12 -16 -20t-23 -8q-12 0 -22 7.5t-10 18.5q0 8 1.5 12t3.5 10z" />
    <glyph glyph-name="Epsilontonos" unicode="&#x388;" horiz-adv-x="688" 
d="M256 316v-239h354q20 0 28.5 -9.5t8.5 -28.5t-8.5 -29t-28.5 -10h-396q-21 0 -33.5 10t-12.5 33v608q0 23 12.5 33t33.5 10h396q20 0 28.5 -9.5t8.5 -28.5t-8.5 -29t-28.5 -10h-354v-224h335q20 0 28.5 -9.5t8.5 -28.5t-8.5 -29t-28.5 -10h-335zM37 738q11 26 21.5 35.5
t27.5 9.5q20 0 34 -13.5t14 -29.5q-1 -6 -3 -13.5t-7 -13.5l-64 -102q-7 -12 -16 -20t-23 -8q-12 0 -22 7.5t-10 18.5q0 8 1.5 12t3.5 10z" />
    <glyph glyph-name="Etatonos" unicode="&#x389;" horiz-adv-x="806" 
d="M168 660q0 23 12 32t33 9t32.5 -9t11.5 -32v-253h377v253q0 23 11.5 32t32.5 9t33 -9t12 -32v-626q0 -23 -12 -32t-33 -9t-32.5 9t-11.5 32v296h-377v-296q0 -23 -11.5 -32t-32.5 -9t-33 9t-12 32v626zM37 738q11 26 21.5 35.5t27.5 9.5q20 0 34 -13.5t14 -29.5
q-1 -6 -3 -13.5t-7 -13.5l-64 -102q-7 -12 -16 -20t-23 -8q-12 0 -22 7.5t-10 18.5q0 8 1.5 12t3.5 10z" />
    <glyph glyph-name="Iotatonos" unicode="&#x38a;" horiz-adv-x="339" 
d="M168 660q0 23 11.5 32t32.5 9t32.5 -9t11.5 -32v-626q0 -23 -11.5 -32t-32.5 -9t-32.5 9t-11.5 32v626zM37 738q11 26 21.5 35.5t27.5 9.5q20 0 34 -13.5t14 -29.5q-1 -6 -3 -13.5t-7 -13.5l-64 -102q-7 -12 -16 -20t-23 -8q-12 0 -22 7.5t-10 18.5q0 8 1.5 12t3.5 10z
" />
    <glyph glyph-name="Omicrontonos" unicode="&#x38c;" horiz-adv-x="778" 
d="M727 347q0 -84 -24 -151.5t-67.5 -115t-104.5 -72.5t-135 -25t-135 25t-104.5 72.5t-67.5 115t-24 151.5t24 151.5t67.5 115t104.5 72.5t135 25t135 -25t104.5 -72.5t67.5 -115t24 -151.5zM160 347q0 -65 15 -117.5t45 -89.5t74 -57.5t102 -20.5t102 20.5t74 57.5
t45 89.5t15 117.5q0 64 -15 117t-45 90t-74 57.5t-102 20.5t-102 -20.5t-74 -57.5t-45 -90t-15 -117zM37 738q11 26 21.5 35.5t27.5 9.5q20 0 34 -13.5t14 -29.5q-1 -6 -3 -13.5t-7 -13.5l-64 -102q-7 -12 -16 -20t-23 -8q-12 0 -22 7.5t-10 18.5q0 8 1.5 12t3.5 10z" />
    <glyph glyph-name="Upsilontonos" unicode="&#x38e;" horiz-adv-x="746" 
d="M400 319q-54 73 -114.5 155t-114.5 156q-5 8 -9 16t-4 16q0 17 15.5 28t30.5 11q21 0 33 -18l209 -292l206 289q14 21 34 21q14 0 28.5 -10t14.5 -27q0 -8 -4 -16t-9 -16l-227 -314v-284q0 -23 -11.5 -32t-32.5 -9t-33 9t-12 32v285zM37 738q11 26 21.5 35.5t27.5 9.5
q20 0 34 -13.5t14 -29.5q-1 -6 -3 -13.5t-7 -13.5l-64 -102q-7 -12 -16 -20t-23 -8q-12 0 -22 7.5t-10 18.5q0 8 1.5 12t3.5 10z" />
    <glyph glyph-name="Omegatonos" unicode="&#x38f;" horiz-adv-x="805" 
d="M643 359q0 58 -15 107.5t-44 86t-72.5 57t-101.5 20.5t-101 -20.5t-72 -57.5t-43.5 -87t-14.5 -109q0 -53 12.5 -96.5t33 -77.5t45.5 -58.5t51 -39.5q13 -8 16.5 -13.5t3.5 -19.5v-32q0 -8 -3 -13.5t-13 -5.5h-235q-18 0 -25 9.5t-7 27.5q0 38 30 38h142
q-66 43 -106 116.5t-40 173.5q0 75 23 138.5t65.5 109t102.5 71.5t135 26q76 0 136.5 -25t102.5 -70.5t64.5 -108.5t22.5 -138q0 -52 -11 -96t-30.5 -81t-45.5 -66t-56 -50h138q31 0 31 -38q0 -37 -34 -37h-229q-18 0 -18 18v33q0 14 3 20t15 13q30 14 56 39.5t45.5 60.5
t31 79t11.5 96zM37 738q11 26 21.5 35.5t27.5 9.5q20 0 34 -13.5t14 -29.5q-1 -6 -3 -13.5t-7 -13.5l-64 -102q-7 -12 -16 -20t-23 -8q-12 0 -22 7.5t-10 18.5q0 8 1.5 12t3.5 10z" />
    <glyph glyph-name="iotadieresistonos" unicode="&#x390;" horiz-adv-x="268" 
d="M119 513q41 0 41 -40v-357q0 -28 7.5 -38t23.5 -10q12 0 22 4t19 4q12 0 18 -8.5t6 -28.5q0 -22 -15 -33q-11 -9 -29 -13t-35 -4q-45 0 -73.5 27.5t-28.5 88.5v366q0 23 9 32.5t35 9.5zM112 741q11 23 21 32.5t25 9.5q18 0 30.5 -12t12.5 -26q-2 -14 -9 -27l-69 -109
q-7 -11 -15 -18.5t-21 -7.5q-12 0 -20 6.5t-8 20.5q0 8 4 17zM-3 711q19 0 34.5 -11.5t15.5 -37.5q0 -22 -14 -35t-36 -13q-23 0 -36 13t-13 35t13 35.5t36 13.5zM245 711q19 0 34 -11.5t15 -37.5q0 -22 -13 -35t-36 -13t-36 13t-13 35t13 35.5t36 13.5z" />
    <glyph glyph-name="Alpha" unicode="&#x391;" horiz-adv-x="672" 
d="M71 -7q-18 0 -34.5 9.5t-16.5 26.5q0 3 1 8t5 13l263 624q6 12 16.5 19.5t31.5 7.5q23 0 33.5 -7.5t15.5 -19.5l261 -622q4 -8 4.5 -12.5t0.5 -8.5q0 -18 -16.5 -28t-35.5 -10q-14 0 -22 7.5t-13 18.5l-77 180h-306l-78 -181q-11 -25 -33 -25zM336 585l-123 -312h244z
" />
    <glyph glyph-name="Beta" unicode="&#x392;" horiz-adv-x="642" 
d="M483 503q0 30 -9 51.5t-30 35.5t-55.5 20.5t-85.5 6.5h-134v-228h126q53 0 89 7t58 21t31.5 35.5t9.5 50.5zM505 195q0 30 -9 52.5t-31 38t-57.5 23t-89.5 7.5h-149v-239h161q95 0 135 29t40 89zM306 694q138 0 202.5 -43.5t64.5 -140.5q0 -52 -25.5 -90t-73.5 -60
q63 -22 93 -66.5t30 -98.5q0 -100 -64.5 -147.5t-198.5 -47.5h-205q-21 0 -33.5 10t-12.5 33v608q0 23 12.5 33t33.5 10h177z" />
    <glyph glyph-name="Gamma" unicode="&#x393;" horiz-adv-x="507" 
d="M464 694q33 0 33 -38q0 -17 -7.5 -28t-26.5 -11h-293v-585q0 -39 -43 -39q-22 0 -33 8.5t-11 30.5v624q0 38 40 38h341z" />
    <glyph glyph-name="uni0394" unicode="&#x394;" horiz-adv-x="664" 
d="M70 0q-24 0 -33.5 11t-9.5 25q0 16 8 34l244 596q16 35 55 35q41 0 55 -33l244 -600q7 -15 7 -30q0 -17 -9.5 -27.5t-32.5 -10.5h-528zM333 586l-204 -511h406z" />
    <glyph glyph-name="Epsilon" unicode="&#x395;" horiz-adv-x="603" 
d="M171 316v-239h354q20 0 28.5 -9.5t8.5 -28.5t-8.5 -29t-28.5 -10h-396q-21 0 -33.5 10t-12.5 33v608q0 23 12.5 33t33.5 10h396q20 0 28.5 -9.5t8.5 -28.5t-8.5 -29t-28.5 -10h-354v-224h335q20 0 28.5 -9.5t8.5 -28.5t-8.5 -29t-28.5 -10h-335z" />
    <glyph glyph-name="Zeta" unicode="&#x396;" horiz-adv-x="597" 
d="M73 0q-47 0 -47 44q0 12 4.5 22.5t17.5 27.5l410 523h-372q-20 0 -28.5 10t-8.5 29t8.5 28.5t28.5 9.5h432q47 0 47 -44q0 -12 -5 -22.5t-17 -27.5l-411 -523h401q21 0 29.5 -9.5t8.5 -28.5t-8.5 -29t-29.5 -10h-460z" />
    <glyph glyph-name="Eta" unicode="&#x397;" horiz-adv-x="721" 
d="M83 660q0 23 12 32t33 9t32.5 -9t11.5 -32v-253h377v253q0 23 11.5 32t32.5 9t33 -9t12 -32v-626q0 -23 -12 -32t-33 -9t-32.5 9t-11.5 32v296h-377v-296q0 -23 -11.5 -32t-32.5 -9t-33 9t-12 32v626z" />
    <glyph glyph-name="Theta" unicode="&#x398;" horiz-adv-x="764" 
d="M713 349q0 -84 -23.5 -151.5t-67 -115.5t-104.5 -73.5t-136 -25.5q-77 0 -138 25.5t-104 73t-66 114.5t-23 151t23.5 151t67 114.5t104.5 73t136 25.5q76 0 137 -25.5t104 -72.5t66.5 -114t23.5 -150zM618 348q0 64 -15 116t-44.5 89t-74 57.5t-102.5 20.5
q-59 0 -103 -20.5t-73.5 -57.5t-44.5 -89t-15 -116q0 -65 15 -118t44.5 -90t73.5 -57t103 -20q58 0 102.5 20t74 57.5t44.5 90t15 117.5zM499 392q33 0 33 -38q0 -40 -33 -40h-237q-18 0 -26 10.5t-8 28.5q0 39 34 39h237z" />
    <glyph glyph-name="Iota" unicode="&#x399;" horiz-adv-x="254" 
d="M83 660q0 23 11.5 32t32.5 9t32.5 -9t11.5 -32v-626q0 -23 -11.5 -32t-32.5 -9t-32.5 9t-11.5 32v626z" />
    <glyph glyph-name="Kappa" unicode="&#x39a;" horiz-adv-x="636" 
d="M162 34q0 -23 -11.5 -32t-32.5 -9q-22 0 -33.5 9t-11.5 32v626q0 23 11.5 32t33.5 9q21 0 32.5 -9t11.5 -32v-297l338 322q16 16 32 16q18 0 30.5 -13t12.5 -27q0 -5 -3.5 -13t-14.5 -19l-226 -217l275 -351q7 -9 8.5 -16t1.5 -11q0 -8 -4.5 -15.5t-11.5 -13t-15 -9
t-15 -3.5q-23 0 -42 24l-262 337l-104 -98v-222z" />
    <glyph glyph-name="Lambda" unicode="&#x39b;" horiz-adv-x="647" 
d="M268 670q11 31 56 31q44 0 55 -31l234 -604q4 -10 6.5 -19t2.5 -16q0 -17 -15 -27.5t-37 -10.5q-26 0 -36 26l-210 569l-211 -570q-10 -25 -38 -25q-21 0 -35.5 9.5t-14.5 26.5q0 11 9 35z" />
    <glyph glyph-name="Mu" unicode="&#x39c;" horiz-adv-x="870" 
d="M168 544v-512q0 -22 -11.5 -30.5t-31.5 -8.5t-31 8.5t-11 30.5v617q0 29 15.5 40.5t42.5 11.5q28 0 41 -9.5t21 -28.5l234 -559l234 559q8 19 20.5 28.5t39.5 9.5t41.5 -11.5t14.5 -40.5v-617q0 -22 -11 -30.5t-31 -8.5t-31.5 8.5t-11.5 30.5v513l-216 -510
q-6 -14 -18 -24t-33 -10t-33 10t-18 24z" />
    <glyph glyph-name="Nu" unicode="&#x39d;" horiz-adv-x="719" 
d="M169 558v-526q0 -22 -11.5 -30.5t-31.5 -8.5t-31.5 8.5t-11.5 30.5v626q0 24 13.5 33.5t38.5 9.5q24 0 36.5 -10.5t23.5 -27.5l355 -529v528q0 22 11.5 30.5t31.5 8.5t31.5 -8.5t11.5 -30.5v-626q0 -24 -13.5 -33.5t-38.5 -9.5q-24 0 -36.5 10.5t-23.5 27.5z" />
    <glyph glyph-name="Xi" unicode="&#x39e;" horiz-adv-x="551" 
d="M477 694q34 0 34 -39t-33 -39h-404q-34 0 -34 39t35 39h402zM480 77q31 0 31 -38q0 -39 -33 -39h-404q-34 0 -34 39q0 38 32 38h408zM415 392q17 0 25.5 -10.5t8.5 -28.5t-8 -28.5t-26 -10.5h-279q-17 0 -25 10.5t-8 28.5t8 28.5t25 10.5h279z" />
    <glyph glyph-name="Omicron" unicode="&#x39f;" horiz-adv-x="764" 
d="M713 347q0 -84 -24 -151.5t-67.5 -115t-104.5 -72.5t-135 -25t-135 25t-104.5 72.5t-67.5 115t-24 151.5t24 151.5t67.5 115t104.5 72.5t135 25t135 -25t104.5 -72.5t67.5 -115t24 -151.5zM146 347q0 -65 15 -117.5t45 -89.5t74 -57.5t102 -20.5t102 20.5t74 57.5
t45 89.5t15 117.5q0 64 -15 117t-45 90t-74 57.5t-102 20.5t-102 -20.5t-74 -57.5t-45 -90t-15 -117z" />
    <glyph glyph-name="Pi" unicode="&#x3a0;" horiz-adv-x="694" 
d="M83 655q0 22 12 30.5t33 8.5h439q20 0 32 -8.5t12 -30.5v-622q0 -40 -44 -40q-22 0 -33 9t-11 31v582h-352v-582q0 -40 -43 -40q-23 0 -34 9t-11 31v622z" />
    <glyph glyph-name="Rho" unicode="&#x3a1;" horiz-adv-x="613" 
d="M296 352q53 0 89 9.5t57.5 27t31 42t9.5 54.5q0 29 -9 53.5t-30 42.5t-55 28t-84 10h-135v-267h126zM126 -7q-21 0 -32 9t-11 32v617q0 23 12.5 33t33.5 10h179q137 0 201 -54t64 -155q0 -28 -9.5 -64t-37.5 -68t-77.5 -54t-129.5 -22h-149v-243q0 -23 -11.5 -32
t-32.5 -9z" />
    <glyph glyph-name="Sigma" unicode="&#x3a3;" horiz-adv-x="591" 
d="M68 0q-20 0 -32.5 10t-12.5 31q0 26 27 58l249 261l-225 234q-15 14 -21 29t-6 29q0 21 12.5 31.5t32.5 10.5h426q34 0 34 -40t-33 -40h-351l207 -217q8 -8 12 -16.5t4 -19.5q0 -22 -16 -39l-228 -243h372q33 0 33 -40q0 -39 -34 -39h-450z" />
    <glyph glyph-name="Tau" unicode="&#x3a4;" horiz-adv-x="598" 
d="M345 34q0 -23 -11.5 -32t-32.5 -9t-32.5 9t-11.5 32v583h-209q-21 0 -29.5 10t-8.5 29t8.5 28.5t29.5 9.5h506q21 0 29.5 -9.5t8.5 -28.5t-8.5 -29t-29.5 -10h-209v-583z" />
    <glyph glyph-name="Upsilon" unicode="&#x3a5;" horiz-adv-x="605" 
d="M259 319q-54 73 -114.5 155t-114.5 156q-5 8 -9 16t-4 16q0 17 15.5 28t30.5 11q21 0 33 -18l209 -292l206 289q14 21 34 21q14 0 28.5 -10t14.5 -27q0 -8 -4 -16t-9 -16l-227 -314v-284q0 -23 -11.5 -32t-32.5 -9t-33 9t-12 32v285z" />
    <glyph glyph-name="Phi" unicode="&#x3a6;" horiz-adv-x="754" 
d="M415 632q59 -4 111.5 -21.5t92 -51t62.5 -84t23 -121.5q0 -69 -23 -120.5t-62.5 -86.5t-92 -54t-111.5 -24v-61q0 -19 -10 -29t-33 -10q-22 0 -33 9t-11 30v62q-58 4 -109 22.5t-88.5 52t-59 84.5t-21.5 121q0 68 22 118.5t59.5 85t88.5 54t108 24.5v53q0 22 12 30.5
t32 8.5t31.5 -8.5t11.5 -30.5v-53zM615 352q0 50 -15 87t-42 62t-63.5 39t-79.5 18v-414q43 4 79.5 18t63.5 39.5t42 63t15 87.5zM139 351q0 -50 14 -86.5t39 -61.5t60 -39.5t76 -19.5v413q-42 -5 -77 -19.5t-59.5 -39.5t-38.5 -61.5t-14 -85.5z" />
    <glyph glyph-name="Chi" unicode="&#x3a7;" horiz-adv-x="625" 
d="M512 683q9 11 16.5 14.5t18.5 3.5q14 0 27.5 -10t13.5 -27q0 -8 -4 -16t-10 -16l-209 -272l223 -294q17 -24 17 -37q0 -16 -15 -26t-31 -10q-11 0 -19.5 4.5t-19.5 18.5l-208 274l-215 -279q-8 -11 -16 -14.5t-18 -3.5q-15 0 -29 9.5t-14 25.5q0 14 12 31l229 298
l-208 275q-6 8 -10 16t-4 16q0 17 15.5 27t29.5 10q11 0 19.5 -3.5t17.5 -14.5l194 -258z" />
    <glyph glyph-name="Psi" unicode="&#x3a8;" horiz-adv-x="754" 
d="M603 660q0 23 11.5 32t32.5 9t32.5 -9t11.5 -32v-151q0 -146 -79 -218q-68 -61 -191 -70v-187q0 -23 -11.5 -32t-32.5 -9t-32.5 9t-11.5 32v187q-124 9 -191 70q-79 72 -79 218v151q0 23 11.5 32t32.5 9t32.5 -9t11.5 -32v-146q0 -51 12 -91t38.5 -67.5t69.5 -42.5
q27 -10 62 -13v360q0 23 11.5 32t32.5 9t32.5 -9t11.5 -32v-360q33 4 60 13q43 15 70 42.5t39.5 67.5t12.5 91v146z" />
    <glyph glyph-name="Omega" unicode="&#x3a9;" horiz-adv-x="791" 
d="M629 359q0 58 -15 107.5t-44 86t-72.5 57t-101.5 20.5t-101 -20.5t-72 -57.5t-43.5 -87t-14.5 -109q0 -53 12.5 -96.5t33 -77.5t45.5 -58.5t51 -39.5q13 -8 16.5 -13.5t3.5 -19.5v-32q0 -8 -3 -13.5t-13 -5.5h-235q-18 0 -25 9.5t-7 27.5q0 38 30 38h142
q-66 43 -106 116.5t-40 173.5q0 75 23 138.5t65.5 109t102.5 71.5t135 26q76 0 136.5 -25t102.5 -70.5t64.5 -108.5t22.5 -138q0 -52 -11 -96t-30.5 -81t-45.5 -66t-56 -50h138q31 0 31 -38q0 -37 -34 -37h-229q-18 0 -18 18v33q0 14 3 20t15 13q30 14 56 39.5t45.5 60.5
t31 79t11.5 96z" />
    <glyph glyph-name="Iotadieresis" unicode="&#x3aa;" horiz-adv-x="254" 
d="M83 660q0 23 11.5 32t32.5 9t32.5 -9t11.5 -32v-626q0 -23 -11.5 -32t-32.5 -9t-32.5 9t-11.5 32v626zM227 855q20 0 36 -12t16 -37q0 -23 -14.5 -36t-37.5 -13t-37.5 13t-14.5 36q0 22 14.5 35.5t37.5 13.5zM27 855q20 0 36.5 -12t16.5 -37q0 -23 -15 -36t-38 -13
t-37 13t-14 36q0 22 14 35.5t37 13.5z" />
    <glyph glyph-name="Upsilondieresis" unicode="&#x3ab;" horiz-adv-x="605" 
d="M259 319q-54 73 -114.5 155t-114.5 156q-5 8 -9 16t-4 16q0 17 15.5 28t30.5 11q21 0 33 -18l209 -292l206 289q14 21 34 21q14 0 28.5 -10t14.5 -27q0 -8 -4 -16t-9 -16l-227 -314v-284q0 -23 -11.5 -32t-32.5 -9t-33 9t-12 32v285zM404 855q20 0 36 -12t16 -37
q0 -23 -14.5 -36t-37.5 -13t-37.5 13t-14.5 36q0 22 14.5 35.5t37.5 13.5zM204 855q20 0 36.5 -12t16.5 -37q0 -23 -15 -36t-38 -13t-37 13t-14 36q0 22 14 35.5t37 13.5z" />
    <glyph glyph-name="alphatonos" unicode="&#x3ac;" horiz-adv-x="642" 
d="M271 -17q-52 0 -94 20t-71 56t-45 86t-16 109t16 108t46 84.5t72 55.5t95 20q39 0 71 -12.5t57 -34t43 -51.5t29 -66l43 120q7 19 13 25.5t19 6.5q23 0 36.5 -11.5t13.5 -31.5q0 -8 -5 -23l-55 -146l-30 -72q6 -32 10.5 -60t10.5 -49.5t15 -34t24 -12.5q12 0 21.5 4
t18.5 4q13 0 19 -8.5t6 -29.5q0 -29 -23.5 -39.5t-54.5 -10.5q-44 0 -68.5 30.5t-37.5 88.5q-62 -126 -179 -126zM273 446q-35 0 -60.5 -14.5t-42.5 -40t-25.5 -61t-8.5 -77.5q0 -44 9 -80t27 -61.5t44 -40t60 -14.5q53 0 91.5 48t67.5 142q-6 43 -20.5 79.5t-35.5 63
t-48 41.5t-58 15zM306 738q11 26 21.5 35.5t27.5 9.5q20 0 34 -13.5t14 -29.5q-1 -6 -3 -13.5t-7 -13.5l-64 -102q-7 -12 -16 -20t-23 -8q-12 0 -22 7.5t-10 18.5q0 8 1.5 12t3.5 10z" />
    <glyph glyph-name="epsilontonos" unicode="&#x3ad;" horiz-adv-x="475" 
d="M414 474q9 -7 16.5 -16t7.5 -20q0 -17 -12.5 -27t-27.5 -10q-11 0 -20 6t-17 11q-19 12 -46.5 22t-69.5 10q-49 0 -75 -20.5t-26 -54.5q0 -36 26.5 -58t74.5 -22h72q20 0 26 -10t6 -24t-6 -24.5t-26 -10.5h-73q-53 0 -83.5 -23t-30.5 -68q0 -43 32.5 -62t86.5 -19
q47 0 79.5 13t52.5 30q10 7 18.5 12t18.5 5q15 0 27 -11t12 -27q0 -17 -26 -40q-9 -8 -24.5 -17t-37.5 -17t-51 -13.5t-65 -5.5q-100 0 -156 39.5t-56 115.5q0 48 27 81t71 47q-39 19 -61 48.5t-22 73.5q0 26 11 50.5t34 43t58 30t83 11.5q34 0 61.5 -5t48.5 -12.5t36 -16
t26 -15.5zM262 738q11 26 21.5 35.5t27.5 9.5q20 0 34 -13.5t14 -29.5q-1 -6 -3 -13.5t-7 -13.5l-64 -102q-7 -12 -16 -20t-23 -8q-12 0 -22 7.5t-10 18.5q0 8 1.5 12t3.5 10z" />
    <glyph glyph-name="etatonos" unicode="&#x3ae;" horiz-adv-x="591" 
d="M167 417q9 14 23 32.5t35 34.5t50.5 27t70.5 11q78 0 123.5 -45t45.5 -127v-528q0 -17 -10.5 -28t-30.5 -11t-32.5 10.5t-12.5 28.5v495q0 69 -23 97.5t-80 28.5q-46 0 -75 -19.5t-46 -49.5t-23.5 -65t-6.5 -66v-211q0 -23 -10 -31t-33 -8q-20 0 -31.5 8t-11.5 30v374
q0 21 -5.5 29t-16.5 8q-12 0 -18.5 -2t-15.5 -2q-24 0 -24 32q0 15 7 25t17.5 16t22.5 8.5t23 2.5q38 0 63 -22t25 -70v-13zM292 738q11 26 21.5 35.5t27.5 9.5q20 0 34 -13.5t14 -29.5q-1 -6 -3 -13.5t-7 -13.5l-64 -102q-7 -12 -16 -20t-23 -8q-12 0 -22 7.5t-10 18.5
q0 8 1.5 12t3.5 10z" />
    <glyph glyph-name="iotatonos" unicode="&#x3af;" horiz-adv-x="268" 
d="M119 513q41 0 41 -40v-357q0 -28 7.5 -38t23.5 -10q12 0 22 4t19 4q12 0 18 -8.5t6 -28.5q0 -22 -15 -33q-11 -9 -29 -13t-35 -4q-45 0 -73.5 27.5t-28.5 88.5v366q0 23 9 32.5t35 9.5zM123 738q11 26 21.5 35.5t27.5 9.5q20 0 34 -13.5t14 -29.5q-1 -6 -3 -13.5
t-7 -13.5l-64 -102q-7 -12 -16 -20t-23 -8q-12 0 -22 7.5t-10 18.5q0 8 1.5 12t3.5 10z" />
    <glyph glyph-name="upsilondieresistonos" unicode="&#x3b0;" horiz-adv-x="581" 
d="M299 -17q-108 0 -166.5 50t-58.5 154v291q0 35 42 35q20 0 32 -8t12 -27v-277q0 -67 31.5 -104.5t107.5 -37.5q26 0 50.5 10.5t43.5 32t30.5 54.5t11.5 78q0 60 -12.5 107.5t-43.5 99.5q-6 11 -11 19t-5 19q0 14 12.5 27t33.5 13q11 0 23.5 -5t21.5 -20q18 -30 31.5 -59
t22.5 -59.5t13 -64.5t4 -74q0 -65 -18 -112.5t-49 -79t-72 -47t-87 -15.5zM255 741q11 23 21 32.5t25 9.5q18 0 30.5 -12t12.5 -26q-2 -14 -9 -27l-69 -109q-7 -11 -15 -18.5t-21 -7.5q-12 0 -20 6.5t-8 20.5q0 8 4 17zM140 711q19 0 34.5 -11.5t15.5 -37.5q0 -22 -14 -35
t-36 -13q-23 0 -36 13t-13 35t13 35.5t36 13.5zM388 711q19 0 34 -11.5t15 -37.5q0 -22 -13 -35t-36 -13t-36 13t-13 35t13 35.5t36 13.5z" />
    <glyph glyph-name="alpha" unicode="&#x3b1;" horiz-adv-x="642" 
d="M271 -17q-52 0 -94 20t-71 56t-45 86t-16 109t16 108t46 84.5t72 55.5t95 20q39 0 71 -12.5t57 -34t43 -51.5t29 -66l43 120q7 19 13 25.5t19 6.5q23 0 36.5 -11.5t13.5 -31.5q0 -8 -5 -23l-55 -146l-30 -72q6 -32 10.5 -60t10.5 -49.5t15 -34t24 -12.5q12 0 21.5 4
t18.5 4q13 0 19 -8.5t6 -29.5q0 -29 -23.5 -39.5t-54.5 -10.5q-44 0 -68.5 30.5t-37.5 88.5q-62 -126 -179 -126zM273 446q-35 0 -60.5 -14.5t-42.5 -40t-25.5 -61t-8.5 -77.5q0 -44 9 -80t27 -61.5t44 -40t60 -14.5q53 0 91.5 48t67.5 142q-6 43 -20.5 79.5t-35.5 63
t-48 41.5t-58 15z" />
    <glyph glyph-name="beta" unicode="&#x3b2;" horiz-adv-x="591" 
d="M540 199q0 -53 -16.5 -93t-46 -67t-70 -40.5t-88.5 -13.5q-42 0 -85 10.5t-74 27.5v-199q0 -21 -11.5 -29t-31.5 -8q-22 0 -32.5 8.5t-10.5 29.5v665q0 47 13.5 87t40.5 69.5t67 46.5t93 17q50 0 87.5 -13.5t63 -36.5t38 -55t12.5 -69q0 -34 -9 -59t-23.5 -43
t-32.5 -30.5t-35 -21.5q27 -5 54 -17t48.5 -34t35 -54.5t13.5 -77.5zM318 59q25 0 49.5 6.5t43.5 22.5t30.5 41t11.5 63q0 42 -13.5 70t-36.5 45t-53 24t-63 7h-19q-16 0 -22.5 11t-6.5 27q0 17 6 27.5t21 10.5h23q21 0 41 5.5t35.5 18.5t25.5 34.5t10 53.5q0 51 -31.5 81.5
t-87.5 30.5q-59 0 -90.5 -43t-31.5 -117v-373q27 -16 67 -31t91 -15z" />
    <glyph glyph-name="gamma" unicode="&#x3b3;" horiz-adv-x="504" 
d="M279 -145q0 -40 -8 -54t-31 -14q-21 0 -32.5 11.5t-11.5 37.5q0 56 3 110q-13 152 -51 271.5t-103 213.5q-8 11 -15 21.5t-7 22.5q0 15 11.5 26t32.5 11q25 0 40 -22q34 -39 61 -94t47 -119.5t33 -136.5q5 -27 8 -55q10 26 20 50q18 42 36.5 80t34.5 77.5t28 83t16 96.5
q2 24 13.5 32.5t28.5 8.5t29.5 -9.5t12.5 -29.5q0 -54 -14 -105t-35 -99t-45.5 -94t-46.5 -89.5t-38 -85.5q-16 -40 -19 -78q2 -38 2 -68z" />
    <glyph glyph-name="delta" unicode="&#x3b4;" horiz-adv-x="555" 
d="M62 584q0 60 45 92.5t119 32.5q43 0 82 -9.5t70 -22.5t52.5 -26t30.5 -20q19 -16 19 -32q0 -18 -10.5 -30t-26.5 -12q-18 0 -36 13q-12 7 -30.5 18t-42.5 21.5t-52.5 18t-60.5 7.5q-41 0 -56.5 -13t-15.5 -35q0 -24 27 -39.5t67 -31.5t87.5 -36.5t87.5 -53.5t67 -83.5
t27 -125.5q0 -47 -16.5 -89t-47 -74.5t-74.5 -51.5t-98 -19q-57 0 -100.5 20t-72.5 52.5t-44 74t-15 85.5q0 55 17 98t46 77t69 60q2 1 5 3q-3 2 -6 3q-32 13 -57 30t-40.5 40.5t-15.5 57.5zM248 410q-35 -22 -60 -50t-39 -64.5t-14 -86.5q0 -26 8.5 -53.5t26 -50
t44.5 -36.5t63 -14t63 13t45 35.5t27 51t9 60.5q0 49 -15.5 83.5t-40.5 59t-58 41.5q-21 11 -43 21z" />
    <glyph glyph-name="epsilon" unicode="&#x3b5;" horiz-adv-x="475" 
d="M414 474q9 -7 16.5 -16t7.5 -20q0 -17 -12.5 -27t-27.5 -10q-11 0 -20 6t-17 11q-19 12 -46.5 22t-69.5 10q-49 0 -75 -20.5t-26 -54.5q0 -36 26.5 -58t74.5 -22h72q20 0 26 -10t6 -24t-6 -24.5t-26 -10.5h-73q-53 0 -83.5 -23t-30.5 -68q0 -43 32.5 -62t86.5 -19
q47 0 79.5 13t52.5 30q10 7 18.5 12t18.5 5q15 0 27 -11t12 -27q0 -17 -26 -40q-9 -8 -24.5 -17t-37.5 -17t-51 -13.5t-65 -5.5q-100 0 -156 39.5t-56 115.5q0 48 27 81t71 47q-39 19 -61 48.5t-22 73.5q0 26 11 50.5t34 43t58 30t83 11.5q34 0 61.5 -5t48.5 -12.5t36 -16
t26 -15.5z" />
    <glyph glyph-name="zeta" unicode="&#x3b6;" horiz-adv-x="474" 
d="M80 672q0 37 31 37h311q33 0 33 -37q0 -13 -3 -19.5t-16 -15.5q-141 -106 -209 -206.5t-68 -211.5q0 -41 9 -69t28 -47t48.5 -30.5t69.5 -19.5q32 -7 57.5 -17t43.5 -25.5t27.5 -38t9.5 -54.5q0 -24 -10 -47.5t-24 -42t-29 -30t-25 -11.5q-17 0 -29 13.5t-12 29.5
q0 10 7.5 19t16 18.5t16 20.5t7.5 25q0 29 -18 43.5t-70 23.5q-49 8 -87.5 23t-65.5 42t-41.5 69.5t-14.5 106.5q0 60 18 115.5t51 107t79 99t102 91.5h-211q-17 0 -24.5 11t-7.5 27z" />
    <glyph glyph-name="eta" unicode="&#x3b7;" horiz-adv-x="591" 
d="M167 417q9 14 23 32.5t35 34.5t50.5 27t70.5 11q78 0 123.5 -45t45.5 -127v-528q0 -17 -10.5 -28t-30.5 -11t-32.5 10.5t-12.5 28.5v495q0 69 -23 97.5t-80 28.5q-46 0 -75 -19.5t-46 -49.5t-23.5 -65t-6.5 -66v-211q0 -23 -10 -31t-33 -8q-20 0 -31.5 8t-11.5 30v374
q0 21 -5.5 29t-16.5 8q-12 0 -18.5 -2t-15.5 -2q-24 0 -24 32q0 15 7 25t17.5 16t22.5 8.5t23 2.5q38 0 63 -22t25 -70v-13z" />
    <glyph glyph-name="theta" unicode="&#x3b8;" horiz-adv-x="577" 
d="M532 341q0 -168 -59.5 -262.5t-183.5 -94.5t-184 93.5t-60 263.5q0 167 60 260t184 93t183.5 -93t59.5 -260zM289 617q-75 0 -111.5 -65t-41.5 -180h305q-4 114 -41 179.5t-111 65.5zM289 60q74 0 110.5 63.5t41.5 179.5h-305q5 -115 42 -179t111 -64z" />
    <glyph glyph-name="iota" unicode="&#x3b9;" horiz-adv-x="268" 
d="M119 513q41 0 41 -40v-357q0 -28 7.5 -38t23.5 -10q12 0 22 4t19 4q12 0 18 -8.5t6 -28.5q0 -22 -15 -33q-11 -9 -29 -13t-35 -4q-45 0 -73.5 27.5t-28.5 88.5v366q0 23 9 32.5t35 9.5z" />
    <glyph glyph-name="kappa" unicode="&#x3ba;" horiz-adv-x="537" 
d="M161 280l250 216q7 5 13.5 9t14.5 4q17 0 28.5 -11.5t11.5 -25.5q0 -5 -2.5 -12t-13.5 -17l-155 -134l183 -254q6 -8 7.5 -15.5t1.5 -10.5q0 -17 -15 -27t-30 -10q-13 0 -20.5 5.5t-17.5 19.5l-171 241l-85 -76v-150q0 -23 -11.5 -31.5t-31.5 -8.5t-31 8.5t-11 31.5v437
q0 23 11 31.5t31 8.5t31.5 -8.5t11.5 -31.5v-189z" />
    <glyph glyph-name="lambda" unicode="&#x3bb;" horiz-adv-x="499" 
d="M477 57q7 -18 7 -28q0 -16 -13.5 -26t-34.5 -10q-13 0 -23.5 8t-15.5 21l-148 362l-146 -362q-6 -14 -14.5 -21.5t-24.5 -7.5q-22 0 -36 9.5t-14 27.5q0 15 7 29l182 429q-8 20 -17.5 42.5t-17.5 42.5q-15 35 -29.5 49.5t-34.5 14.5q-6 0 -12.5 -2t-12.5 -4
q-15 -5 -26 -5q-15 0 -24.5 11t-9.5 26t9.5 25t23.5 16t30 8.5t29 2.5q27 0 47 -7.5t35.5 -22.5t28.5 -37.5t26 -51.5z" />
    <glyph glyph-name="uni03BC" unicode="&#x3bc;" horiz-adv-x="591" 
d="M275 -13q-31 0 -64 13t-49 42v-223q0 -38 -40 -38q-20 0 -33 8.5t-13 29.5v654q0 23 10.5 32.5t34.5 9.5q19 0 31.5 -9.5t12.5 -32.5v-274q0 -48 12 -73q10 -24 36 -41t60 -17q33 0 56.5 10.5t39 26t24.5 32.5t12 31q5 23 6.5 48.5t1.5 42.5v211q0 23 10.5 34t35.5 11
q20 0 31.5 -10t11.5 -33v-353q0 -25 6.5 -33.5t17.5 -8.5q9 0 19.5 3t18.5 3q15 0 22 -11t7 -28q0 -15 -5 -25q-9 -17 -29 -23.5t-44 -6.5q-42 0 -65 23t-27 55q-15 -25 -33 -40.5t-37 -24.5t-39 -12t-39 -3z" />
    <glyph glyph-name="nu" unicode="&#x3bd;" horiz-adv-x="516" 
d="M306 11q-16 -19 -42 -19q-35 0 -47.5 13t-14.5 25q-23 116 -64 218t-101 185q-9 13 -14.5 23.5t-5.5 19.5q0 13 11.5 25t31.5 12q25 0 41 -20q28 -36 55 -84t49.5 -101t39 -109t24.5 -110q63 90 100 188t43 193q3 44 45 44q20 0 31 -11t11 -30q0 -60 -16 -122.5
t-42.5 -123.5t-61.5 -116t-73 -100z" />
    <glyph glyph-name="xi" unicode="&#x3be;" horiz-adv-x="485" 
d="M465 624q0 -14 -8 -24t-21 -10q-14 0 -27 9t-25 16q-18 10 -38 15.5t-46 5.5q-48 0 -81.5 -29.5t-33.5 -92.5q0 -32 11.5 -55.5t30.5 -39.5t41.5 -24t45.5 -8h26q18 0 26 -10.5t8 -27.5q0 -16 -9 -27t-29 -11h-19q-33 0 -61.5 -8t-50 -24.5t-33.5 -42t-12 -60.5
q0 -57 35 -86.5t118 -45.5q31 -6 57 -15t44 -23.5t28 -36.5t10 -53q0 -27 -9.5 -51.5t-23.5 -43.5t-29.5 -30t-27.5 -11q-17 0 -27.5 12.5t-10.5 28.5q0 11 7.5 20t16 19t16 21t7.5 27q0 25 -18 40t-71 24q-49 8 -88 22.5t-66 38.5t-41.5 60.5t-14.5 89.5q0 38 12.5 68
t32.5 51.5t45.5 34.5t52.5 17q-51 15 -83.5 59t-32.5 105q0 46 15 82t41 61t62.5 37.5t79.5 12.5q27 0 56.5 -5.5t54.5 -16.5t41 -27.5t16 -37.5z" />
    <glyph glyph-name="omicron" unicode="&#x3bf;" horiz-adv-x="588" 
d="M544 254q0 -63 -18 -113t-51 -85.5t-79 -54t-102 -18.5q-57 0 -103 18.5t-79 53.5t-50.5 85t-17.5 113t18 113t51 85t79 53.5t102 18.5t102 -18.5t79 -53.5t51 -84.5t18 -112.5zM455 253q0 93 -41.5 144t-119.5 51q-77 0 -118.5 -51t-41.5 -144q0 -94 41.5 -144.5
t118.5 -50.5q78 0 119.5 50.5t41.5 144.5z" />
    <glyph glyph-name="pi" unicode="&#x3c0;" horiz-adv-x="630" 
d="M56 431q-23 0 -30.5 10t-7.5 28t8 27.5t29 9.5h522q20 0 28.5 -9t8.5 -28q0 -18 -7.5 -28t-30.5 -10h-66v-317q0 -28 7.5 -38t24.5 -10q12 0 22.5 4t19.5 4q12 0 18 -8.5t6 -28.5q0 -23 -15 -34q-11 -8 -30.5 -12t-37.5 -4q-48 0 -74.5 27t-26.5 78v339h-226v-400
q0 -24 -10.5 -33.5t-32.5 -9.5q-23 0 -34 9t-11 34v400h-54z" />
    <glyph glyph-name="rho" unicode="&#x3c1;" horiz-adv-x="595" 
d="M73 250q0 67 17 117.5t49 85t76.5 52t100.5 17.5q57 0 100.5 -20t73 -55.5t44.5 -85t15 -107.5q0 -59 -15 -109t-43.5 -86t-70 -56t-95.5 -20q-60 0 -102 21t-65 57v-236q0 -21 -11.5 -29.5t-32.5 -8.5q-41 0 -41 37v426zM459 251q0 43 -10.5 79t-30.5 61.5t-48.5 40
t-65.5 14.5q-70 0 -108 -49t-38 -139v-94q16 -49 56 -78t94 -29q37 0 65 14.5t47 40t29 61t10 78.5z" />
    <glyph glyph-name="sigma1" unicode="&#x3c2;" horiz-adv-x="515" 
d="M133 256q0 -48 7.5 -80.5t24 -54.5t41.5 -36t61 -24l49 -12q60 -12 91 -42t31 -89q0 -24 -10 -47.5t-23.5 -42t-28.5 -30t-25 -11.5q-17 0 -29 13.5t-12 29.5q0 10 7.5 19.5t16 19t16 20t7.5 24.5q0 27 -14 40.5t-59 21.5l-50 11q-45 10 -80.5 28t-60 49.5t-37.5 78
t-13 112.5q0 62 17 111.5t48 84.5t74.5 53.5t97.5 18.5q49 0 86.5 -13t62 -32t37 -40t12.5 -36q0 -13 -10.5 -29t-29.5 -16q-5 0 -8 2q-8 3 -18.5 16.5t-27 29.5t-42 28.5t-63.5 12.5q-72 0 -109 -50.5t-37 -138.5z" />
    <glyph glyph-name="sigma" unicode="&#x3c3;" horiz-adv-x="610" 
d="M441 253q0 62 -20 104.5t-58 73.5q-20 7 -35 9t-38 2q-34 0 -62.5 -12t-49.5 -36t-32.5 -59.5t-11.5 -81.5q0 -94 39 -144.5t113 -50.5t114.5 50.5t40.5 144.5zM531 254q0 -63 -18 -113t-50 -85.5t-77.5 -54t-99.5 -18.5q-56 0 -100.5 18.5t-76 53.5t-48.5 85t-17 113
t19 111.5t52 82.5t78 51.5t98 17.5q45 0 72.5 -5t51.5 -5h150q38 0 38 -37q0 -18 -8 -28t-30 -10h-97q29 -33 46 -76t17 -101z" />
    <glyph glyph-name="tau" unicode="&#x3c4;" horiz-adv-x="483" 
d="M40 432q-19 0 -26 10.5t-7 26.5t7.5 26t25.5 10h403q17 0 24.5 -9.5t7.5 -26.5q0 -16 -7 -26.5t-26 -10.5h-164v-299q0 -41 13.5 -56.5t39.5 -15.5q16 0 26.5 2.5t19 6t14.5 6t13 2.5q14 0 22 -12.5t8 -29.5q0 -23 -32.5 -38t-83.5 -15q-59 0 -92.5 32.5t-33.5 98.5v318
h-152z" />
    <glyph glyph-name="upsilon" unicode="&#x3c5;" horiz-adv-x="581" 
d="M299 -17q-108 0 -166.5 50t-58.5 154v291q0 35 42 35q20 0 32 -8t12 -27v-277q0 -67 31.5 -104.5t107.5 -37.5q26 0 50.5 10.5t43.5 32t30.5 54.5t11.5 78q0 60 -12.5 107.5t-43.5 99.5q-6 11 -11 19t-5 19q0 14 12.5 27t33.5 13q11 0 23.5 -5t21.5 -20q18 -30 31.5 -59
t22.5 -59.5t13 -64.5t4 -74q0 -65 -18 -112.5t-49 -79t-72 -47t-87 -15.5z" />
    <glyph glyph-name="phi" unicode="&#x3c6;" horiz-adv-x="711" 
d="M310 347q0 52 14.5 86t36 54t48 28t50.5 8q44 0 81.5 -17t65 -50t43 -80.5t15.5 -108.5q0 -60 -16.5 -110t-50 -87t-85 -59.5t-121.5 -27.5v-158q0 -21 -10 -29.5t-30 -8.5q-22 0 -31.5 8.5t-9.5 29.5v158q-68 5 -118 27t-82 58t-47.5 85t-15.5 108q0 71 23.5 132.5
t64.5 103.5q12 12 23 17t20 5q21 0 34 -13.5t13 -28.5q0 -11 -4.5 -18.5t-12.5 -15.5q-36 -35 -53.5 -85t-17.5 -101q0 -39 8.5 -73t28.5 -60.5t53 -43t83 -21.5v288zM575 264q0 48 -9 83t-24 57.5t-35.5 33t-44.5 10.5q-11 0 -23.5 -3.5t-23 -13.5t-17.5 -26.5t-7 -41.5
v-304q50 4 85 21t57 43.5t32 62.5t10 78z" />
    <glyph glyph-name="chi" unicode="&#x3c7;" horiz-adv-x="493" 
d="M265 253q31 60 63 115t62 114q8 14 15.5 21.5t21.5 7.5q19 0 31 -10t12 -26q0 -5 -1 -9.5t-3 -9.5q-37 -74 -80 -144.5t-84 -142.5q26 -69 53.5 -136t62.5 -136q8 -16 16 -23.5t22 -7.5q9 0 20 5.5t21 5.5q11 0 17.5 -11t6.5 -22q0 -30 -22.5 -43.5t-51.5 -13.5
q-35 0 -58 18.5t-36 45.5q-30 61 -56 120.5t-45 121.5q-7 -16 -14.5 -29.5t-15.5 -27.5l-125 -222q-7 -12 -14 -19.5t-21 -7.5q-22 0 -32.5 13.5t-10.5 29.5q2 9 8 21.5t14 26.5q44 75 87 149.5t86 149.5q-23 57 -45 113t-51 114q-8 15 -16.5 23t-21.5 8q-8 0 -17.5 -5.5
t-21.5 -5.5q-11 0 -18.5 10.5t-7.5 27.5q0 12 6.5 21.5t17 16t24 10t26.5 3.5q35 0 58 -18t36 -45q23 -50 44.5 -97.5t37.5 -99.5z" />
    <glyph glyph-name="psi" unicode="&#x3c8;" horiz-adv-x="715" 
d="M364 -213q-22 0 -31.5 8.5t-9.5 28.5v162q-126 8 -187 69t-61 181v243q0 34 41 34q20 0 32 -8t12 -26v-229q0 -42 8 -75t27 -57t50 -39t78 -19v561q0 22 9.5 31t31.5 9q19 0 30 -8.5t11 -29.5v-562q76 8 124 55.5t48 133.5q0 30 -3 55t-9.5 47.5t-16.5 44.5t-25 46
q-7 11 -11.5 18t-4.5 18q0 14 12.5 27t33.5 13q13 0 23.5 -5.5t20.5 -19.5q18 -30 31.5 -56t21.5 -53.5t12 -59t4 -71.5q0 -61 -19.5 -109t-54 -81.5t-82.5 -53t-105 -24.5v-161q0 -22 -10.5 -30t-30.5 -8z" />
    <glyph glyph-name="omega" unicode="&#x3c9;" horiz-adv-x="758" 
d="M379 76q-14 -39 -53 -66t-92 -27q-88 0 -139 61.5t-51 186.5q0 35 8 73t21 73.5t30.5 66t37.5 51.5q11 13 23 18.5t21 5.5q21 0 33.5 -13.5t12.5 -28.5q0 -11 -5 -18.5t-13 -15.5q-17 -18 -31.5 -44.5t-25.5 -56t-17 -60t-6 -55.5q0 -86 27.5 -129.5t75.5 -43.5
q22 0 41 10.5t32.5 28.5t21 41t7.5 49v168q0 20 14 26t27 6q14 0 27.5 -6t13.5 -26v-168q0 -26 7.5 -49t21.5 -41t32.5 -28.5t41.5 -10.5q48 0 75 43.5t27 129.5q0 25 -6 55.5t-17 60t-25.5 56t-31.5 44.5q-8 8 -12.5 15.5t-4.5 18.5q0 15 12 28.5t33 13.5q10 0 22 -5.5
t23 -18.5q19 -21 36.5 -51.5t31 -66t21.5 -73.5t8 -73q0 -125 -51 -186.5t-139 -61.5q-56 0 -94 27t-52 66z" />
    <glyph glyph-name="iotadieresis" unicode="&#x3ca;" horiz-adv-x="268" 
d="M218 707q21 0 38 -13t17 -39q0 -24 -15 -38t-40 -14t-40 14t-15 38q0 23 15.5 37.5t39.5 14.5zM40 707q20 0 38 -13t18 -39q0 -24 -15.5 -38t-40.5 -14t-39.5 14t-14.5 38q0 23 15 37.5t39 14.5zM119 513q41 0 41 -40v-357q0 -28 7.5 -38t23.5 -10q12 0 22 4t19 4
q12 0 18 -8.5t6 -28.5q0 -22 -15 -33q-11 -9 -29 -13t-35 -4q-45 0 -73.5 27.5t-28.5 88.5v366q0 23 9 32.5t35 9.5z" />
    <glyph glyph-name="upsilondieresis" unicode="&#x3cb;" horiz-adv-x="581" 
d="M299 -17q-108 0 -166.5 50t-58.5 154v291q0 35 42 35q20 0 32 -8t12 -27v-277q0 -67 31.5 -104.5t107.5 -37.5q26 0 50.5 10.5t43.5 32t30.5 54.5t11.5 78q0 60 -12.5 107.5t-43.5 99.5q-6 11 -11 19t-5 19q0 14 12.5 27t33.5 13q11 0 23.5 -5t21.5 -20q18 -30 31.5 -59
t22.5 -59.5t13 -64.5t4 -74q0 -65 -18 -112.5t-49 -79t-72 -47t-87 -15.5zM374 707q21 0 38 -13t17 -39q0 -24 -15 -38t-40 -14t-40 14t-15 38q0 23 15.5 37.5t39.5 14.5zM162 707q20 0 38 -13t18 -39q0 -24 -15.5 -38t-40.5 -14t-39.5 14t-14.5 38q0 23 15 37.5t39 14.5z
" />
    <glyph glyph-name="omicrontonos" unicode="&#x3cc;" horiz-adv-x="588" 
d="M544 254q0 -63 -18 -113t-51 -85.5t-79 -54t-102 -18.5q-57 0 -103 18.5t-79 53.5t-50.5 85t-17.5 113t18 113t51 85t79 53.5t102 18.5t102 -18.5t79 -53.5t51 -84.5t18 -112.5zM455 253q0 93 -41.5 144t-119.5 51q-77 0 -118.5 -51t-41.5 -144q0 -94 41.5 -144.5
t118.5 -50.5q78 0 119.5 50.5t41.5 144.5zM281 738q11 26 21.5 35.5t27.5 9.5q20 0 34 -13.5t14 -29.5q-1 -6 -3 -13.5t-7 -13.5l-64 -102q-7 -12 -16 -20t-23 -8q-12 0 -22 7.5t-10 18.5q0 8 1.5 12t3.5 10z" />
    <glyph glyph-name="upsilontonos" unicode="&#x3cd;" horiz-adv-x="581" 
d="M299 -17q-108 0 -166.5 50t-58.5 154v291q0 35 42 35q20 0 32 -8t12 -27v-277q0 -67 31.5 -104.5t107.5 -37.5q26 0 50.5 10.5t43.5 32t30.5 54.5t11.5 78q0 60 -12.5 107.5t-43.5 99.5q-6 11 -11 19t-5 19q0 14 12.5 27t33.5 13q11 0 23.5 -5t21.5 -20q18 -30 31.5 -59
t22.5 -59.5t13 -64.5t4 -74q0 -65 -18 -112.5t-49 -79t-72 -47t-87 -15.5zM278 738q11 26 21.5 35.5t27.5 9.5q20 0 34 -13.5t14 -29.5q-1 -6 -3 -13.5t-7 -13.5l-64 -102q-7 -12 -16 -20t-23 -8q-12 0 -22 7.5t-10 18.5q0 8 1.5 12t3.5 10z" />
    <glyph glyph-name="omegatonos" unicode="&#x3ce;" horiz-adv-x="758" 
d="M379 76q-14 -39 -53 -66t-92 -27q-88 0 -139 61.5t-51 186.5q0 35 8 73t21 73.5t30.5 66t37.5 51.5q11 13 23 18.5t21 5.5q21 0 33.5 -13.5t12.5 -28.5q0 -11 -5 -18.5t-13 -15.5q-17 -18 -31.5 -44.5t-25.5 -56t-17 -60t-6 -55.5q0 -86 27.5 -129.5t75.5 -43.5
q22 0 41 10.5t32.5 28.5t21 41t7.5 49v168q0 20 14 26t27 6q14 0 27.5 -6t13.5 -26v-168q0 -26 7.5 -49t21.5 -41t32.5 -28.5t41.5 -10.5q48 0 75 43.5t27 129.5q0 25 -6 55.5t-17 60t-25.5 56t-31.5 44.5q-8 8 -12.5 15.5t-4.5 18.5q0 15 12 28.5t33 13.5q10 0 22 -5.5
t23 -18.5q19 -21 36.5 -51.5t31 -66t21.5 -73.5t8 -73q0 -125 -51 -186.5t-139 -61.5q-56 0 -94 27t-52 66zM364 738q11 26 21.5 35.5t27.5 9.5q20 0 34 -13.5t14 -29.5q-1 -6 -3 -13.5t-7 -13.5l-64 -102q-7 -12 -16 -20t-23 -8q-12 0 -22 7.5t-10 18.5q0 8 1.5 12t3.5 10z
" />
    <glyph glyph-name="uni0400" unicode="&#x400;" horiz-adv-x="603" 
d="M171 316v-239h354q20 0 28.5 -9.5t8.5 -28.5t-8.5 -29t-28.5 -10h-396q-21 0 -33.5 10t-12.5 33v608q0 23 12.5 33t33.5 10h396q20 0 28.5 -9.5t8.5 -28.5t-8.5 -29t-28.5 -10h-354v-224h335q20 0 28.5 -9.5t8.5 -28.5t-8.5 -29t-28.5 -10h-335zM377 809q11 -8 16 -14.5
t5 -17.5q0 -14 -9.5 -23.5t-23.5 -9.5q-13 0 -24 4t-20 9l-99 53q-17 9 -24.5 18.5t-7.5 23.5q0 17 12.5 32t32.5 15q14 0 27.5 -8t29.5 -20z" />
    <glyph glyph-name="afii10023" unicode="&#x401;" horiz-adv-x="603" 
d="M171 316v-239h354q20 0 28.5 -9.5t8.5 -28.5t-8.5 -29t-28.5 -10h-396q-21 0 -33.5 10t-12.5 33v608q0 23 12.5 33t33.5 10h396q20 0 28.5 -9.5t8.5 -28.5t-8.5 -29t-28.5 -10h-354v-224h335q20 0 28.5 -9.5t8.5 -28.5t-8.5 -29t-28.5 -10h-335zM416 855q20 0 36 -12
t16 -37q0 -23 -14.5 -36t-37.5 -13t-37.5 13t-14.5 36q0 22 14.5 35.5t37.5 13.5zM216 855q20 0 36.5 -12t16.5 -37q0 -23 -15 -36t-38 -13t-37 13t-14 36q0 22 14 35.5t37 13.5z" />
    <glyph glyph-name="afii10051" unicode="&#x402;" horiz-adv-x="725" 
d="M288 31q0 -38 -43 -38q-21 0 -32.5 8.5t-11.5 29.5v585h-157q-19 0 -26.5 11t-7.5 28t8 28t25 11h442q17 0 25 -11t8 -28t-7 -28t-26 -11h-197v-268q9 16 24 35.5t37.5 36t53.5 28t71 11.5q97 0 150 -60t53 -177q0 -60 -14.5 -104.5t-41 -74.5t-63 -45t-79.5 -15
q-32 0 -54 4.5t-38 10.5q-24 9 -33 19t-9 21q0 17 11 31.5t26 14.5q9 0 17.5 -4.5t19.5 -10t25.5 -10t35.5 -4.5t40.5 8.5t35 27t24.5 49.5t9 76q0 79 -33.5 122t-102.5 43q-43 0 -74 -17t-51.5 -44.5t-30 -62t-9.5 -68.5v-158z" />
    <glyph glyph-name="afii10052" unicode="&#x403;" horiz-adv-x="507" 
d="M464 694q33 0 33 -38q0 -17 -7.5 -28t-26.5 -11h-293v-585q0 -39 -43 -39q-22 0 -33 8.5t-11 30.5v624q0 38 40 38h341zM321 868q16 12 30.5 19.5t28.5 7.5q20 0 31.5 -13t11.5 -30q0 -14 -7.5 -23.5t-24.5 -18.5l-99 -53q-9 -5 -19.5 -9t-23.5 -4q-14 0 -23 8t-9 22
q0 11 4 17.5t15 14.5z" />
    <glyph glyph-name="afii10053" unicode="&#x404;" horiz-adv-x="691" 
d="M376 632q-53 0 -93.5 -18t-69 -50t-45.5 -76.5t-21 -97.5h320q33 0 33 -38q0 -17 -7.5 -28t-25.5 -11h-321q2 -54 18 -100t45.5 -79.5t71 -52.5t95.5 -19q68 0 108 25.5t70 69.5q11 17 18.5 28t13 17.5t10.5 9t13 2.5q14 0 30 -9t16 -27q0 -19 -14.5 -47t-35.5 -51
q-14 -14 -32.5 -31t-45.5 -31.5t-64 -24.5t-88 -10q-84 0 -145 27.5t-100.5 76t-59 114.5t-19.5 143q0 80 22 147.5t64 116t103 76t140 27.5q45 0 81 -9.5t63.5 -23.5t46.5 -29.5t30 -27.5q17 -19 31 -42.5t14 -43.5q0 -11 -5 -18.5t-12 -12t-15 -6.5t-13 -2
q-14 0 -22.5 7.5t-17.5 21.5q-15 25 -32.5 44.5t-39 33.5t-49.5 21.5t-64 7.5z" />
    <glyph glyph-name="afii10054" unicode="&#x405;" horiz-adv-x="618" 
d="M389 376q87 -26 127.5 -70.5t40.5 -120.5q0 -53 -19.5 -91t-52 -63t-75 -36.5t-87.5 -11.5q-75 0 -143.5 21t-116.5 72q-13 14 -15.5 23.5t-2.5 17.5q0 16 15 29t31 13q9 -1 16 -6t13 -11q48 -49 95 -66.5t106 -17.5q64 0 105.5 29.5t41.5 86.5q0 50 -30 79t-99 49
l-87 25q-93 26 -138.5 70t-45.5 123q0 50 21.5 86t56 59.5t76 34.5t82.5 11q69 0 129.5 -23t102.5 -76q8 -11 11 -19t3 -16q0 -17 -13 -28t-28 -11q-10 0 -18.5 4.5t-19.5 15.5q-38 42 -77 60t-91 18q-28 0 -54 -7t-46.5 -21t-33 -35.5t-12.5 -49.5q0 -19 5.5 -34.5
t19 -29.5t37.5 -26t60 -23z" />
    <glyph glyph-name="afii10055" unicode="&#x406;" horiz-adv-x="254" 
d="M83 660q0 23 11.5 32t32.5 9t32.5 -9t11.5 -32v-626q0 -23 -11.5 -32t-32.5 -9t-32.5 9t-11.5 32v626z" />
    <glyph glyph-name="afii10056" unicode="&#x407;" horiz-adv-x="254" 
d="M83 660q0 23 11.5 32t32.5 9t32.5 -9t11.5 -32v-626q0 -23 -11.5 -32t-32.5 -9t-32.5 9t-11.5 32v626zM227 855q20 0 36 -12t16 -37q0 -23 -14.5 -36t-37.5 -13t-37.5 13t-14.5 36q0 22 14.5 35.5t37.5 13.5zM27 855q20 0 36.5 -12t16.5 -37q0 -23 -15 -36t-38 -13
t-37 13t-14 36q0 22 14 35.5t37 13.5z" />
    <glyph glyph-name="afii10057" unicode="&#x408;" horiz-adv-x="542" 
d="M250 59q71 0 99.5 40.5t28.5 126.5v434q0 23 11.5 32t32.5 9t32.5 -9t11.5 -32v-433q0 -127 -56 -185.5t-169 -58.5q-50 0 -85 12.5t-58 31t-36 40.5t-20 40q-7 20 -7 38q0 22 16.5 31.5t32.5 9.5t25 -9.5t15 -26.5q6 -18 14 -34.5t22 -29t35.5 -20t54.5 -7.5z" />
    </font>
</defs>
</svg>
